<svg xmlns="http://www.w3.org/2000/svg" xmlns:xlink="http://www.w3.org/1999/xlink" viewBox="0 0 163.16 84.03"><defs><style>.cls-1{fill:url(#무제_그라디언트_8);}.cls-2{fill:url(#무제_그라디언트_2);}.cls-3{fill:url(#무제_그라디언트_3);}.cls-4{fill:url(#무제_그라디언트_4);}.cls-5{fill:url(#무제_그라디언트_5);}.cls-6{fill:url(#무제_그라디언트_6);}.cls-7{fill:url(#무제_그라디언트_7);}.cls-8{fill:#1163aa;}</style><linearGradient id="무제_그라디언트_8" x1="1497.26" y1="4076.36" x2="1484.99" y2="4064.09" gradientTransform="matrix(1, 0, 0, -1, -1487.29, 4099.87)" gradientUnits="userSpaceOnUse"><stop offset="0" stop-color="#f0ba1a"/><stop offset="1" stop-color="#c0bd1a"/></linearGradient><linearGradient id="무제_그라디언트_2" x1="1484.67" y1="4055.13" x2="1495.19" y2="4044.61" gradientTransform="matrix(1, 0, 0, -1, -1487.29, 4099.87)" gradientUnits="userSpaceOnUse"><stop offset="0" stop-color="#c0bd1a"/><stop offset="1" stop-color="#7cb62d"/></linearGradient><linearGradient id="무제_그라디언트_3" x1="1559.3" y1="4062.96" x2="1568.25" y2="4054.02" gradientTransform="matrix(1, 0, 0, -1, -1487.29, 4099.87)" gradientUnits="userSpaceOnUse"><stop offset="0" stop-color="#7cc5e9"/><stop offset="1" stop-color="#1ca9b9"/></linearGradient><linearGradient id="무제_그라디언트_4" x1="1570.02" y1="4047.73" x2="1560.98" y2="4038.7" gradientTransform="matrix(1, 0, 0, -1, -1487.29, 4099.87)" gradientUnits="userSpaceOnUse"><stop offset="0" stop-color="#1ca9b9"/><stop offset="1" stop-color="#0e9790"/></linearGradient><linearGradient id="무제_그라디언트_5" x1="1502.45" y1="4057.33" x2="1557.43" y2="4057.33" gradientTransform="matrix(1, 0, 0, -1, -1487.29, 4099.87)" gradientUnits="userSpaceOnUse"><stop offset="0" stop-color="#1163aa"/><stop offset="1" stop-color="#7cc5e9"/></linearGradient><linearGradient id="무제_그라디언트_6" x1="1493.06" y1="4087.09" x2="1568.13" y2="4087.09" gradientTransform="matrix(1, 0, 0, -1, -1487.29, 4099.87)" gradientUnits="userSpaceOnUse"><stop offset="0" stop-color="#f0ba1a"/><stop offset="0.04" stop-color="#efb619"/><stop offset="0.7" stop-color="#e47a11"/><stop offset="1" stop-color="#df610f"/></linearGradient><linearGradient id="무제_그라디언트_7" x1="1495.53" y1="4030.4" x2="1558.54" y2="4030.4" gradientTransform="matrix(1, 0, 0, -1, -1487.29, 4099.87)" gradientUnits="userSpaceOnUse"><stop offset="0" stop-color="#7cb62d"/><stop offset="1" stop-color="#0e9790"/></linearGradient></defs><g id="레이어_2" data-name="레이어 2"><g id="레이어_2-2" data-name="레이어 2"><path class="cls-1" d="M8.78,22.38l-3-3.32A41.94,41.94,0,0,0,0,40.06H2.07A25.28,25.28,0,0,1,8.78,22.38Z"/><path class="cls-2" d="M8.24,54.91A19.56,19.56,0,0,1,2.07,40.1v0H0A51.86,51.86,0,0,0,4,60.72Z"/><path class="cls-3" d="M74.14,34.71l-3.85,4c5.33.08,8.6,4.19,8.48,9.44h2.07A17.24,17.24,0,0,0,74.14,34.71Z"/><path class="cls-4" d="M80.84,48.12H78.77c-.1,4.31-2.4,7.94-7.52,10.63l5.4,7.44A37.35,37.35,0,0,0,80.84,48.12Z"/><path class="cls-5" d="M10.94,34a13.27,13.27,0,0,0-.23,2.47c0,12.36,9.21,20.26,20.85,20.26,22.11,0,28.67-18.07,38.58-18.07h.15l3.85-4c-4.78-3.93-11.87-6.39-20.47-6.39-17.51,0-26.83,14.62-34.78,14.62-3.46,0-6.11-3.8-6.11-7.48a10.2,10.2,0,0,1,.07-1.12Z"/><path class="cls-6" d="M24.65,15.88c12.78,0,21.65,9.67,33.05,9.67,13.68,0,21.24-6.66,23.15-19.68l-2.07-.34C78.2,9,76,13.12,71.92,13.12c-3.8,0-7.83-3.34-13.7-6.56S45.6,0,37.19,0C23.67,0,12.26,8,5.77,19.06l3,3.32A21.54,21.54,0,0,1,24.65,15.88Z"/><path class="cls-7" d="M38,64c-9.89,0-22.41-2.14-29.76-9.09L4,60.72C10.1,74.75,23.12,84,42.61,84c12.89,0,27.15-5.1,34-17.84l-5.4-7.44C64.9,62.09,54.21,64,38,64Z"/><path class="cls-8" d="M114.82,62.87C102,62.87,94.94,54.46,94.94,42s7.66-21,20.11-21a24.85,24.85,0,0,1,12.33,3L126,32.72a19.93,19.93,0,0,0-10.76-3.44c-7,0-10.34,5.13-10.34,12.67s3.51,12.92,10.46,12.92a10.62,10.62,0,0,0,5.43-1.29V46.4h-7L112.65,39h16.89V58.61a26.49,26.49,0,0,1-14.72,4.26"/><path class="cls-8" d="M148.72,62.58a33,33,0,0,1-14.09-3L136.09,51c4.15,2.22,8.77,3.74,12.8,3.74,2.87,0,4.86-1.23,4.86-3.62s-1.17-3.34-6.85-5.5c-8.06-3.1-11.57-5.72-11.57-12.39,0-7.77,6.08-11.92,13.79-11.92A25.58,25.58,0,0,1,161.29,24l-1.52,8.41a22.11,22.11,0,0,0-10.53-3.27c-3,0-4.5,1.28-4.5,3.16,0,2,1.11,3,6.14,5,8.78,3.21,12.28,6.25,12.28,12.68,0,8.77-6.43,12.62-14.44,12.62"/></g></g></svg>