<svg xmlns="http://www.w3.org/2000/svg" viewBox="0 0 891.53 300"><defs><style>.cls-1{fill:#221f20;}.cls-2{fill:#040000;}.cls-3{fill:#18559c;}.cls-4{fill:#fff;}.cls-5{fill:#b4a66c;}.cls-6{fill:#c4b953;}.cls-7{fill:none;stroke:#c6b854;stroke-linecap:round;stroke-linejoin:round;stroke-width:3.6px;}.cls-8{fill:#c4b7a4;}</style></defs><g id="레이어_2" data-name="레이어 2"><g id="레이어_2-2" data-name="레이어 2"><path class="cls-1" d="M496.19,222v-9h23.13v21.41a29.7,29.7,0,0,1-9.84,5.76,36,36,0,0,1-13,2.49A28.94,28.94,0,0,1,481.82,239a22.4,22.4,0,0,1-9.4-10.07,33,33,0,0,1-3.13-14.3,30.88,30.88,0,0,1,3.5-14.88,23.71,23.71,0,0,1,10.25-10,27.8,27.8,0,0,1,12.81-2.67c6.63,0,11.83,1.4,15.56,4.18a18.88,18.88,0,0,1,7.2,11.56l-10.73,1.94a11.32,11.32,0,0,0-4.24-6.21,12.81,12.81,0,0,0-7.78-2.28q-7.08,0-11.26,4.52c-2.75,3-4.17,7.47-4.17,13.39q0,9.6,4.28,14.37a14.16,14.16,0,0,0,11.14,4.78,19,19,0,0,0,6.86-1.33,23.33,23.33,0,0,0,5.86-3.25V222Zm45.48,19.64V219.08l-19.58-31h12.66l12.55,21.23,12.26-21.23H572L552.4,219.15V241.6Zm34.27,0V188.1h39.72v9.06h-29V209h27v9.06h-27v14.49h30v9.06Z"/><path class="cls-2" d="M666.87,194.48c-4.72-4.9-11.06-7.36-18.94-7.36a29.63,29.63,0,0,0-11.55,2.12,21,21,0,0,0-6.93,4.83,24.9,24.9,0,0,0-5,7.35A34.21,34.21,0,0,0,622,215.17c0,8.53,2.36,15.25,7.06,20.11s11,7.3,19,7.3,14.17-2.44,18.85-7.34S674,223.58,674,214.92s-2.37-15.55-7.12-20.44m-8.18,34.23a14.48,14.48,0,0,1-21.32,0c-2.82-3.16-4.2-7.77-4.2-13.86s1.37-10.82,4.09-13.89a14.94,14.94,0,0,1,21.54,0c2.68,3,4.05,7.62,4.05,13.79S661.45,225.58,658.69,228.71Z"/><path class="cls-1" d="M680.81,241.6V188.1h10.51l22,35.79V188.1h10v53.5H712.47l-21.63-35v35ZM758.29,222v-9h23.14v21.41a29.29,29.29,0,0,1-9.84,5.76,36.18,36.18,0,0,1-13,2.49A29,29,0,0,1,743.92,239,22.31,22.31,0,0,1,734.54,229a32.71,32.71,0,0,1-3.14-14.3,30.89,30.89,0,0,1,3.52-14.88,23.55,23.55,0,0,1,10.25-10,27.61,27.61,0,0,1,12.8-2.67c6.63,0,11.83,1.4,15.55,4.18a18.89,18.89,0,0,1,7.21,11.56L770,204.8a11.45,11.45,0,0,0-4.26-6.21,12.8,12.8,0,0,0-7.77-2.28q-7.08,0-11.26,4.52c-2.78,3-4.17,7.47-4.17,13.39q0,9.6,4.26,14.37A14.18,14.18,0,0,0,758,233.37a18.76,18.76,0,0,0,6.84-1.33,24.16,24.16,0,0,0,5.9-3.25V222Zm70.09-33.86h10.74V222A35,35,0,0,1,838,232.24a14.54,14.54,0,0,1-5.71,7.49q-4.12,2.85-10.89,2.85-7.93,0-12.21-4.49t-4.31-13.21l10.31-1q.18,4.65,1.35,6.57a5.79,5.79,0,0,0,5.3,2.9c2.41,0,4.1-.68,5.1-2.05s1.49-4.25,1.49-8.59Zm20.66,0h10.73v29.12a60.86,60.86,0,0,0,.39,9,8.75,8.75,0,0,0,3.31,5.32,11.55,11.55,0,0,0,7.13,2c3.08,0,5.37-.64,6.92-1.9a7.5,7.5,0,0,0,2.82-4.64,61.33,61.33,0,0,0,.48-9.13V188.1h10.71v28.12q0,9.66-.87,13.63a14.86,14.86,0,0,1-3.22,6.72,16,16,0,0,1-6.26,4.38,27.07,27.07,0,0,1-10.24,1.63c-5.11,0-9-.6-11.59-1.77a16.46,16.46,0,0,1-6.23-4.61,14.52,14.52,0,0,1-3-5.94A64.73,64.73,0,0,1,849,216.67Z"/><path class="cls-3" d="M342.57,50.15c.41-12.64-3.51-22.66-3.09-34.48,0-1.6-10.34-13.34-14.65-13.5C323.35,2.13,310,4.05,308.26,4c-4-.09-22-1.89-32.28-1.86-4.73,0-16.81-1-24.12-1.58C250.59.47,231.58,2.78,230,2.7,218.91,2.32,203.6.55,199.29,0c-4.11-.47-32.92,3.31-39.41,3.67-7.44.41-13.26-.94-20.3-2C131.84.52,76.48,5.36,75,5.36c-1.72,0-6.11,2-6,3.8.12,2.53-3.66,15-2.33,18,3.32,7.61,3.16,23,2.94,31-.29,10.22,1.29,19.62,2.88,31,.79,5.5.85,19.71,1.68,26.73.48,3.93.06,10.58,0,14.48-.08,15.37,1.47,27.55,3.1,43.1.87,8.67,4.25,39.28,4.42,48.14a9.7,9.7,0,0,0,.66,3.56l1.34,7.2s-2.3,2.76,1.82,8.72c0,0,1.39,5.47,8.71,6.85l4.12-1.38,7.66.58,3.33.8,2.23-.51c9.76.71,25.47,2.69,28.35,2.69,3.37,0,17.31-1.49,20.86-1.49,3.37,0,27.76.85,31.34.86,3.4.05,17.11-.63,20.53-.6s52.25,1.55,55.61,1.61c3.54.06,31.45-.2,34.47-.13,2.76.05,10.65-3.73,15.73-3.83-.05-.85,7.28-11.9,7.41-13,1.48-11.7-.61-8.68,1-17.68,2.51-14.2-2.13-31.85,1.19-43.81.86-3.06,7-53.16,7.32-56.13,1.75-16.27,4.52-19.42,4.38-35.65,0-1.73-.48-13.22-.43-15.13s3.15-13,3.23-15Z"/><path class="cls-4" d="M148.62,34.61l-9.64-2c.12,3.66.21,7.32.23,11q4.56.18,9.09.6c.13-3.22.26-6.36.32-9.58ZM89.7,24.15Q90.85,30.86,92,37.56c3.84-.3,7.65-.56,11.47-.75q-1.22-6.63-2.39-13.33c-3.78.24-7.56.43-11.35.67Zm26.13,38.66c.43,3.34.87,6.63,1.25,9.92,3.16,0,6.32-.1,9.46-.11-.46-3.29-.91-6.57-1.37-9.85-3.08,0-6.22,0-9.34,0Zm194.59-38c-.74,4-1.41,8-2.11,11.94,3.73,1,7.39,1.93,11.06,3,.62-4,1.28-7.94,1.94-11.89-3.65-1-7.26-2-10.89-3ZM270.1,39.46c.35,2.82.72,5.67,1.08,8.49q4-.11,8.09-.1c-.39-2.83-.79-5.63-1.15-8.45-2.68,0-5.35.05-8,.06Zm33,28c.32,2.84.7,5.68,1.05,8.49,2.74,0,5.39-.09,8.09-.1-.39-2.8-.78-5.63-1.15-8.44C308.45,67.42,305.77,67.47,303.13,67.47Z"/><path class="cls-5" d="M109.84,112.29c.29.32.62.61.93.89"/><path class="cls-4" d="M174.94,77.86c-.6-2.4-6.06.08-9.57.66-2.15.35-5.1,1.6-7.11,1.83-2.55.27-6.62,1.45-7.91,4-.78,1.52,1.48,2.13,2.49,2.65,1.81,1,3.72,2,4.46,4.09s.76,4.27,1.13,6.3c.45,2.41.77,4.86,1.27,7.26.46,2.23-.19,4.64.33,6.75s2,6,2.59,7.69c1,3.05.83,3.15,1.79,3.47,3.19,1.11,6.6.24,10.69.64,2.11.19,4.16,1.38,6.94,1.65,2.31.24,10.78.58,13.25.83s4.78.29,7.27.55,4.84-.5,7.29-.24,5,.48,7.55.74,4.94.3,7.35.58,4.62,1.57,6.9,1.79c2.46.25,4.95-.53,7.29-.28,1.21.11,2.4.23,3.61.36a77.89,77.89,0,0,0,8.6.71,10.64,10.64,0,0,1,3.74,1.12,25,25,0,0,0,4.87,1.24c1.48.22,2.25,1,3.48,1.72s2.27.4,3.26-.67a17.25,17.25,0,0,0,1.15-1.8,14.67,14.67,0,0,0,1.3-1.77,7.42,7.42,0,0,0,.39-2.15c.34-2.27.63-4.49.75-6.76a15.68,15.68,0,0,1,.21-3.49,15.65,15.65,0,0,0,1-3.65c.17-2.21.13-4.45.3-6.64.21-2.49,0-4.77.12-6.79.28-3.74,2-7.79.16-8a19,19,0,0,1-5.22-1.37c-1.91-.73-4.07-.51-6.08-.88A17.94,17.94,0,0,1,257.78,89c-1.11-.38-2.41.2-3.56.25s-2,.8-3,1.21c-.74.29-1.73.3-2,1.25s1,1.53,1.47,2.2A9,9,0,0,1,251.5,97c.48,2.2,1,4.42,1.44,6.64a15.82,15.82,0,0,1,.35,2.17c.06,2.14-.11,3.16-.17,4.87-.12,2.76-3.16,1.09-3.56,2-.29.75-.14,1.86-4,1.89a142.11,142.11,0,0,1-16.71-.89c-3.38-.4-7.44-.23-7-1.7s-6,.78-8.44.57-4.7,0-7.06-.25c-2.61-.22-3.83-.26-6.14-.64-2.78-.45-8.31.37-11.12-1-1.2-.59-5.28-.95-5.56-1-3.16-.55-1.84-4.73-3.89-10-1.3-3.31.29-4.92-1-8.22s-1.23-3.22-2.42-6.66c-1-3-.62-4.44-1.26-6.9Zm-3.12,90.39c-1-1.71-2.12-3.41-3.14-5.15-.91-1.54-1.41-3.52-3.16-4.06a11.38,11.38,0,0,1-4.6-2.38,10,10,0,0,1-1.82-3.23c-.5-1.18.65-2.4,1.19-3.49a5.36,5.36,0,0,1,2.07-2.1,13.65,13.65,0,0,1,4.26-1.34c2.46-.4,5-.14,7.43-.65,1-.22,2.53-.87,3.58-.35l1,.38c1.35.75,1.31,2.31,1.64,3.7.37,1.63,1.78,3.56,2,5.23.14,1,.2,2.61,1.11,3.27.66.5,1.76.24,2.54.24,3.13,0,6.16-.5,9.27-.62s6.14-.71,9.23-1c1-.08,1.87.28,2.75-.2a19.57,19.57,0,0,0,3.25-2.82c.73-.65,1.07-.65.94.46s3.88,1.33,4.45,1.25c2.37-.31,4.71-.73,7.07-1.08a45.34,45.34,0,0,0,5.95-.85,4.14,4.14,0,0,0,2.77-2.17c.71-1.62-.39-3.14-.52-4.74-.16-2.3,2.55-2.91,4.27-3.31,1-.21,2-.84,3-.75a13.2,13.2,0,0,1,4.2,1.61c1.56.67,3.08,1.37,4.6,2.1,2,.93,5.88,1.44,7.52,2.39,2.42,1.37,3.61,2.42,3.32,3.47-.35,1.33-1,4.83-1.57,7.26-.47,1.91-.57,4.08-1.19,5.86-.94,2.79-.17,2.87-2.5,4.37-3,1.92-4.41.94-8.87,1.33-2.09.16-6.58.61-9.3.83-2.29.2-4.45.75-7,.93-2.38.19-4.83,0-7.33.19s-5.21-.49-7.68-.31-4.83.2-7.2.34-4.67.27-6.89.42c-2.42.14-4.8,1-7,1.16q-3.57.21-7.15.31a41,41,0,0,1-8.81-1c-1.22-.39-1.86-2.63-3.69-5.58Z"/><path class="cls-4" d="M226.76,86.38c-.52-.91-1.3-1.79-1.85-2.63A6.65,6.65,0,0,0,221.64,81c-1.24-.46-2.62-.09-3.88,0-1.61.14-3.94.79-5.55.39-.67,0-3-.57-3.75-.56-1.39.41-.63,1.1-1.23,3.58-.79,3.39-.18,11.52-1,14.87-.73,3.09-1.76,5-2.49,8.06s.48,7.62,0,10.63c-.64,3.36-.75,3.26-1.19,6.64s-2.65,3-3.08,6.36.49,3.61,0,7-.75,3.3-1.19,6.6-1.15,10-1.59,13.39-1.77,3.08-2.2,6.46,1.71,3.62,1.29,7-3.24,9.62-3.67,12.82a46.44,46.44,0,0,0-.42,10.58c.6,6.35-2.92,9.62-3.61,14.95-.41,3.18,2,3.5,1.64,6.64s-3.5,3.6-1,5.75c3,2.59,3.73,1.62,7.81,1.66,3.59,0,9,1.16,11.7-.92s.53-4.53,1-7.75.26-3.11.75-6.44-.38-3.42.14-6.7,2.26-9.68,2.78-13.06,1.08-3.23,1.58-6.53-.17-3.9.33-7.25-2.25-1.8-1.76-5.14.47-3.23,1-6.44-.44-3.5,0-6.78,3.07-14.72,3.57-17.88c.43-2.88.49-4.53,1-7.42.59-3.38.1-2.86.76-6.27s.69-2.64,1.36-6.08,1.18-3.74,1.81-7,.05-3.74.7-7.13,1.13-2.56,1.77-5.91c.3-1.48.58-3,.86-4.44.21-1.16.5-2.32.76-3.47s.82-2.39.45-3.69a5,5,0,0,0-.46-1.09Z"/><path class="cls-3" d="M223.21,83.7v0Z"/><path class="cls-4" d="M112.48,199.87a10.53,10.53,0,0,1,2.7-.24,29.75,29.75,0,0,1,4.1.37,30.69,30.69,0,0,0,5.83-.31c7.79-.61,15.63-.74,23.44-.7,4.54,0,9.09.15,13.63.24,2.26.06,8.19.29,10.52.35s4.59-.19,6.88-.11,4.7.58,7,.66,4.44.65,6.7.75,4.13-.6,6.41-.53,5.07,1,7.42,1,4.46-.84,6.66-.73,4.55.6,6.79.67,5.27-1,7.57-.91,3.71.29,5.83.36,4.44-.37,6.6-.29,4.48-.11,6.68-.05,8.54,1.38,10.74,1.49.52.39,2.72.5,4.28,1.12,6.3,1.23c2.2.08,4.35-1.24,6.33-1.14,1.77.09,3.45,1,5.2.94,1.32-.05,2.57-.51,3.93-.52,3.12-.05,6.34.29,9.44.08,2.19-.14,3.83-.62,5.88.71,3.25,2.12,2.2,6.32,2.22,9.53a51.13,51.13,0,0,1-.75,5.93c-.4,3-.08,4.36-2.25,6-2.71,2.07-2.51,2-6.85,1.91-2,0-2.65-2.44-5.28-2.48-12.18-.16-19-3.12-31.85-1.73-4.05.43-12.92,1.84-16.66,1.79-2.35,0-4.66.7-6.81.71-2.43,0-4.77-.7-6.86-.68-2.5,0-4.7-.44-6.57-.42-3.43.06-6-1.58-6.59-1.46-9.72,2.22-19.49-.66-29.51-.62-12.24,0-21,1.92-33.29,2-2.35,0-5.17,2.35-7.33,2.35s-7.05-1.05-9-1.05c-2.34,0-4.24-.07-6-.07-3.84,0-2.76,1-5-1.1-2.78-2.68-1.54-2.31-2.79-6.29-.7-2.21-2.36-4.33-3.54-6.31q-1.22-2-2.35-4a11.28,11.28,0,0,1-1-2.16,22.32,22.32,0,0,1-.91-2.06,10.63,10.63,0,0,1,3-3.42,1.62,1.62,0,0,1,.51-.25Z"/><path class="cls-4" d="M294.65,134.21c-1.2-1.27-2.28-2.67-4.07-3.08a14,14,0,0,0-3,0c-3.15-.24-3.12.41-4,3.1a40.61,40.61,0,0,0-1.49,4.7,68.76,68.76,0,0,1-2.07,7c-.92,2.75-.71,6-2,8.61s-2.94,5.05-4.19,7.71c-3.89,8.36-3.82,16.93-6.92,25.12-1.18,3.08-1.83,2.88-3,6s-.53,3.38-1.74,6.54c-1.45,3.92-10.46,13.85-4.18,14.82,2.2.33,13-.45,15.18-.22,2.75.26,5.44-3.41,7.09-5.4,1.44-1.71,1.91-4.25,2.64-6.24s1.77-3.89,2.52-6S287.28,193,288,191s1.9-4.06,2.67-6.15,1.34-4.12,2.06-6.09c.77-2.12.41-4.57,1.13-6.6s2.86-3.5,3.51-5.38c.74-2.07.25-4.41.85-6.21.8-2.29,3.16-6,3.74-7.74a31.81,31.81,0,0,1,3.55-6.62c.32-.51,1.31-1.69,1.21-2.29-.2-1.11-2.8-2.25-3.58-3.07a18.77,18.77,0,0,0-2.18-2.4c-2-1.48-4.61-2.43-6.3-4.25Z"/><path class="cls-6" d="M298,140.91c-1.34-1.93-6.45-4-7.86-5.72-2.21-2.75-5.45-4.29-6.14-3.08-1.68,3-1.28,2.81-2.47,6a.22.22,0,0,0,0,.1c-3.28,8.55-8.06,16.45-11.92,24.74s-3.79,16.72-6.86,24.82c-1.18,3.06-1.81,2.86-3,5.9s-.55,3.35-1.73,6.48c-1.44,3.87-10.33,13.68-4.15,14.66,2.18.33,12.85-.47,15-.24,2.71.26,5.37-3.36,7-5.34,1.41-1.66,1.88-4.17,2.61-6.13s1.74-3.89,2.49-5.93,1.84-3.79,2.57-5.8,1.89-4,2.62-6.07,1.32-4.09,2.05-6c.78-2.13.4-4.54,1.12-6.54s2.82-3.46,3.48-5.3c.72-2.06.23-4.37.84-6.15.79-2.28,3.13-5.95,3.67-7.64,1-3.05,4.82-8.35,4.82-8.89-.05-1.32-2.46-1.32-4.18-3.86Z"/><path class="cls-4" d="M146.44,199.34c-.55-2-1.17-4.06-1.75-6.23-.55-2-.43-4.18-1-6.26s-1.5-3.88-2.07-5.85-.49-4.32-1.11-6.39q-5.5-19.29-11.33-38.48c-1.21-3.9-.68-6-3.82-7.52-2.18-1.09-4.33.17-6.56-.47a29.85,29.85,0,0,0-6.51-1c-2-.16-3.94.11-5.86-.22s-3.42-1.26-5.34-.89c-1.34.26-1.87,1.64-3.12,2.14-1.09.43-2.86,1-2.42,2.47.51,1.67,7,5.19,7.74,7.34.58,1.76,1.38,3.65,2.09,5.68s3.41,10.43,4.21,12.58,3.27,6.1,4,8.15,2.75,8,3.5,9.95,3.15,4.78,3.91,6.85,1.82,9.64,2.6,11.64c1.37,3.65,3.48,14.54,8.78,14.92,2.24.18,10.24-.51,12.54-.12s2.27-5.25,1.48-8.3Z"/><path class="cls-6" d="M141.27,202.19c-.54-2-1.18-4.06-1.76-6.21-.52-2-.43-4.2-1-6.28s-1.49-3.88-2.07-5.86-.49-4.31-1.11-6.37Q129.84,158.18,124,139c-1.22-3.93-.67-6-3.82-7.53-3.37-1.7-3.2.39-6.91-.44-4.17-1-3.9.07-8.07-.86-4-.9-8.11-1-10-.37.16,1.18-.62,2.89.12,5.49.5,1.67,2.12,3.4,2.81,5.57.59,1.74,1.41,3.63,2.11,5.66s3.41,10.44,4.19,12.6,3.27,6.1,4,8.14,2.75,8,3.52,10,3.14,4.78,3.91,6.84,1.82,9.66,2.59,11.66c1.37,3.65,3.5,14.54,8.79,14.92,2.23.16,10.23-.53,12.54-.12s2.26-5.28,1.47-8.31Z"/><path class="cls-6" d="M108.73,204c.43-.65,2.12.6,6.13.21,15.86-1.5,27.75-1.39,43.53-1,2.25.07,8.17.3,10.5.36s4.57-.18,6.87-.11,4.71.59,7,.65,4.44.65,6.68.75,4.17-.59,6.45-.51,5,.94,7.4,1,4.46-.82,6.67-.76,4.53.6,6.81.72,5.25-1,7.54-.94,3.72.29,5.84.35,4.45-.37,6.6-.28,4.47-.12,6.66-.05,8.55,1.38,10.75,1.49.52.38,2.71.49,4.28,1.12,6.31,1.21c2.19.1,4.35-1.22,6.34-1.11,2.21.11,4.29,1.59,6.25,1.68,2.94.17,6,0,8.92.07a54.79,54.79,0,0,0,5.59-.09c1.37-.11,2.91-.48,4.08.45,3.53,2.88,1.58,10.81,1.07,14.55-.39,3,.72,2.56-1.45,4.23-2.74,2.06-1.66,1.45-6,1.39-2-.05-4.32-.11-7-.15-12.21-.15-19-3.12-31.84-1.72-4.05.43-12.93,1.83-16.66,1.78-2.36,0-4.66.69-6.84.71-2.42,0-4.75-.68-6.84-.68-2.49,0-4.7-.44-6.57-.42-3.42.06-6-1.58-6.59-1.46-9.72,2.21-19.49-.65-29.51-.62-7.27,0-14.45.85-21.66,1.44a76.76,76.76,0,0,0-9.78,1c-3.44.71-7.09-.1-10.58.64a16.6,16.6,0,0,1-3.34.73c-1.39,0-2.83-.48-4.23-.46-2.33,0-4.24-.09-6-.09-3.83,0-2.75,1-5-1.1-2.77-2.65-1.53-2.31-2.78-6.29-.74-2.29-.73-5-1.39-7.35-.83-3-3.79-9.35-2.79-10.7Z"/><path class="cls-4" d="M226.78,27.84l.36.33c1.05,1.14,1.82,2.61,2.89,3.77,1.31,1.42,2.59,2.88,3.86,4.36a25.77,25.77,0,0,0,4.1,3.3c1.8,1.36,2.78,3.33,4.19,5a16.4,16.4,0,0,1,2.13,2.62,21.51,21.51,0,0,0,2.1,3.36A5.49,5.49,0,0,1,248,53.77a6.91,6.91,0,0,1-1.49,4.28c-1,1.26-1.55,2.79-2.45,4.12a12.7,12.7,0,0,1-1.75,2.25,4.36,4.36,0,0,1-1.65.7,23.53,23.53,0,0,0-6.36,3.32c-3.32,2.5-3.67,2.5-5.48,2.79q-5.48.87-11,1.31a15,15,0,0,1-7.4-1.18c-3.09-1.16-5.92-2.2-8.24-3.23-1.13-.49-2.2-2-3.13-4.27s-3.53-8.49-2.93-9.63c1-1.91,6.28-9.55,6.88-10.67,1.15-2.15,4.39-3.61,6.42-4.82.9-.52,1.94-.88,2.77-1.46,1-.7,1.33-2,1.72-3.05.62-1.78,1.06-3.59,1.64-5.41a4.24,4.24,0,0,1,.63-.91c.24-.37.5-.75.74-1.1a.75.75,0,0,0,.12-.4,6.09,6.09,0,0,1,.3-.63,4.58,4.58,0,0,1,.62-1c.2-.22.44-.36.64-.56s.6-.76,1.13-.77h.65a2.13,2.13,0,0,1,.75.05.92.92,0,0,1,.5.1l.25.24a6,6,0,0,0,1,.56,4.52,4.52,0,0,1,1.27,1.07c.38.44.75.89,1.16,1.29a16.48,16.48,0,0,0,1.51,1.08Z"/><path class="cls-7" d="M221.71,24.54h0"/><path class="cls-3" d="M231.44,49.91a9.16,9.16,0,0,0-4.29-6.32c-2.32-1.33-5.57-.19-8.06,0-2.19.13-4.64.42-6.47,1.78a12.12,12.12,0,0,0-2.29,2.4c-1.61,2.09-2.45,3.88-2.54,5.33-.09,2,.88,3.45,1.92,5.08.85,1.35,1.28,2.77,2.86,3.44,2.14.91,4.3.33,6.49.1a15.24,15.24,0,0,0,6.84-1.95,12.93,12.93,0,0,0,5.31-6.85,6.74,6.74,0,0,0,.24-3Z"/><path class="cls-6" d="M240.76,46.13l-3.23-3.47-2.19-2.11c-.05-.11-7.9-9-10.56-12l-3.07-4c-.59-1-1.21-2-2.17-2.06s-1.63.67-2.68,1.93l-2.39,2.64c-1.15,1.18-9.64,7-12.53,8.8-3.33,2-5.15,3.3-5.78,4.58l-2.56,3.93-4.31,6.73c-.29.51-.86,1.62,2.85,10.48,1.12,2.62,2.3,4.2,3.68,4.79l7.08,2.8,1.19.44a15.63,15.63,0,0,0,7.83,1.25L223,69.54c2-.32,2.59-.48,5.9-3a22.56,22.56,0,0,1,6.1-3.17c4.89-1.68,5.77-4.65,7-8.75l.23-.72a8.1,8.1,0,0,0,.32-2.28,10,10,0,0,0-1.79-5.54m-14.31,6.4c-1,2.08-1.9,3-4.28,4.49a12.18,12.18,0,0,1-8.22,1.82,13.71,13.71,0,0,1-3.87-.83c-1.83-.51-2.91-1.09-3.29-1.7-2-2.08-2.87-4.07-2.69-6,.09-1.46.92-3.25,2.49-5.34a12.44,12.44,0,0,1,2.31-2.4c2-1.44,5.2-2,8.22-1.61C221.54,41.58,230.13,47.23,226.44,52.53Zm-67.19,99.36a4.18,4.18,0,0,1,3.36-1.68c.93-.05,1.85.18,2.82.07s1.94-.3,2.9-.46c2-.33,3.84-1.32,5.72-.35a3.73,3.73,0,0,1,1.71,2.63c.37,1.62,1.78,3.58,2,5.24s1.3,4.34,2.89,4.36a76.38,76.38,0,0,0,11.51-.74c2.28-.3,4.17-1.12,6.55-1.31a105.88,105.88,0,0,1,11.07-.74c4.05.13,8.23-1.26,12.3-1.46.8,0,5.24.37,5.52-.71.63-2.43,2.32-4.43,2.71-7,.22-1.32-.08-3.17.9-4.26,1.6-1.77,3.55-.29,5.32.44,2.07.88,4.13,1.81,6.16,2.77s5.9,1.49,7.53,2.43c2.43,1.36,3.61,2.4,3.34,3.45-.36,1.35-1,4.84-1.59,7.27-.45,1.91-.57,4.09-1.18,5.84-1,2.81-.18,2.88-2.52,4.38-2.95,1.93-4.4,1-8.87,1.33-2.06.16-6.25,1-9,1.26-2.29.16-4.79.32-7.37.52-2.39.17-4.83,0-7.34.17s-5.22-.49-7.68-.3-4.83.2-7.19.36-4.67.26-6.89.41c-2.44.14-4.82,1-7,1.17-2.73.13-5.13.24-7.17.29-2.74.08-6.64,1.58-9-.47-1.79-1.55-2.28-4.13-3.46-6.06-2-3.22-4-6.4-5.71-9.77-.92-1.81-1.58-3.8-2.34-5.7a3.67,3.67,0,0,1,0-3.43ZM170.59,81.2c-.6-2.39-6.07,0-9.58.65-2.13.35-5.09,1.61-7.11,1.82-4.61.49-4,2.09-3.08,4.78a33.12,33.12,0,0,1,2.25,6.38c.39,2,1.78,10.92,2.27,13.16s-.2,4.67.33,6.74c.56,2.23,2,6,2.59,7.71,1.05,3.06.82,3.12,1.78,3.48,3.19,1.07,6.62.23,10.71.63,2.11.19,4.14,1.37,6.93,1.64,2.33.22,10.79.6,13.25.84s4.79.29,7.26.55,4.86-.52,7.29-.27,5,.52,7.55.76,4.93.3,7.35.58,4.62,1.57,6.91,1.79c2.46.26,5-.54,7.29-.29,2.5.27,12.21,1.25,14.42,1.48,2.61.25,4.89.91,6.82,1.11a31.43,31.43,0,0,0,6.2-.11c4.19.05,4.35-.68,4.31-4.52,0-1-1.18-3.33-1-6.64.14-2,1.43-4.09,1.58-6.46.17-2.18.13-4.43.29-6.61.2-2.51,0-4.77.14-6.79.27-3.74,2-7.79.15-8a16.92,16.92,0,0,1-5.23-1.36c-1.7-.68-4.79-.85-6.64-1.39-2.06-.57-3.92-2-5.48-2s-1.21,3.22-1.41,6.34c-.12,1.82.1,10,.19,11.91.07,2.09-.12,3.15-.17,4.85-.13,2.74-1.11,2.34-2.16,2.65a31,31,0,0,1-7.51.42c-2.17-.09-12.38-.42-15-.62-2.4-.17-4.88-.89-7.38-1.08s-5.16.72-7.63.53-4.7-.07-7.07-.25c-2.6-.23-5.09-.73-7.4-1.11-2.8-.45-7.07.17-9.86-1.23-1.21-.6-5.32-.94-5.55-1-3.2-.55-1.85-4.06-3.93-9.3-1.27-3.33.32-4.92-1-8.25s-1.24-3.2-2.41-6.64c-1-3-.65-4.45-1.27-6.89Z"/><path class="cls-6" d="M223.28,83.64c.05-.21.1-.42.17-.64.58-2.2-2.15-1.9-3.7-2.15a31.22,31.22,0,0,0-4.33-.52c-1.61,0-2.83-.82-4.39-.93-1.89-.17-3.83-.05-5.73-.05-.78,0-1.6-.14-2.07.55a9.26,9.26,0,0,0-.41,2.55c-.81,3.37-.19,11.51-1,14.86-.74,3.09-1.77,5-2.51,8s.5,7.62-.05,10.63c-.62,3.36-.77,3.27-1.19,6.65s-2.67,3-3.09,6.36.49,3.61,0,7-.73,3.28-1.19,6.6-1.13,10-1.58,13.37-1.75,3.1-2.2,6.48,1.72,3.61,1.28,7-3.21,9.62-3.65,12.83a46.5,46.5,0,0,0-.42,10.59c.61,6.33-2.92,9.6-3.61,14.94-.44,3.15,2.05,3.5,1.64,6.63s-3.5,3.62-1,5.76c3.07,2.57,3.72,1.61,7.82,1.64,3.59.05,9,1.18,11.7-.9s.52-4.53,1-7.76.25-3.11.74-6.43-.38-3.41.14-6.7,2.25-9.69,2.77-13.05-.2-3.26.29-6.6.11-3.54.63-6.87-1.26-2.13-.73-5.46.44-3.22.94-6.44-.44-3.5.06-6.78,3.06-14.7,3.57-17.9c.44-2.88.5-4.5,1-7.39.58-3.39.08-2.88.74-6.27s.7-2.65,1.35-6.08,1.18-3.75,1.82-7,0-3.76.7-7.15,1.13-2.56,1.79-5.92c.63-3.16,1.14-6.38,1.75-9.55.26-1.31.5-2.61.79-3.89Z"/><path class="cls-8" d="M67.72,211.07C65.75,194,65,184.9,62.11,165.7c-.32-2-1.44-27.27-2.11-32.71-1.26-9.73-4-20.36-5.31-28.65l.1-.59c1-4.56.78-32,.78-32l0-6.86-2.17-17.4-1-3.2,0-3.2L50.49,13.59c-.05-3.19-1.3-4.8-2.85-5.57V7.57c-.62-.06-1.28-.08-1.9-.12a8,8,0,0,0-1.29-.11C38.2,7,32.05,4.27,26,3.65c-2.26-.23-14,1.19-14.25,1.17-5,0-9,3.61-9.45,5.27C1.76,12.2-.22,20.17,0,22.23c.32,2.91,6.62,24.12,6.76,28,.38,9.94,1.13,13.49,1.07,22,0,.67,2.93,21.52,3,22.2.36,13.76,5.56,36.92,9.77,66.37.69,4.85.94,15.06,2.52,30.23.23,2.3,1.63,25.69,1.9,27.85,1.27,9.08,2.54,12.46,3.65,24.48,1.07,2.85,9.06,4.13,13.52,3.58,3.79-.48,11.54,1.67,15.63,1.51,2.84-.11,4.52-5.25,7.58-5.08-.21-12,3.64-20.64,2.31-32.29Zm253.73,62.46c.22-4,.23-5.21.29-6.48s1.23-6.51-5.48-6c-2.65.16-28.65,2-32,1.94-3-.1-33.33-2-36.81-2.07-3.29-.1-15.6,1.61-19,1.54-3.21-.08-30.08-1.05-33.51-1.11s-6.76,1.29-10.08,1.24c-3.54-.09-7-1.64-10.55-1.68s-15.9,2-19.34,1.92-17.54-1-21-1.05-26.11-1.3-33.47-1.39c-6.46-.07-13.55.67-20,.82-1.92.09-18.34-2.64-22.49-1.84a55.45,55.45,0,0,1-7.38.88l-4.93-.35-5.95-.93s-.86.64-1.91,1.51c-1.58.11-2.69.31-3.12.79s-.51,1.6-.36,3c0,.08-.08.15-.11.22l1.39,17.38.16.38c.49,4.09,1.8,10.92,3.38,10.92a15,15,0,0,1,3.36.4,25.16,25.16,0,0,0,9.58,4.3A7.4,7.4,0,0,0,55.5,299c2.89-.07,22.65,1.12,26,1.05,3.21-.1,17.36-2.8,20.89-2.93,18.36-.51,26.39,1.39,30.11.8,9.69-1.54,56,2.23,58,1.82,2.75-.52,22.73-1.2,26.38-1.27,3.25-.06,13.84-1.81,17.37-1.88,5.58-.11,11.1,1,18.94,1.84,14.15,1.54,21.93.47,40.13.35,4-.06,16.11.89,18.59-.1,4.31-1.71,12-17.9,12.81-22.08.46-2.68-3.44-.36-3.29-3Z"/><path class="cls-1" d="M592.16,77l-26.84,28.62,8.52,8,26.34-28.11,26.37,28.11,8.49-8L608.18,77.05l.16-.15H641V65.21H559.08V76.9H592l.14.14Zm51,46.11H557v11.69h36.51v18.54h12.56V134.84h37Zm-216.56-9.59h13.68V65.4h-58V77.69h44.31ZM462.13,61v9.61h-16V82.32h16V92.67h-16v11.67h16v9.17h11.68V61Zm-20.27,58.4c-12.54,0-22.75,9.43-22.75,21.06s10.21,21.06,22.75,21.06,22.78-9.43,22.78-21.06-10.21-21.06-22.78-21.06m.11,31c-5.7,0-10.3-4.25-10.3-9.53s4.6-9.54,10.3-9.54,10.29,4.27,10.29,9.54S447.67,150.47,442,150.47ZM788.68,64.86v88.21h12.57V64.86Zm-50.79.49-23.63,72,11.28,3.08,17.27-52.56,17.26,52.56,11.26-3.08-23.62-72Z"/></g></g></svg>