<svg xmlns="http://www.w3.org/2000/svg" xmlns:xlink="http://www.w3.org/1999/xlink" viewBox="0 0 379.1 92.16"><defs><style>.cls-1{fill:none;}.cls-2{fill:#1f4871;}.cls-3{clip-path:url(#clip-path);}.cls-4{fill:url(#무제_그라디언트_10);}.cls-5{clip-path:url(#clip-path-2);}.cls-6{fill:url(#무제_그라디언트_10-2);}.cls-7{clip-path:url(#clip-path-3);}.cls-8{fill:url(#무제_그라디언트_10-3);}</style><clipPath id="clip-path"><path class="cls-1" d="M3.48,5.23c-2.1.91-1.88,2.44-1.27,3.44a6.27,6.27,0,0,0,2,2.14C23,4.6,37.88,9,48.28,14.12,59.56,19.72,68,30,68,30c.81-4,1.22-13.49-2.57-18.88,0,0-3.48-2.16-9.11-5A62.07,62.07,0,0,0,28.93,0,63.81,63.81,0,0,0,3.48,5.23"/></clipPath><linearGradient id="무제_그라디언트_10" x1="3044.78" y1="2201.61" x2="3045.01" y2="2201.61" gradientTransform="matrix(105.91, -40.91, -40.91, -105.91, -232386.87, 357766.91)" gradientUnits="userSpaceOnUse"><stop offset="0" stop-color="#69abd7"/><stop offset="1" stop-color="#1f4871"/></linearGradient><clipPath id="clip-path-2"><path class="cls-1" d="M0,10.94c-.06,5.54,11.48,7.19,13.19,28.58.63,7.95-2,17.1-3.58,21.28S5.82,72.27,6.15,78.68C6.5,85.75,13.46,88.85,21,87.61c11-1.79,9.72-3.82,9.72-3.82,1.58-5.45,3.37-30.23-1.13-42.72C26.23,31.66,21.08,22.52,4.9,11.21.83,8.36,1.76,6.33,3.21,5.35A6,6,0,0,0,0,10.94"/></clipPath><linearGradient id="무제_그라디언트_10-2" x1="3079.22" y1="2203.37" x2="3079.45" y2="2203.37" gradientTransform="matrix(-4.48, -127.52, -131.33, 4.63, 303174.51, 382519.02)" xlink:href="#무제_그라디언트_10"/><clipPath id="clip-path-3"><path class="cls-1" d="M65.75,40.09c-4.81,15.28-19.15,31.69-30,39.38C19.05,91.25,9.55,85.38,9.55,85.38c8.55,6.41,22.11,11.16,42.26.4,22.55-12,34-33.95,30.7-51.73C81.17,26.78,73.9,14.32,59.28,7.67c0,0,14.27,7.66,6.47,32.42"/></clipPath><linearGradient id="무제_그라디언트_10-3" x1="3065.35" y1="2154.93" x2="3065.58" y2="2154.93" gradientTransform="matrix(-54.95, 129.67, 131.92, 53.73, -115781.52, -513234.19)" xlink:href="#무제_그라디언트_10"/></defs><g id="레이어_2" data-name="레이어 2"><g id="레이어_2-2" data-name="레이어 2"><path class="cls-2" d="M208.93,30c8.44,0,14.41,4.24,14.41,8.79s-6,8.79-14.41,8.79-14.4-4.23-14.4-8.79,6-8.79,14.4-8.79m0,24.36c12.62,0,25.3-5.47,25.3-15.57s-12.68-15.57-25.3-15.57-25.29,5.47-25.29,15.57,12.68,15.57,25.29,15.57"/><path class="cls-2" d="M175.75,64.86H203.8V82.12H214V64.86h27.89v-7.4H175.75Z"/><path class="cls-2" d="M368.68,52.48H379V25.34h-10.3v8.83H357v7.07h11.69Z"/><path class="cls-2" d="M337.08,39.66c3.84,6.15,12,10.25,19,12.05L359,45.09c-11-3.94-15.22-10.22-16.53-19.75H331.62c-1.31,9.53-5.46,15.81-16.46,19.75l2.89,6.62c7-1.8,15.19-5.39,19-12.05"/><path class="cls-2" d="M337.24,75.44V71.29h41.83V55H326.9v6.68h41.83v3.52H326.9V75.38a6.7,6.7,0,0,0,6.7,6.67h45.5V75.44Z"/><path class="cls-2" d="M297.29,71.6h10.38V25.42H297.29V37.5H285.67v8.25h11.62Z"/><path class="cls-2" d="M266,74.7V59.54H255.62V75.39a6.7,6.7,0,0,0,6.69,6.69h45.45V74.7Z"/><path class="cls-2" d="M249.85,26.52V34h22C270.15,43.35,256.7,49.22,245,51.08l3.18,6.53c13.79-2,24.65-7,30.47-14,4.14-5,5.76-9.84,5.67-17Z"/><path class="cls-2" d="M108.13,63.06A6.82,6.82,0,0,0,115,69.74h25.88V62.37H118.6V34.07h19.9V26.48H108.13Z"/><path class="cls-2" d="M144,82.12h9.81V50.52h5.25v31.6h9.81V25.38h-9.81v17h-5.25v-17H144Z"/><g class="cls-3"><path class="cls-4" d="M3.48,5.23c-2.1.91-1.88,2.44-1.27,3.44a6.27,6.27,0,0,0,2,2.14C23,4.6,37.88,9,48.28,14.12,59.56,19.72,68,30,68,30c.81-4,1.22-13.49-2.57-18.88,0,0-3.48-2.16-9.11-5A62.07,62.07,0,0,0,28.93,0,63.81,63.81,0,0,0,3.48,5.23"/></g><g class="cls-5"><path class="cls-6" d="M0,10.94c-.06,5.54,11.48,7.19,13.19,28.58.63,7.95-2,17.1-3.58,21.28S5.82,72.27,6.15,78.68C6.5,85.75,13.46,88.85,21,87.61c11-1.79,9.72-3.82,9.72-3.82,1.58-5.45,3.37-30.23-1.13-42.72C26.23,31.66,21.08,22.52,4.9,11.21.83,8.36,1.76,6.33,3.21,5.35A6,6,0,0,0,0,10.94"/></g><g class="cls-7"><path class="cls-8" d="M65.75,40.09c-4.81,15.28-19.15,31.69-30,39.38C19.05,91.25,9.55,85.38,9.55,85.38c8.55,6.41,22.11,11.16,42.26.4,22.55-12,34-33.95,30.7-51.73C81.17,26.78,73.9,14.32,59.28,7.67c0,0,14.27,7.66,6.47,32.42"/></g></g></g></svg>