<svg xmlns="http://www.w3.org/2000/svg" viewBox="0 0 754.34 161.43"><defs><style>.cls-1{fill:#595153;}.cls-2{fill:#e4007f;}</style></defs><g id="레이어_2" data-name="레이어 2"><g id="레이어_2-2" data-name="레이어 2"><path class="cls-1" d="M285.52,104.46V47.65H271.26V65.07H221.57V47.65H207.31V96.46l8,8Zm-63.95-27h49.69V92.19H221.57Z"/><polygon class="cls-1" points="190.51 127.23 239.28 127.23 239.28 158.88 253.54 158.88 253.54 127.23 301.82 127.23 301.82 114.84 190.51 114.84 190.51 127.23"/><polygon class="cls-1" points="401.73 47.65 387.59 47.65 387.59 130.72 401.73 130.72 401.73 89.03 418.15 89.03 418.15 76.64 401.73 76.64 401.73 47.65"/><polygon class="cls-1" points="340.14 120.48 325.88 120.48 325.88 150.87 333.88 158.88 404.22 158.88 404.22 146.48 340.14 146.48 340.14 120.48"/><polygon class="cls-1" points="522.09 47.65 507.96 47.65 507.96 96.51 465.88 96.51 465.88 74.77 451.62 74.77 451.62 96.51 426.38 96.51 426.38 108.77 507.96 108.77 507.96 114.96 522.09 114.96 522.09 86.42 538.51 86.42 538.51 74.03 522.09 74.03 522.09 47.65"/><polygon class="cls-1" points="561.66 119.07 561.66 131.46 629.6 131.46 629.6 158.88 643.86 158.88 643.86 127.07 635.85 119.07 561.66 119.07"/><rect class="cls-1" x="740.2" y="47.65" width="14.13" height="111.23"/><polygon class="cls-1" points="481.36 91.27 495.49 91.27 495.49 59.76 487.49 51.76 433.38 51.76 433.38 64.02 481.36 64.02 481.36 91.27"/><path class="cls-1" d="M482.34,115.64c-26.34,0-42.18,7.88-42.2,22.81s15.78,22.92,42.11,23,42.18-7.88,42.21-22.81S508.67,115.69,482.34,115.64Zm-.07,33.58c-17.39,0-27.82-3.75-27.8-10.73s10.47-10.67,27.86-10.65,27.81,3.75,27.8,10.73S499.65,149.25,482.27,149.22Z"/><path class="cls-1" d="M604.2,98.49h25.52v16.77h14.14V47.65H629.72V60.71h-26c-5.57-6.86-14.26-11.06-24.54-11.06-17.94,0-31.09,12.79-31.09,30.27s13.15,30.27,31.09,30.27C589.75,110.19,598.67,105.73,604.2,98.49Zm25.52-25.76V86.47H609.61a33.22,33.22,0,0,0-.14-13.74Zm-67.55,7.19c0-10.2,7.19-17.66,17-17.66s17,7.46,17,17.66-7.19,17.66-17,17.66S562.17,90.12,562.17,79.92Z"/><polygon class="cls-1" points="701.02 49.96 686.07 49.96 686.07 94.5 654.77 129.73 665.53 139.28 693.52 107.76 721.51 139.28 732.27 129.73 701.02 94.56 701.02 49.96"/><polygon class="cls-1" points="374.35 113.13 383.69 102.19 352.12 75.24 352.12 49.96 337.16 49.96 337.16 75.24 305.6 102.19 314.94 113.13 344.64 87.77 374.35 113.13"/><polygon class="cls-2" points="119.1 158.8 156.15 121.76 7.97 158.8 119.1 158.8"/><polygon class="cls-2" points="112.18 0 0 0 0 37.39 0.96 37.07 112.18 0"/><polygon class="cls-2" points="107.94 90.56 158.8 39.7 120.83 1.73 6.5 39.84 107.94 90.56"/><polygon class="cls-2" points="0.62 41.8 0 41.49 0 156.28 153.06 118.02 0.62 41.8"/></g></g></svg>