<svg xmlns="http://www.w3.org/2000/svg" xmlns:xlink="http://www.w3.org/1999/xlink" viewBox="0 0 496.55 190.55"><defs><style>.cls-1{fill:none;}.cls-2{clip-path:url(#clip-path);}.cls-3{fill:url(#linear-gradient);}.cls-4{fill:#fff;}.cls-5{fill:url(#linear-gradient-2);}.cls-6{fill:url(#linear-gradient-3);}.cls-7{fill:#221e1f;}.cls-8{fill:#de2525;}</style><clipPath id="clip-path" transform="translate(18.53 17.89)"><path class="cls-1" d="M168,84.3a84.17,84.17,0,0,1-84,84.33c-46.39,0-84-37.76-84-84.33a84,84,0,1,1,168,0Z"/></clipPath><linearGradient id="linear-gradient" x1="103.98" x2="103.98" y2="190.55" gradientUnits="userSpaceOnUse"><stop offset="0" stop-color="#f1a840"/><stop offset="0.04" stop-color="#f0a635"/><stop offset="0.11" stop-color="#efa42a"/><stop offset="0.19" stop-color="#efa326"/><stop offset="0.55" stop-color="#d85938"/><stop offset="0.84" stop-color="#de2525"/><stop offset="0.97" stop-color="#de2525"/></linearGradient><linearGradient id="linear-gradient-2" x1="62.39" y1="104.56" x2="62.39" y2="64.15" gradientUnits="userSpaceOnUse"><stop offset="0" stop-color="#efa326"/><stop offset="0.04" stop-color="#e88b2c"/><stop offset="0.08" stop-color="#e17531"/><stop offset="0.14" stop-color="#dc6535"/><stop offset="0.19" stop-color="#d95c37"/><stop offset="0.27" stop-color="#d85938"/><stop offset="0.3" stop-color="#d85138"/><stop offset="0.43" stop-color="#d93836"/><stop offset="0.54" stop-color="#d92835"/><stop offset="0.62" stop-color="#d92335"/><stop offset="1" stop-color="#de2525"/></linearGradient><linearGradient id="linear-gradient-3" x1="104.01" y1="104.56" x2="104.01" y2="64.07" xlink:href="#linear-gradient-2"/></defs><g id="레이어_2" data-name="레이어 2"><g id="레이어_2-2" data-name="레이어 2"><g class="cls-2"><rect class="cls-3" width="207.96" height="190.55"/></g><path class="cls-4" d="M147.16,84.3A63.15,63.15,0,1,1,84,20.94,63.27,63.27,0,0,1,147.16,84.3Z" transform="translate(18.53 17.89)"/><path class="cls-5" d="M68.51,79.8c3.45,0,5.95.75,7.44,2.22s2.29,3.7,2.29,6.65a34.25,34.25,0,0,1-.54,6.15,12.82,12.82,0,0,1-2.11,5.06,10.65,10.65,0,0,1-4.35,3.42A17.76,17.76,0,0,1,64,104.56H43.36l1.58-8.87H64.78c2.11,0,3.18-1.57,3.18-4.7a2.6,2.6,0,0,0-.52-1.8A2.08,2.08,0,0,0,66,88.67H57.6c-3.46,0-6-.71-7.46-2.18S47.85,82.87,47.85,80a32.17,32.17,0,0,1,.55-6.12,12.81,12.81,0,0,1,2.12-5,10.47,10.47,0,0,1,4.31-3.43,18,18,0,0,1,7.26-1.23H81.42L79.83,73H61.32c-2.12,0-3.18,1.54-3.18,4.64a2.28,2.28,0,0,0,.51,1.7,2.23,2.23,0,0,0,1.49.44Z" transform="translate(18.53 17.89)"/><path class="cls-6" d="M83.36,104.56l7.11-40.49h23.34q10.86,0,10.85,9.22a13.52,13.52,0,0,1-.11,1.63c-.06.58-.15,1.2-.25,1.83l-4.89,27.81H109.12l5.1-29.19a1.31,1.31,0,0,1,0-.32.84.84,0,0,0,.06-.3c0-1.19-.69-1.81-2.09-1.81h-13l-5.52,31.62Z" transform="translate(18.53 17.89)"/><path class="cls-7" d="M209.91,101.56a75.24,75.24,0,0,1-9.38-14.76q-5-9.66-4.95-24.18t4.95-24a82.43,82.43,0,0,1,9.38-14.91h4.62a53.5,53.5,0,0,0-9.48,18.94,77.72,77.72,0,0,0-2.65,20,75,75,0,0,0,2.7,20,57.45,57.45,0,0,0,9.43,18.94Zm35.2-27.89V96.76h-9V73.67H206.84v-7.2h67.69v7.2Zm21.06-11.44a39.16,39.16,0,0,1-6.25-1.35,54.22,54.22,0,0,1-8.28-3,37.56,37.56,0,0,1-7.06-4.13q-3.24-2.4-3.89-3.85c-.46,1-1.74,2.25-3.86,3.85a34.76,34.76,0,0,1-7.11,4.13,54.11,54.11,0,0,1-8.27,3,39.85,39.85,0,0,1-6.25,1.35l-4.91-6.34a45.45,45.45,0,0,0,7.07-1.35,48.11,48.11,0,0,0,9-3.27,23.26,23.26,0,0,0,6.73-4.85,10.62,10.62,0,0,0,3.17-5.93,3,3,0,0,0,.1-1.05v-1H215.29V31.26h50.78v7.22H245v.92a2.8,2.8,0,0,0,.1,1,10.14,10.14,0,0,0,3.12,6A23.47,23.47,0,0,0,255,51.27a49.59,49.59,0,0,0,9.18,3.32,48.38,48.38,0,0,0,6.88,1.3ZM281,86.8a75.24,75.24,0,0,1-9.38,14.76H267a57.84,57.84,0,0,0,9.43-18.94,75.39,75.39,0,0,0,2.69-20,78.14,78.14,0,0,0-2.64-20A54,54,0,0,0,267,23.67h4.61a78.07,78.07,0,0,1,9.44,14.91q4.89,9.62,4.9,24T281,86.8Z" transform="translate(18.53 17.89)"/><path class="cls-7" d="M335.6,87.82q-2-1.63-4.47-3.95a51.54,51.54,0,0,1-4.95-5.48,49.12,49.12,0,0,1-3.13-4.52c-.8-1.35-1.61-2.92-2.45-4.71a24.38,24.38,0,0,1-2.17,4.8c-.86,1.48-2.13,3.43-3.8,5.87a59.17,59.17,0,0,1-4.6,5.91c-1.49,1.64-3.18,3.32-5.11,5.06l-9.32-6.35a54.43,54.43,0,0,0,7.89-8.32,51.73,51.73,0,0,0,6.63-10.82A44.69,44.69,0,0,0,314,53.24a81.77,81.77,0,0,0,.78-11.78V27.13h11.82V41.46a86.23,86.23,0,0,0,1.2,13.95,32.12,32.12,0,0,0,4.77,12.68,54.52,54.52,0,0,0,5.86,7.7,50.07,50.07,0,0,0,5.49,4.91Zm31.26,17.12V63.1H358.4v38H347.62V22.23H358.4V51.94h8.46V20.3h10.77v84.64Z" transform="translate(18.53 17.89)"/><path class="cls-7" d="M438.22,58c-4.56.51-9.36.84-14.43,1l-26.06.2v-36h11.15V49.63l15.1-.18c4.74-.14,9.37-.42,13.89-.87s8.26-.9,11.21-1.35v9.33C446.39,57,442.76,57.49,438.22,58Zm-31.37,46V81.27h48.28V75.69H406.85V67h59.63v22.6H418.1v5.57h50.5V104Zm59.63-57.51V63.2H455.33V20.3h11.15V36.75H478v9.71Z" transform="translate(18.53 17.89)"/><path class="cls-8" d="M209.21,144.76v-3.11h18.44a3.29,3.29,0,0,0,2.6-1,3.54,3.54,0,0,0,.85-2.45v-3a3.44,3.44,0,0,0-.85-2.45,3.34,3.34,0,0,0-2.6-.94H215.1a8.6,8.6,0,0,1-3.07-.48,5.46,5.46,0,0,1-2-1.34,5,5,0,0,1-1.14-2.05,9.71,9.71,0,0,1-.36-2.68V124a9.72,9.72,0,0,1,.36-2.66,4.86,4.86,0,0,1,1.14-2.07,5.12,5.12,0,0,1,2-1.34,8.37,8.37,0,0,1,3.07-.49h18v3.11h-18a3.29,3.29,0,0,0-2.61.94,3.65,3.65,0,0,0-.81,2.46v1.41a3.53,3.53,0,0,0,.83,2.52,3.46,3.46,0,0,0,2.6.88h12.56a8.64,8.64,0,0,1,3.05.48,5.44,5.44,0,0,1,2.06,1.35,5.1,5.1,0,0,1,1.14,2.07,9.78,9.78,0,0,1,.35,2.66v2.94a9.49,9.49,0,0,1-.35,2.67,5.37,5.37,0,0,1-1.15,2,5,5,0,0,1-2.07,1.34,8.85,8.85,0,0,1-3,.47Z" transform="translate(18.53 17.89)"/><path class="cls-8" d="M263.06,144.76,251.2,121.49l-12,23.27h-3.52l14.41-27.39h2.27l14.3,27.39Z" transform="translate(18.53 17.89)"/><path class="cls-8" d="M269.75,144.76V117.41h21.77v3.11h-18.6v8.21h17.71v3.11H272.92v9.81h18.6v3.11Z" transform="translate(18.53 17.89)"/><path class="cls-8" d="M322.62,144.76,299,122.08v22.68h-2.82V117.37h2.78l22.51,21.94V117.37h2.74v27.39Z" transform="translate(18.53 17.89)"/><path class="cls-8" d="M354.71,144.76l-11.87-23.27-12,23.27h-3.51l14.39-27.39H344l14.3,27.39Z" transform="translate(18.53 17.89)"/><path class="cls-8" d="M361.39,144.76V117.37h3.18v24.28h18v3.11Z" transform="translate(18.53 17.89)"/><path class="cls-8" d="M400,144.76V117.37h3.18v27.39Z" transform="translate(18.53 17.89)"/><path class="cls-8" d="M434.94,144.76l-23.67-22.68v22.68h-2.81V117.37h2.78l22.5,21.94V117.37h2.75v27.39Z" transform="translate(18.53 17.89)"/><path class="cls-8" d="M448.13,144.76a8.66,8.66,0,0,1-3.08-.48,5.14,5.14,0,0,1-2.05-1.37,5.37,5.37,0,0,1-1.16-2.08,8.92,8.92,0,0,1-.36-2.68V124a9,9,0,0,1,.36-2.66,5.38,5.38,0,0,1,1.16-2.1,5,5,0,0,1,2.05-1.36,8.43,8.43,0,0,1,3.08-.49h17v3.11h-17a3.41,3.41,0,0,0-2.67.92,3.69,3.69,0,0,0-.81,2.54v14.2a3.76,3.76,0,0,0,.81,2.56,3.41,3.41,0,0,0,2.67.91h17v3.11Z" transform="translate(18.53 17.89)"/><path class="cls-8" d="M469.58,144.76V139.7h3.76v5.06Z" transform="translate(18.53 17.89)"/></g></g></svg>