<svg xmlns="http://www.w3.org/2000/svg" viewBox="0 0 301.69 59.24"><defs><style>.cls-1,.cls-2{fill:#003da6;}.cls-2,.cls-4{fill-rule:evenodd;}.cls-3{fill:#f29100;}.cls-4,.cls-5{fill:#007934;}</style></defs><g id="레이어_2" data-name="레이어 2"><g id="레이어_2-2" data-name="레이어 2"><path class="cls-1" d="M138.72,17.11a12.33,12.33,0,0,0-9.18,3.83,12.73,12.73,0,0,0-3.75,9.26,12.72,12.72,0,0,0,3.75,9.25,12.92,12.92,0,0,0,18.38,0,12.67,12.67,0,0,0,3.78-9.25,12.68,12.68,0,0,0-3.78-9.26A12.39,12.39,0,0,0,138.72,17.11Zm4.61,18.43a5.94,5.94,0,0,1-9.23,0,7.9,7.9,0,0,1-1.9-5.34,7.92,7.92,0,0,1,1.9-5.35,5.94,5.94,0,0,1,9.23,0,7.88,7.88,0,0,1,1.91,5.35A7.86,7.86,0,0,1,143.33,35.54Z"/><path class="cls-1" d="M164.42,15.62H161c-2.73,0-2.87,2.87-2.87,2.87V44.78h6.25v-24h6.9V15.62Z"/><path class="cls-1" d="M205.5,53.57V43.14h-6.35V56c0,2.72,2.87,2.86,2.87,2.86h32.22V53.57Z"/><path class="cls-1" d="M233.8,15.62h-3.43c-2.73,0-2.87,2.87-2.87,2.87V44.78h6.3V20.94h6.89V15.62Z"/><path class="cls-1" d="M206.15,17.59h0a2.85,2.85,0,0,0-4.06,0h0l-14,22.78h7.73l8.3-13.24,8.3,12.69h7.73Z"/><path class="cls-1" d="M295.34,15.46h6.35V44.62h-6.35Z"/><path class="cls-1" d="M275.68,17.43h0a2.65,2.65,0,0,0-2-.85,2.61,2.61,0,0,0-2,.85h0l-14,22.78h7.74L273.64,27,282,39.67h7.73Z"/><path class="cls-2" d="M55.13,10a10,10,0,1,1-10-10A10,10,0,0,1,55.13,10Z"/><path class="cls-3" d="M27.91,34.37c-4.31-4.62-8.28,0-8.28,0l2.76-3.31c1.29-1.38,4-5.5,9.79-5.5s8.84,4.15,10,5.48c0,0,21.71,23.65,22,24A11.71,11.71,0,0,1,55.57,59c-5.75,0-8.84-4.23-10-5.56Z"/><path class="cls-3" d="M69.14,41.2c-4.31-4.62-8.53-.25-8.53-.25l2.78-3.08c1.28-1.39,4.26-5.45,10-5.45s8.69,4.11,9.87,5.45c0,0,15.8,17,16.11,17.39a11.73,11.73,0,0,1-8.65,3.94c-5.76,0-8.69-4.11-9.87-5.45Z"/><path class="cls-4" d="M95,19.64a8.31,8.31,0,1,1-8.3-8.32A8.31,8.31,0,0,1,95,19.64Z"/><path class="cls-5" d="M77.41,41c4.32-4.62,8.63-.23,8.63-.23l-2.78-3.08c-1.28-1.38-4.26-5.45-10-5.45s-8.7,3.94-9.88,5.27l-11.86,13c-4.31,4.63-8.53.26-8.53.26l2.78,3.08c1.28,1.39,4.26,5.45,10,5.45s8.68-4.11,9.86-5.45Z"/><path class="cls-1" d="M36.46,34.29C40.77,29.66,45,34,45,34L42.21,31c-1.29-1.39-4.26-5.45-10-5.45s-8.78,4.14-10,5.48C22.23,31,.31,54.9,0,55.26A11.73,11.73,0,0,0,8.65,59.2c5.76,0,8.68-4.11,9.87-5.45Z"/></g></g></svg>