<svg xmlns="http://www.w3.org/2000/svg" viewBox="0 0 293.7 57.15"><defs><style>.cls-1{fill:#009495;}.cls-2{fill:#eb5c01;}.cls-3{fill:#263a30;}</style></defs><g id="레이어_2" data-name="레이어 2"><g id="레이어_2-2" data-name="레이어 2"><path class="cls-1" d="M36.71,0c.21,3.41-1.25,4.52-3.34,4.73a4.49,4.49,0,0,0-3.75,1.46l-10,17.17c5.56.28,10.91,2.3,15.5,8.9,2.58,3.69,7.1,6.82,15.58,8.42C44.43,42.07,40,39.42,32.61,37.13c-5.91-1.81-14.95-2.57-21.14.28L0,57.15c7.86-6.53,22-8.2,32.05-4.38,11.62,4.38,22.81,5.71,35.12-.62L58.75,37.89a8.85,8.85,0,0,1-4.38,2L56,28.51c-5.14.55-9.59-.7-12.86-4.45-4.87-5.7-9.6-9.95-14.25-10.92,1.18-2.43,3.61-2.08,6.6-1,2.16.69,6-.14,6.81-2.71Z"/><path class="cls-2" d="M21.46,24.21a5.48,5.48,0,1,1,.06,10.95,5.47,5.47,0,0,1-5.47-5.41A5.53,5.53,0,0,1,21.46,24.21Z"/><path class="cls-3" d="M272.84,11.85a2.06,2.06,0,0,0-3.55,0l-12,19.89,4.94,2.78L271,20l8.69,14.53,4.94-2.78L272.84,11.85ZM235.5,13.24a11.85,11.85,0,0,0-9.73-4.93c-6.4,0-11.62,4.79-11.62,10.64s5.22,10.7,11.62,10.7a11.91,11.91,0,0,0,7.44-2.57h11.47v7h5.7V10.25h-5.7v3Zm1.11,9.39a10.15,10.15,0,0,0,.63-5h7.44v5Zm-10.84-9.39A5.74,5.74,0,1,1,219.93,19a5.75,5.75,0,0,1,5.84-5.71ZM191,38.76a5.74,5.74,0,1,1-5.84,5.7,5.8,5.8,0,0,1,5.84-5.7Zm0-4.93c-6.4,0-11.54,4.79-11.54,10.63S184.6,55.17,191,55.17s11.54-4.8,11.54-10.71a9.86,9.86,0,0,0-2.15-6.19h4V25.83h5.7V21.45h-5.7V10.25h-5.7V27.78h-5.22V10.25H169.52v4.38h18.14V27.78H182.1V21.17h-5.77v6.61h-7.65v4.38h30v4.31A12.15,12.15,0,0,0,191,33.83ZM77,24.72H87.68A10.54,10.54,0,0,1,85.87,19C85.87,13.1,91,8.31,97.41,8.31S109,13.1,109,19a10.05,10.05,0,0,1-1.87,5.77H118.2v4.17H100.47V32.3h14V44.67H86.22v3.55h28.3v4.45H80.45V40.29h28.3V36.68H80.45V32.3H94.7V28.89H77V24.72ZM97.41,13.24A5.74,5.74,0,1,0,103.25,19a5.81,5.81,0,0,0-5.84-5.71Zm40.19-1.39a2.06,2.06,0,0,0-3.55,0L122,31.74,127,34.52,135.72,20l8.76,14.53,4.87-2.78L137.6,11.85ZM244.68,41.13h-23V36.75h28.65V52.67h-5.7V41.13ZM133.15,48.22H158.6v4.45H127.38V36.75h5.77V48.22ZM158.6,22.14V10.25h-5.77V40.57h5.77v-14h5.7V22.14ZM287.93,10.25h5.77V52.67h-5.77Z"/></g></g></svg>