<svg xmlns="http://www.w3.org/2000/svg" viewBox="0 0 258.08 99.18"><defs><style>.cls-1{fill:#003668;}.cls-2{fill:#e6002d;}.cls-3{fill:#595757;}</style></defs><g id="레이어_2" data-name="레이어 2"><g id="레이어_2-2" data-name="레이어 2"><path class="cls-1" d="M76.57,47.33C68,41.48,56.93,43.87,51.14,52.67a17.9,17.9,0,0,1-32.36-4.92h0a1.29,1.29,0,0,0,0-.19c0-.07-.05-.15-.07-.23a23,23,0,0,1-.91-7.11c0-16,16.46-33.9,40.16-33.9,24.27,0,38.16,18.48,41.74,28.75l-.18-.54A51.12,51.12,0,0,0,0,51.11C0,76.34,18.2,97.94,43.44,97.94c20.14,0,33.66-11.29,39.87-26.85C86.72,62.59,84.31,52.58,76.57,47.33Z"/><path class="cls-2" d="M100,36.07c-3-10-17-29.75-42.06-29.75-23.7,0-40.16,17.86-40.16,33.9a23,23,0,0,0,.91,7.11,15.34,15.34,0,0,1-.47-3.64c0-16.71,16.73-28.28,33.93-28.28A42.14,42.14,0,0,1,94.26,57.55,46.46,46.46,0,0,1,68.5,99.17h0A51.22,51.22,0,0,0,100,36.07Z"/><path class="cls-3" d="M165.22,64.12V68.6H127.66V64.12h16.26V53.35h5V64.12Zm-34.9-26.94V32.83h32.2v4.35H148.37l15,16.91L159.82,57,146.44,41.72,133,57l-3.52-2.88,15-16.91Z"/><path class="cls-3" d="M198.52,48.36H176.21V31.6H198v4.26H181.25v8.33h17.27Zm-21.21,3.8h31.51V63.34H182.39v3.43h26.94v4.17h-32V59.54h26.47V56.15H177.31ZM208.82,37.6h5.86v4.94h-5.86v6.78h-5V30.77h5Z"/><path class="cls-3" d="M222,38.42V34.16h9.57V30.27H237v3.89h9.12v4.26h-9.94l10.3,10.44L243.15,52l-8.89-9.25-8.79,10-3.39-3.16,10.35-11.13Zm32.61,24.5a9.12,9.12,0,0,1-.85,3.88,10.6,10.6,0,0,1-5.63,5.36,10.76,10.76,0,0,1-13.93-5.36,9.23,9.23,0,0,1,0-7.74,10.78,10.78,0,0,1,2.27-3.19,10.43,10.43,0,0,1,3.39-2.17,11,11,0,0,1,8.27,0,10.4,10.4,0,0,1,3.36,2.17,10.61,10.61,0,0,1,2.27,3.19A9,9,0,0,1,254.6,62.92Zm-5,0a5.33,5.33,0,0,0-1.68-3.94,5.49,5.49,0,0,0-4-1.65A5.59,5.59,0,0,0,240,66.84a5.43,5.43,0,0,0,3.94,1.63,5.55,5.55,0,0,0,4-1.63A5.29,5.29,0,0,0,249.61,62.88ZM253,52.53V44.74h-7.15V40.39H253V30.77h5.08V52.53Z"/></g></g></svg>