<svg xmlns="http://www.w3.org/2000/svg" viewBox="0 0 221.89 70.55"><defs><style>.cls-1{fill:#00a63d;}.cls-2{fill:#005bac;}.cls-3{fill:#ea500c;}.cls-4{fill:#c9c5c0;}.cls-5{fill:#727171;}</style></defs><g id="레이어_2" data-name="레이어 2"><g id="레이어_2-2" data-name="레이어 2"><path class="cls-1" d="M99.11,26.29C99.11,11.55,78-.22,52.29,0,37.36.13,24.12,4.28,15.65,10.6A66.83,66.83,0,0,1,35.54,7.49c23-.2,41.92,10.48,41.92,23.84,0,9.87-7.49,18-21.45,22,25.15-.6,43.1-11.84,43.1-27.07Z"/><path class="cls-2" d="M20.46,39.29C20.36,28.49,34.94,19.45,53,19.45A45.9,45.9,0,0,1,68.8,22c-6.33-5.22-17.56-8.73-30.94-8.73-21,0-38,9.37-37.86,20.53.09,9.78,13.26,17.82,30.68,19.52-6.25-3.5-10.17-8.48-10.22-14Z"/><path class="cls-3" d="M60.43,42c0,5.46-7,10-15.79,10s-15.9-4.29-15.95-9.76,7-10,15.78-10,15.91,4.29,16,9.75Z"/><path class="cls-4" d="M7.56,59.44a7.58,7.58,0,0,0-1.68.07,2.88,2.88,0,0,1-1.14.09,2.69,2.69,0,0,0-1.11.19c-.12.1-.07.2-.37.21s-.64.21-.89.24-.64-.05-.77,0a3.87,3.87,0,0,0-.63.23.77.77,0,0,0-.38.61c0,.15.29,0,.19.15a.52.52,0,0,0,.33.68c.36.15.4.2.86.66s1,.75.92,1a1.15,1.15,0,0,0,.14.76c.13.2,0,.43.2.56a2.48,2.48,0,0,1,.59.37c.24.23.55.11.74.11s.79-.14.88.09a.81.81,0,0,1-.14.81c-.22.3.08.34.34.33s.32.21.32.46-.06.36.45.5.23.4.66.59a4.25,4.25,0,0,0,1.83.17c.3-.08.76-.34,1.14.17s.62.33,1.28.38a7.66,7.66,0,0,1,2,.33c.13.15.09.35,0,.58s.2.65.43.64a1.19,1.19,0,0,1,.51.1.67.67,0,0,0,.61-.31c.11-.24.26-.11.29-.07a2.25,2.25,0,0,0,.69,0,4,4,0,0,0,1-.18c.26-.12.48-.13.52,0s.44.1.58,0a1,1,0,0,1,.43-.16,1.2,1.2,0,0,0,.92,0c.46-.21.68-.2.84-.1s.59.12.72-.06.46-.12.59,0,.18,0,.68,0a6.05,6.05,0,0,0,1.49-.21c.19-.09.39.17,1,.26a10,10,0,0,0,1.27,0c.36,0,.59.15.73.11a7.22,7.22,0,0,1,1.06-.19c.23,0,.7.13.81.12a1.21,1.21,0,0,0,.6-.22.83.83,0,0,1,.65-.12c.27,0,.47-.16.86,0s1.23,0,1.52-.07a8.86,8.86,0,0,1,1.25-.23,2.7,2.7,0,0,0,1.15-.1,6.22,6.22,0,0,1,1.5-.13,10.37,10.37,0,0,0,1.22-.1c.22,0,.5,0,1.15,0a1.22,1.22,0,0,0,1-.43.72.72,0,0,1,.87-.22,2.08,2.08,0,0,0,1.47,0,3.38,3.38,0,0,1,1.25-.09c.35,0,.64.14,1.09-.08a1.6,1.6,0,0,1,1.14-.14,1.9,1.9,0,0,0,.84,0,5,5,0,0,1,1.15,0,6.72,6.72,0,0,0,2.07,0,1.74,1.74,0,0,1,.82-.23c.19,0,.46-.26.84-.24s.49,0,.48.13,0,.29.19.27a.66.66,0,0,1,.45.07,2.12,2.12,0,0,0,.89.24,3.74,3.74,0,0,1,.89,0,1.19,1.19,0,0,0,.79-.14.64.64,0,0,1,.49-.17.8.8,0,0,0,.42-.06.51.51,0,0,1,.4,0,.87.87,0,0,0,.56.08,1.17,1.17,0,0,1,.69,0,1.94,1.94,0,0,0,.89.12,7.53,7.53,0,0,1,.8.08c.17,0,.29.1.34.08s.1-.1.23-.12.2-.16.35-.11a.32.32,0,0,0,.26,0c.09,0,.08,0,.24.06a1.87,1.87,0,0,0,.88,0,2,2,0,0,1,.77-.07,5.08,5.08,0,0,0,.67-.07c.16,0,.31.09.5.09a3.37,3.37,0,0,1,.7,0l.2.1a1,1,0,0,0,.42-.17c.11-.1.25-.1.41-.2a2.78,2.78,0,0,1,1,0c.19,0,.34-.05.48,0a.52.52,0,0,0,.36.08c.18,0,.59-.05.64,0s.09,0,.2,0,1.92,0,2.35,0a4,4,0,0,0,1,0c.16,0,.36-.09.44,0s.14.07.42.1a1.39,1.39,0,0,0,.56,0,2.38,2.38,0,0,1,.7,0c.11,0,0,.07.27,0a.69.69,0,0,1,.5,0c.15.05.37.05.49.08a1.67,1.67,0,0,0,.61.06c.46,0,.53-.07.59,0s.09.15.15.07a.43.43,0,0,1,.41-.07,1,1,0,0,0,.49.08c.13,0,.52-.06.56,0s.42.06.52.08.15.06.29.08.22-.1.4-.08.28,0,.36-.05.22,0,.22,0,0,.06.23.06.2-.08.27,0a.31.31,0,0,0,.41,0c.08-.12.16-.1-.1-.31s-.16-.31-.28-.3-.08,0-.2,0-.22,0-.32,0-.12,0-.3,0a2.57,2.57,0,0,1-.8,0c-.25,0-.52-.19-.83-.21s-1.16,0-1.42,0-.32,0-.36,0,0,0-.09,0-.14,0-.14,0,0,0-.23,0a1,1,0,0,0-.32-.07c-.17,0-.26,0-.29-.06s0-.12-.11-.08-.21.07-.23,0a1.18,1.18,0,0,0-.35-.12c-.18-.05,0-.22.07-.24a1.18,1.18,0,0,0,.37-.14c.06-.06.14,0,.21,0a1.73,1.73,0,0,0,.65.09c.18,0,.94-.1,1,0s.09.05.19.05a.76.76,0,0,1,.34,0,1.05,1.05,0,0,0,.43.06c.19,0,.45,0,.52,0a.77.77,0,0,1,.52-.06.94.94,0,0,0,.43.1c.18,0,1.59,0,1.68,0s.17.12.28.08.16-.09.2,0,.1,0,.2,0,.12-.07.17,0,.3.12.46.07A3.62,3.62,0,0,1,82.17,67c.09.06.06.1.25.08s.31,0,.34,0-.06,0,.32.06.47,0,.54.07a4.68,4.68,0,0,0,1.11,0c.33,0,.54,0,.55-.08a.07.07,0,0,1,.13,0c0,.06.16.08.29.06s.1-.07.18-.08.05.08.17.06.44-.08.5,0,.06.09.41,0,.3.08.46.08.39,0,.46-.07.81.07,1.07,0,.53-.17.57-.09.22.08.42.09.38,0,.39,0,.29,0,.39,0,.19.1.28,0,.1.07.4.07a1.08,1.08,0,0,1,.45,0c.26,0,.31.09.4.06s.14.12.21.12.12,0,.17,0a.69.69,0,0,0,.5,0c.17,0,0,.06.56.09s.55.06.58.1a1.78,1.78,0,0,0,.52,0c.18,0,.11-.09.24-.09s.13-.15.13-.15.09.06.15,0,0-.14.33-.07.26.12.39,0,.27-.35.07-.39-.35,0-.42,0-.18,0-.22-.05,0-.09-.22-.08-.25.08-.3,0a.24.24,0,0,0-.22-.08c-.06,0-.06-.08-.15-.08s-.39,0-.45,0-.13-.17-.24-.17-.08,0-.2-.1a.52.52,0,0,0-.32,0c-.13,0-.13,0-.2,0s-.91,0-1,0a2.1,2.1,0,0,0-.45-.15c-.21,0-.15-.13-.12-.2s.11-.26.19-.26c.28,0,.32,0,.33,0s0-.08.09-.07.39,0,.4,0,0-.05.12,0a1.55,1.55,0,0,0,.41.09c.11,0,.12,0,.14-.08a.14.14,0,0,1,.11,0c.05,0,0,0,.05,0s.18-.17.23-.24a3.24,3.24,0,0,1,.29-.34c.06,0,0-.12.13-.13a1.89,1.89,0,0,1,.57,0,.38.38,0,0,0,.31,0s0-.07.12-.07.09.07.16.08.18,0,.2,0,.07-.12.07-.05,0,.06,0,.06,0,.07.14.08A1.11,1.11,0,0,0,96,65a2.12,2.12,0,0,1,.44-.06c.13,0,.35,0,.42,0s.14.06.26.06.11.09.19.07.33-.16.41,0a.25.25,0,0,0,.31.11.63.63,0,0,1,.27,0,2.93,2.93,0,0,0,.51,0c.1,0,0,0,.1.07a1,1,0,0,0,.39,0c.09,0,.06-.08.12-.09s.22,0,.21,0,.09.11.17.1.06,0,.13,0a.76.76,0,0,1,.25,0s.11,0,.12,0a.05.05,0,0,0,0-.07s-.13,0-.13-.13.06-.12,0-.15-.11-.09-.17-.08,0,0-.06.07a1.45,1.45,0,0,1-.55.1c-.08,0,0-.09-.12-.1s-.08,0-.09-.07,0-.07-.06-.08,0,0-.07-.08-.06-.07-.13-.06-.13,0-.13,0,.06-.22,0-.22-.29.09-.33,0-.11-.14-.2-.14-.37.06-.43,0-.08-.08-.15-.08-.22,0-.26,0a.52.52,0,0,0-.29-.09c-.15,0-.25.06-.31,0a.8.8,0,0,0-.27,0c-.08,0-.06,0-.12,0a.54.54,0,0,0-.27,0,.23.23,0,0,1-.24-.16.15.15,0,0,1,.13-.21h.65c.1,0,.08,0,.12-.06a.27.27,0,0,1,.25,0,.61.61,0,0,0,.34.08c.15,0,.36,0,.37,0s.08,0,.14,0,.13-.06.15,0,.23.06.3.06,0,.05.13.06.19,0,.22,0,.21-.09.24,0a.11.11,0,0,0,.16.06s.12-.08.13,0,0,0,0,0l.08,0a.11.11,0,0,1,.13,0,1.38,1.38,0,0,0,.4.07c.14,0,.24,0,.26,0a.94.94,0,0,0,0-.37.36.36,0,0,0-.15-.22c-.07-.06,0-.09-.09-.13s-.06,0-.16-.05h-.25c-.09,0-.07,0-.14,0a2.45,2.45,0,0,0-.38,0,1.6,1.6,0,0,1-.42-.07c-.08,0,0-.07-.32,0a3.82,3.82,0,0,1-.52,0c-.14,0,0,0-.14-.09a1.56,1.56,0,0,0-.66-.16,1.09,1.09,0,0,1-.4-.08,1.27,1.27,0,0,0-.44,0c-.19,0-.21-.1-.43-.11a1,1,0,0,1-.38-.07,6.8,6.8,0,0,0-1-.16c-.19,0,0,0-.19,0s-.15.06-.21,0,0-.07-.07-.08-1-.07-1.08-.1-.35,0-.46,0,0-.08-.2-.09a1,1,0,0,1-.28,0c-.13,0-.06-.11-.3-.12a4,4,0,0,1-.79,0c-.06,0,0-.16-.22-.17s-.43,0-.47-.11a.21.21,0,0,1,.07-.24s.14,0,.2,0a.6.6,0,0,1,.36,0c.16,0,1.35.1,1.71.08s.52,0,.54-.1,0-.14.21-.1a.8.8,0,0,0,.43,0c.08,0,.25,0,.3,0a.57.57,0,0,1,.32-.08c.16,0,.19.07.35.09a3.06,3.06,0,0,0,.87.09c.38,0,.5,0,.55,0a1.4,1.4,0,0,0,.49,0,3.9,3.9,0,0,1,.77,0s.05.06.15,0a.35.35,0,0,1,.19,0s0,.05,0,.05.11,0,.13.07.13.12.54.13.34.14.63.14a2,2,0,0,1,.59,0c.07,0,0,.08.27.09s.52-.09.58,0,.17,0,.26.12.28.08.31,0a.23.23,0,0,1,.21-.12c.11,0,.09.08.22.09s.71.08.76,0,.07-.23,0-.23-.09-.06-.2-.12a1.83,1.83,0,0,1-.31-.12c-.09-.06-.08,0-.19,0s0-.1-.15-.09a.32.32,0,0,1-.22,0c-.1,0-.18-.13-.3-.11s-.08,0-.18,0l-.2-.06c-.11,0-.12-.11-.24-.13s-.33,0-.37,0,0,0-.16-.08a1.84,1.84,0,0,0-.38-.16c-.14,0-.16-.07-.27-.08a1.56,1.56,0,0,0-.35,0s0,0-.14,0-.25-.11-.37-.14L97.47,60a1.22,1.22,0,0,0-.42-.12c-.18,0-.65,0-.87-.07a4.89,4.89,0,0,0-.66,0c-.21,0-.15,0-.41-.07s-.19,0-.36-.07a1.09,1.09,0,0,0-.43-.16c-.12,0-.16.08-.24.08s0-.07-.18-.08-.61,0-.82,0a3.82,3.82,0,0,0-.44-.09,5,5,0,0,1-.85-.1A3.87,3.87,0,0,0,91,59.2a5.66,5.66,0,0,1-.57,0,2.12,2.12,0,0,0-.8-.19c-.32,0-.47.07-.69.08A2.44,2.44,0,0,1,88.5,59c-.23,0-.33-.18-.61-.17s-.24.13-.39.08a1.55,1.55,0,0,0-.58-.15,4.3,4.3,0,0,1-.46-.07c-.23,0-.41,0-.57,0s-.42,0-.51-.16-.1,0-.29-.06a1.84,1.84,0,0,0-.62,0c-.2,0-.13.08-.3.07a.54.54,0,0,0-.31,0,2.65,2.65,0,0,1-.67-.05c-.2,0-.34.05-.53.05s-.25-.13-.52-.11a.46.46,0,0,1-.43-.15c-.07-.07,0-.1-.3-.09a2.11,2.11,0,0,1-.74,0,1.23,1.23,0,0,0-.54-.13c-.17,0-.84.14-1,.15s-.5.13-.78,0a4.64,4.64,0,0,0-1.21-.34,9.56,9.56,0,0,0-1.16.22,1.86,1.86,0,0,1-.53,0c-.24,0-.28,0-.76,0s-1.12-.23-1.37-.22-.48,0-.81.07a2.23,2.23,0,0,1-.9,0,8.88,8.88,0,0,0-1.38,0c-.28,0-.9-.18-1.48-.24s-1,.05-1.61,0-1,.17-1.24-.1a2.25,2.25,0,0,0-1.11-.73c-.35,0-.59.08-.72-.06s-.24-.33-.49-.23-.51.1-.6.22a.74.74,0,0,1-.7.3,3.63,3.63,0,0,1-.76-.07C61.29,57,61.15,57,61,57a.59.59,0,0,1-.27,0,6,6,0,0,1-1,.14c-.5,0-1,0-1.18,0a8.28,8.28,0,0,0-.9-.14c-.31,0-.6.11-1,.11H55.39c-.39,0-.5.17-.83.11A7.9,7.9,0,0,0,53.42,57c-.49,0-.72,0-1,0s-1.1,0-1.39,0a8.64,8.64,0,0,0-1.17.07A6.56,6.56,0,0,1,48.51,57a10.4,10.4,0,0,0-1.7-.06,11.27,11.27,0,0,1-1.52.06,18.09,18.09,0,0,0-2.19,0c-.55,0-1.27.17-1.86.15s-1.37.08-1.78.07a9.75,9.75,0,0,0-1.55.08,3.14,3.14,0,0,1-.87.11c-.31,0-1.33-.11-1.81-.08s-.79.23-1.31.22-1.41-.07-1.92,0-1.19,0-1.68,0-1.22,0-1.57,0-1.6.24-2,.22a15.06,15.06,0,0,0-1.66.09,3.47,3.47,0,0,1-.67,0c-.32,0-1.74,0-2.3.08s-1.81,0-2.09,0a1.51,1.51,0,0,1-.49,0,2,2,0,0,0-.45.11c-.1.05-.12,0-.21,0s-.27.09-.42.09a4,4,0,0,0-1.13,0,1.92,1.92,0,0,1-.77.11c-.28,0-.63.13-1.09.14s-1.22.19-1.52.17-.94.09-1.27.12-1.43.23-1.82.22a4.88,4.88,0,0,0-1,.08c-.23.06-.61,0-.86.1a7.09,7.09,0,0,1-1.37.31Z"/><rect class="cls-5" x="216.81" y="28.97" width="5.08" height="27.36"/><path class="cls-5" d="M211.85,47a23,23,0,0,0-7.7-9.47l-1.71-1.19c.18-.56.35-1.11.52-1.65a39.11,39.11,0,0,0,1-4.14l-5.45-1.26a34.18,34.18,0,0,1-1,6.52,23,23,0,0,1-1.23,3.79,32.28,32.28,0,0,1-3,5.64,26.51,26.51,0,0,1-2.1,2.74c-.79.88-1.68,1.66-2.41,2.58a2.9,2.9,0,0,0-.24.35.25.25,0,0,0,.08.36.79.79,0,0,0,.67,0,15.32,15.32,0,0,0,2.77-1.4,26.59,26.59,0,0,0,7.81-7.68,19.23,19.23,0,0,0,1.38-2.67c1.35,1,4.68,4.23,6.56,11.32l5.45,0S211.93,47.19,211.85,47Z"/><polygon class="cls-5" points="189.67 35.47 186.18 35.47 186.18 29 180.92 29 180.92 46.5 186.18 46.5 186.18 38.77 189.67 38.77 189.67 35.47"/><path class="cls-5" d="M166.21,28.51c-5.63,0-10.2,3.46-10.2,7.73S160.58,44,166.21,44s10.2-3.46,10.2-7.73S171.85,28.51,166.21,28.51Zm0,12a4.55,4.55,0,0,1-4.77-4.28,4.8,4.8,0,0,1,9.54,0A4.55,4.55,0,0,1,166.21,40.52Z"/><polygon class="cls-5" points="146.25 28.95 146.25 35.2 142.2 35.2 142.2 38.49 146.25 38.49 146.25 46.48 151.64 46.48 151.64 28.95 146.25 28.95"/><path class="cls-5" d="M163.55,52.82v-7h-5.34V53c0,2.94,3.95,3.32,3.95,3.32h24V52.82Z"/><path class="cls-5" d="M128.93,52.82v-7H123.6V53c0,2.94,4,3.32,4,3.32h24V52.82Z"/><path class="cls-5" d="M133.83,34.76c.23-.46.44-.92.63-1.39h7.48V30.28h-7.12V28.45h-5.39v1.83h-7.85v3.09H129a12.88,12.88,0,0,1-1.16,2.72A15.76,15.76,0,0,1,126,38.9a19.45,19.45,0,0,1-5,3.94c-.31.19-.63.34-1,.5-.15.08-.59.22-.66.39-.22.56,1.43.23,1.63.19a21.88,21.88,0,0,0,5.58-1.78,16.93,16.93,0,0,0,3.31-2,11.57,11.57,0,0,0,2.49-2.83,15.2,15.2,0,0,1,5.36,5.77h5.54A19,19,0,0,0,133.83,34.76Z"/></g></g></svg>