<svg xmlns="http://www.w3.org/2000/svg" viewBox="0 0 152.7 61.12"><defs><style>.cls-1{fill:#5b2b15;}.cls-2{fill:#7cb52d;}</style></defs><g id="레이어_2" data-name="레이어 2"><g id="레이어_2-2" data-name="레이어 2"><path class="cls-1" d="M81.72,1.32v29h1.39a2.7,2.7,0,0,0,2.8-2.58V1.32Z"/><path class="cls-1" d="M21.51,7.24H15.67V10h5.84v7.58H22.9A2.7,2.7,0,0,0,25.7,15V1.32H21.51Z"/><path class="cls-1" d="M72.28,1.54H68.09V9.13a10.42,10.42,0,0,1-.92,4.21c-.89,1.73-2.38,3.47-6.3,5.31l1.8,2.41a15.91,15.91,0,0,0,7.51-5.17,15.89,15.89,0,0,0,7.52,5.17l1.79-2.41c-3.92-1.84-5.41-3.58-6.29-5.31a10.08,10.08,0,0,1-.92-4.21Z"/><path class="cls-1" d="M30.51,21h11.9v9.67h1.45a2.79,2.79,0,0,0,3-2.58V21h11.9V18.18H30.51Z"/><path class="cls-1" d="M46.74,4.77h8V2H34.32V4.77h8V5A6.68,6.68,0,0,1,41,8.7c-1.21,1.51-3.49,3.28-8.44,4.15l1.43,3c5.22-1,8.63-2.93,10.51-5.13,1.88,2.2,5.29,4.14,10.5,5.13l1.44-3C51.53,12,49.25,10.21,48,8.7A6.66,6.66,0,0,1,46.74,5Z"/><path class="cls-1" d="M17,18.07C12.57,18.07,9,21,9,24.61s3.62,6.53,8.09,6.53,8.1-2.93,8.1-6.53S21.51,18.07,17,18.07Zm0,10.29a3.76,3.76,0,1,1,3.69-3.75A3.72,3.72,0,0,1,17,28.36Z"/><path class="cls-1" d="M17,16.83l1.72-2.67c-4-1.71-5.57-3.34-6.41-5.05a9.41,9.41,0,0,1-.85-4h5.92V2.33H11.46V0H7.27V2.33H1.33V5.1H7.26a9.41,9.41,0,0,1-.85,4C5.58,10.82,4.05,12.45,0,14.16l1.72,2.67c3.91-1.47,6.4-3.54,7.64-5.6C10.6,13.29,13.09,15.36,17,16.83Z"/><path class="cls-2" d="M136.63,1.33a39.88,39.88,0,0,0-4.09.23V15.71a30.52,30.52,0,0,1,4.38-.32c.56,0,1.12,0,1.69,0,0,.57,0,1.14,0,1.71a29.66,29.66,0,0,1-8.72,21h0A29.5,29.5,0,0,1,117,45.78V60.21a43.67,43.67,0,0,0,22.88-12.08h0a43.74,43.74,0,0,0,12.82-31V1.33ZM93.08,61h15.85c1.4,0,2.81-.07,4.21-.2V46.6a30.13,30.13,0,0,1-4.24.31c-.57,0-1.14,0-1.71,0,0-.57,0-1.14,0-1.71a29.74,29.74,0,0,1,21.54-28.6V2.12a43.82,43.82,0,0,0-35.6,42.76Z"/><path class="cls-1" d="M5.17,47.63C2.87,47.63,1,46,1,42.72s1.84-4.91,4.14-4.91a4.68,4.68,0,0,1,2.27.51L6.8,39.81a2.57,2.57,0,0,0-1.38-.38c-1.35,0-2.3,1.12-2.3,3.28S4.07,46,5.42,46a2.58,2.58,0,0,0,1.38-.37l.64,1.51A4.59,4.59,0,0,1,5.17,47.63Z"/><path class="cls-1" d="M14.14,47.47v-4H10.93v4h-2V38h2v3.92h3.21V38h2v9.5Z"/><path class="cls-1" d="M18.11,47.47V38h5.56v1.55H20.11v2.37h3.22v1.53H20.11v2.51h3.56v1.54Z"/><path class="cls-1" d="M28.72,47.63c-2.74,0-4-2.14-4-4.91s1.3-4.91,4-4.91,4.05,2.14,4.05,4.91S31.47,47.63,28.72,47.63Zm0-8.18c-1.33,0-2,1.32-2,3.27s.67,3.27,2,3.27,2-1.31,2-3.27S30.05,39.45,28.72,39.45Z"/><path class="cls-1" d="M40.19,47.47l-3.74-5.63a9,9,0,0,1-.62-1.11h0s0,.64,0,1.23v5.51H34.09V38h1.75l3.65,5.49a10.77,10.77,0,0,1,.63,1.11h0s0-.67,0-1.27V38h1.74v9.5Z"/><path class="cls-1" d="M47.94,47.63c-2.92,0-4.75-1.9-4.75-4.91a4.6,4.6,0,0,1,4.92-4.91,6.12,6.12,0,0,1,2.62.51l-.64,1.45a4.31,4.31,0,0,0-1.9-.38c-1.65,0-3,1-3,3.32s1.23,3.36,2.58,3.36a3.72,3.72,0,0,0,1.11-.14V43.27H47.3v-1.4h3.51v5.25A7.07,7.07,0,0,1,47.94,47.63Z"/><path class="cls-1" d="M51.24,50.35V48.76a2.15,2.15,0,0,0,1.82-2.34V38h2v8.45C55.1,48.84,53.64,50.07,51.24,50.35Z"/><path class="cls-1" d="M60.6,47.61c-2,0-3.56-1.07-3.56-2.94V38h2v6.71a1.54,1.54,0,0,0,3.06,0V38h2v6.7C64.17,46.54,62.64,47.61,60.6,47.61Z"/><path class="cls-1" d="M5.17,61.12C2.87,61.12,1,59.51,1,56.2s1.84-4.91,4.14-4.91a4.56,4.56,0,0,1,2.27.52L6.8,53.29a2.57,2.57,0,0,0-1.38-.38c-1.35,0-2.3,1.13-2.3,3.28s1,3.27,2.3,3.27a2.58,2.58,0,0,0,1.38-.37l.64,1.51A4.48,4.48,0,0,1,5.17,61.12Z"/><path class="cls-1" d="M8.9,61V51.45h2V61Z"/><path class="cls-1" d="M16.35,53v8h-2V53H12.1V51.45h6.44V53Z"/><path class="cls-1" d="M24,57.23V61h-2V57.23l-3.1-5.78H21l1.91,3.91h0l1.92-3.91h2.2Z"/></g></g></svg>