<svg xmlns="http://www.w3.org/2000/svg" viewBox="0 0 554.14 71.25"><defs><style>.cls-1{fill:#53a736;}.cls-2{fill:#1897ce;}.cls-3{fill:#153e8b;}</style></defs><g id="레이어_2" data-name="레이어 2"><g id="레이어_2-2" data-name="레이어 2"><path class="cls-1" d="M54.66,35.63a8.74,8.74,0,1,1-8.74-8.74,8.73,8.73,0,0,1,8.74,8.74"/><path class="cls-1" d="M28.65,70.5a36.4,36.4,0,0,0,7.36.75H60.6V66.79A12.16,12.16,0,0,0,48.45,54.64H40.6c-10.8,0-19.84-7-22.47-19a35.79,35.79,0,0,0-.77,7.51c0,8.45,4.38,19.32,11.29,27.36"/><path class="cls-2" d="M40.6,16.61h7.85A12.15,12.15,0,0,0,60.6,4.47V0h-25a35.67,35.67,0,0,0-6.91.67c-6.95,8.05-11.36,19-11.36,27.44a35.66,35.66,0,0,0,.77,7.52c2.63-12.05,11.67-19,22.47-19"/><path class="cls-3" d="M28.72.67a35.59,35.59,0,0,0-.07,69.83c-6.91-8-11.29-18.91-11.29-27.36a35.64,35.64,0,0,1,.77-7.51,35.81,35.81,0,0,1-.77-7.52c0-8.47,4.41-19.39,11.36-27.44"/><path class="cls-2" d="M254,35.63a8.74,8.74,0,1,1-8.74-8.74A8.73,8.73,0,0,1,254,35.63"/><path class="cls-2" d="M228,70.5a36.4,36.4,0,0,0,7.36.75H260V66.79a12.16,12.16,0,0,0-12.15-12.15H240c-10.79,0-19.83-7-22.46-19a35.79,35.79,0,0,0-.77,7.51c0,8.45,4.38,19.32,11.29,27.36"/><path class="cls-1" d="M240,16.61h7.86A12.15,12.15,0,0,0,260,4.47V0H235a35.67,35.67,0,0,0-6.91.67c-7,8.05-11.36,19-11.36,27.44a35.66,35.66,0,0,0,.77,7.52c2.63-12.05,11.67-19,22.46-19"/><path class="cls-3" d="M228.08.67A35.59,35.59,0,0,0,228,70.5c-6.91-8-11.29-18.91-11.29-27.36a35.64,35.64,0,0,1,.77-7.51,35.81,35.81,0,0,1-.77-7.52c0-8.47,4.41-19.39,11.36-27.44"/><path class="cls-3" d="M155.22,56.12h-4.35v-41h4.57a20.5,20.5,0,1,1-.22,41M159.13,0H133.21V71.25h25.54c19.69,0,35.94-15.81,36-35.5A35.63,35.63,0,0,0,159.13,0"/><path class="cls-3" d="M101.61,28.17H85.84v-13h15.77a6.5,6.5,0,0,1,0,13m-.26,28.3H85.84V43h15.51a6.76,6.76,0,0,1,0,13.51m12-21.23A17.51,17.51,0,0,0,127,17.89,18.13,18.13,0,0,0,108.6,0H68.18V71.25l40.42,0c10.57,0,19.13-7.44,19.13-18.64,0-8.68-6.09-15.43-14.35-17.33"/><path class="cls-3" d="M307.14,43.66a13.06,13.06,0,0,0,3-1.2,5,5,0,0,0,1.5-1.59,3.39,3.39,0,0,0,.46-1.54A3.63,3.63,0,0,0,310.81,37q-1.28-1.29-4.84-1.88v0h-6.85v0q-3.42.59-4.71,1.85a3.54,3.54,0,0,0-1.3,2.4,3.35,3.35,0,0,0,.44,1.59,4.43,4.43,0,0,0,1.61,1.54,8.94,8.94,0,0,0,3,1.24,18.67,18.67,0,0,0,4.52.47,16.85,16.85,0,0,0,4.5-.51M306,6.52V1.63h-7V6.52H285.78v4.6h11.58a29.22,29.22,0,0,1-6.92,4.33A38,38,0,0,1,283.28,18c.46.71.85,1.39,1.18,2s.7,1.35,1.12,2.13c.42-.07,1.25-.26,2.47-.59A31.33,31.33,0,0,0,292.38,20a41.66,41.66,0,0,0,5.06-2.52,24.74,24.74,0,0,0,5-3.79,21.58,21.58,0,0,0,5,3.89A48,48,0,0,0,313,20.26a42.24,42.24,0,0,0,6.21,2.06,18.63,18.63,0,0,1,1.19-2,15.88,15.88,0,0,0,1.2-2.08,36.87,36.87,0,0,1-4-1.27c-1.33-.51-2.63-1.08-3.91-1.71a27.16,27.16,0,0,1-3.35-2A10.82,10.82,0,0,1,308,11.12h11.35V6.52Zm17.79,22.1H306v2.84a28.72,28.72,0,0,1,6.89,1.17,15.77,15.77,0,0,1,4.25,2,6.43,6.43,0,0,1,2.18,2.42,5.41,5.41,0,0,1,.61,2.27,5.36,5.36,0,0,1-.76,2.49,7.77,7.77,0,0,1-2.66,2.69,18.88,18.88,0,0,1-5.35,2.23,34.16,34.16,0,0,1-8.63.9,33.62,33.62,0,0,1-8.56-.9,17.29,17.29,0,0,1-5.23-2.23A7.9,7.9,0,0,1,286,41.82a5.45,5.45,0,0,1-.75-2.49A5.44,5.44,0,0,1,285.9,37a6.65,6.65,0,0,1,2.17-2.39,15.47,15.47,0,0,1,4.21-2,29.09,29.09,0,0,1,6.84-1.15,4.09,4.09,0,0,0-.75-2,2.92,2.92,0,0,0-2.43-.81H281.33V24.07h42.43Z"/><path class="cls-3" d="M358.43,16.55V11.9H338.09v2.35a2,2,0,0,0,.78,1.71,3,3,0,0,0,1.86.59Zm6.7-12.37V20.46H338.68a8.56,8.56,0,0,1-5.38-1.52,5.33,5.33,0,0,1-2-4.5V4.18h6.75V8h20.34V4.18Zm-33.5,29h13.26V31.8a5.17,5.17,0,0,0-.52-2.34c-.34-.69-1.23-1-2.66-1H327V24.08h42.53v4.35H351.78v4.74h13V47.25h-6.79V37.32H331.63Z"/><path class="cls-3" d="M401.45,4.52V17.08h4.3V4.52h6V47.25h-6V21.73h-4.3v25h-6.06V4.52Zm-9.24,1.91A24.11,24.11,0,0,1,392,9c-.11,1-.2,1.75-.27,2.28q-.37,3.09-1,6.16a28.22,28.22,0,0,1-2.2,6.69,29,29,0,0,1-4.28,6.58,25.88,25.88,0,0,1-7.21,5.74h.1a5,5,0,0,1-1.71.3,2.17,2.17,0,0,1-1.71-1,11.84,11.84,0,0,1-.95-1.17c-.32-.42-.63-.85-1-1.27a29.24,29.24,0,0,0,6.77-5,25.42,25.42,0,0,0,4.09-5.51,22,22,0,0,0,2-5.81,48,48,0,0,0,.76-6H372.7V6.43Z"/><path class="cls-3" d="M456.79,12.1h6.85v4.55h-6.85v9.63h-6.94V4.52h6.94Zm-20.33,8.5v-6h-11.2v3.67A2.07,2.07,0,0,0,426,20a2.74,2.74,0,0,0,1.83.61ZM431,40.45v.79a2.15,2.15,0,0,0,.56,1.39,2.51,2.51,0,0,0,2,.66h23.62v4h-26.8a8.76,8.76,0,0,1-3.17-.49,5.26,5.26,0,0,1-2-1.27,4.31,4.31,0,0,1-1.1-1.83,7.33,7.33,0,0,1-.32-2.13V36.4h25.87V33.31H423.74v-3.9h33.05v11ZM442.91,5.11V24.57H426.14a8.49,8.49,0,0,1-5.33-1.52,5.35,5.35,0,0,1-1.95-4.5V5.11h6.4v5.37h11.2V5.11Z"/><path class="cls-3" d="M485.59,44.17a16,16,0,0,0,4.5-.54,11,11,0,0,0,3-1.32,4.94,4.94,0,0,0,1.49-1.56,3.27,3.27,0,0,0,.47-1.57,3.2,3.2,0,0,0-.42-1.44,4.3,4.3,0,0,0-1.49-1.54,11.24,11.24,0,0,0-2.91-1.2,17.56,17.56,0,0,0-4.62-.51,18.72,18.72,0,0,0-4.52.46,11.46,11.46,0,0,0-2.91,1.1,4.62,4.62,0,0,0-1.59,1.59,3.3,3.3,0,0,0-.46,1.54,3.71,3.71,0,0,0,.41,1.64,3.81,3.81,0,0,0,1.59,1.54,10.1,10.1,0,0,0,3,1.3,17.11,17.11,0,0,0,4.52.51M502.12,4.52V16.13c0,.8,0,1.61-.05,2.42a2.89,2.89,0,0,1-.61,1.37,2.56,2.56,0,0,1-2,.64h-4.6c.13-.92.22-1.87.27-2.86s.07-2.34.07-4V9.11H469V4.52ZM485.44,31a36.75,36.75,0,0,1,8.83.86A17.65,17.65,0,0,1,499.62,34a7.47,7.47,0,0,1,2.69,2.69,5.54,5.54,0,0,1,.73,2.54,5.74,5.74,0,0,1-.78,2.57,7.78,7.78,0,0,1-2.69,2.76,18.9,18.9,0,0,1-5.4,2.25,33.84,33.84,0,0,1-8.73.93,33.33,33.33,0,0,1-8.65-.93,17.54,17.54,0,0,1-5.28-2.25,7.25,7.25,0,0,1-2.74-2.76,6,6,0,0,1-.73-2.57,5.8,5.8,0,0,1,.73-2.64,7.49,7.49,0,0,1,2.74-2.69,19.35,19.35,0,0,1,5.31-2,35.6,35.6,0,0,1,8.62-.86m21.37-3.57H464.28V22.8h13.88V15.27h6.94V22.8h21.71Z"/><path class="cls-3" d="M540.4,4.52h6.8V17.13h6.94v4.55H547.2V47.25h-6.8ZM521.68,26.76a9.21,9.21,0,0,1-1.2,1.94A36,36,0,0,1,518,31.6q-1.65,1.69-3.42,3.26a25.56,25.56,0,0,1-3.67,2.71c-.59-.68-1.19-1.4-1.81-2.15s-1.21-1.45-1.76-2.1c.62-.43,1.53-1.16,2.74-2.2a30,30,0,0,0,3.66-3.87A27.22,27.22,0,0,0,517,22.19a12.74,12.74,0,0,0,1.39-5.74V5.74h6.8V16.45a12.39,12.39,0,0,0,.78,4.35,18.47,18.47,0,0,0,2,3.91,21.73,21.73,0,0,0,2.55,3.42c.83.93,1.69,1.83,2.59,2.69s1.51,1.36,2.1,1.81a7.57,7.57,0,0,0,1,.73c-.55.72-1.12,1.42-1.7,2.11s-1.18,1.38-1.77,2.1a27.93,27.93,0,0,1-4-2.86,33.16,33.16,0,0,1-3.35-3.25A34.67,34.67,0,0,1,523,28.57a10.59,10.59,0,0,1-1.15-1.81Z"/><path class="cls-3" d="M285.7,62c0-3.13,1.9-5,4.32-5a3.67,3.67,0,0,1,2.72,1.21l-.81,1a2.6,2.6,0,0,0-1.88-.86c-1.65,0-2.8,1.39-2.8,3.64s1.07,3.67,2.76,3.67a2.74,2.74,0,0,0,2.12-1l.81,1a3.76,3.76,0,0,1-3,1.38c-2.41,0-4.26-1.79-4.26-4.93"/><path class="cls-3" d="M294.64,57.14h1.51v3.92h4.1V57.14h1.51v9.6h-1.51V62.37h-4.1v4.37h-1.51Z"/><path class="cls-3" d="M304.23,62.62V57.14h1.51v5.59c0,2.16.86,2.86,2.06,2.86s2.09-.7,2.09-2.86V57.14h1.46v5.48c0,3.13-1.43,4.28-3.55,4.28s-3.57-1.15-3.57-4.28"/><path class="cls-3" d="M313.83,57.14h1.55l3.18,5.64,1,2h.07c-.08-1-.2-2.15-.2-3.19V57.14h1.43v9.6h-1.55l-3.17-5.65-1-2h-.06c.08,1,.2,2.09.2,3.14v4.52h-1.44Z"/><path class="cls-3" d="M322.88,62c0-3.13,1.92-5,4.46-5a3.81,3.81,0,0,1,2.85,1.21l-.8,1a2.66,2.66,0,0,0-2-.86c-1.78,0-3,1.39-3,3.64s1.05,3.67,3,3.67a2.37,2.37,0,0,0,1.51-.47V62.87h-1.9V61.63h3.27v4.15a4.31,4.31,0,0,1-3,1.12c-2.55,0-4.42-1.79-4.42-4.93"/><path class="cls-3" d="M335.56,65.55c1.5,0,2.36-.53,2.36-1.7s-.83-1.57-2.36-1.57H334v3.27Zm-.23-4.4c1.46,0,2.07-.55,2.07-1.45s-.68-1.37-2-1.37H334v2.82Zm-2.8-4h3c2,0,3.38.64,3.38,2.37a2.13,2.13,0,0,1-1.36,2.07v.07a2.19,2.19,0,0,1,1.88,2.27c0,1.9-1.55,2.82-3.67,2.82h-3.2Z"/><path class="cls-3" d="M341.17,62.62V57.14h1.51v5.59c0,2.16.86,2.86,2.06,2.86s2.09-.7,2.09-2.86V57.14h1.46v5.48c0,3.13-1.43,4.28-3.55,4.28s-3.57-1.15-3.57-4.28"/><path class="cls-3" d="M350.77,57.14h1.51v4.54h0L356,57.14h1.68l-3,3.71,3.46,5.89h-1.68L353.75,62l-1.47,1.81v2.9h-1.51Z"/><path class="cls-3" d="M365.12,65.5c2.05,0,3.16-1.21,3.16-3.59s-1.11-3.53-3.16-3.53h-.88V65.5Zm-2.39-8.36h2.49c2.94,0,4.62,1.64,4.62,4.77s-1.68,4.83-4.54,4.83h-2.57Z"/><path class="cls-3" d="M371.84,57.14h5.66v1.28h-4.15v2.67h3.51v1.27h-3.51v3.1h4.3v1.28h-5.81Z"/><path class="cls-3" d="M378.37,57.14H380l1.42,5c.33,1.1.55,2,.87,3.14h.07c.34-1.11.56-2,.87-3.14l1.42-5h1.54l-3,9.6h-1.78Z"/><path class="cls-3" d="M387.4,57.14h5.66v1.28h-4.15v2.67h3.51v1.27h-3.51v3.1h4.3v1.28H387.4Z"/><path class="cls-3" d="M395.22,57.14h1.51v8.32h4.06v1.28h-5.57Z"/><path class="cls-3" d="M408.07,61.9c0-2.25-1-3.62-2.63-3.62s-2.61,1.37-2.61,3.62,1,3.69,2.61,3.69,2.63-1.44,2.63-3.69m-6.79,0c0-3.08,1.7-4.93,4.16-4.93s4.18,1.85,4.18,4.93-1.72,5-4.18,5-4.16-1.91-4.16-5"/><path class="cls-3" d="M414.43,61.89c1.54,0,2.27-.58,2.27-1.85s-.8-1.68-2.32-1.68h-1.25v3.53Zm-2.81-4.75h2.9c2.14,0,3.66.74,3.66,2.9s-1.52,3.06-3.6,3.06h-1.45v3.64h-1.51Z"/><path class="cls-3" d="M420.05,57.14h1.73L423.54,62c.22.64.42,1.28.64,1.92h.06c.22-.64.41-1.28.63-1.92l1.73-4.86h1.74v9.6h-1.4V62c0-.86.12-2.1.19-3h-.05l-.77,2.21-1.66,4.57h-.94L422,61.24,421.27,59h0c.07.87.18,2.11.18,3v4.74h-1.35Z"/><path class="cls-3" d="M430.86,57.14h5.67v1.28h-4.15v2.67h3.51v1.27h-3.51v3.1h4.29v1.28h-5.81Z"/><path class="cls-3" d="M438.68,57.14h1.55l3.18,5.64,1,2h.07c-.08-1-.2-2.15-.2-3.19V57.14h1.43v9.6h-1.54L441,61.09l-1-2h-.06c.08,1,.2,2.09.2,3.14v4.52h-1.44Z"/><path class="cls-3" d="M450.2,58.42h-2.81V57.14h7.15v1.28h-2.83v8.32H450.2Z"/><path class="cls-3" d="M458.61,62c0-3.13,1.9-5,4.32-5a3.67,3.67,0,0,1,2.72,1.21l-.82,1a2.56,2.56,0,0,0-1.87-.86c-1.66,0-2.8,1.39-2.8,3.64s1.06,3.67,2.76,3.67a2.76,2.76,0,0,0,2.12-1l.81,1a3.78,3.78,0,0,1-3,1.38c-2.4,0-4.25-1.79-4.25-4.93"/><path class="cls-3" d="M473.37,61.9c0-2.25-1.05-3.62-2.63-3.62s-2.62,1.37-2.62,3.62,1,3.69,2.62,3.69,2.63-1.44,2.63-3.69m-6.8,0c0-3.08,1.71-4.93,4.17-4.93s4.18,1.85,4.18,4.93-1.73,5-4.18,5-4.17-1.91-4.17-5"/><path class="cls-3" d="M479.87,61.66c1.39,0,2.15-.57,2.15-1.73s-.76-1.57-2.15-1.57h-1.44v3.3Zm-3-4.52h3.14c2,0,3.47.72,3.47,2.79a2.67,2.67,0,0,1-2,2.74l2.34,4.07h-1.7L480,62.87h-1.54v3.87h-1.52Z"/><path class="cls-3" d="M488.27,61.89c1.54,0,2.27-.58,2.27-1.85s-.79-1.68-2.32-1.68H487v3.53Zm-2.81-4.75h2.91c2.13,0,3.65.74,3.65,2.9s-1.52,3.06-3.6,3.06H487v3.64h-1.51Z"/><path class="cls-3" d="M499.91,61.9c0-2.25-1-3.62-2.63-3.62s-2.62,1.37-2.62,3.62,1,3.69,2.62,3.69,2.63-1.44,2.63-3.69m-6.8,0c0-3.08,1.71-4.93,4.17-4.93s4.18,1.85,4.18,4.93-1.72,5-4.18,5-4.17-1.91-4.17-5"/><path class="cls-3" d="M506.15,61.66c1.39,0,2.15-.57,2.15-1.73s-.76-1.57-2.15-1.57h-1.44v3.3Zm-2.95-4.52h3.14c2,0,3.46.72,3.46,2.79a2.67,2.67,0,0,1-2,2.74l2.35,4.07h-1.71l-2.17-3.87h-1.55v3.87H503.2Z"/><path class="cls-3" d="M513.11,62.82h2.62l-.38-1.29c-.32-1.06-.62-2.12-.9-3.19h-.06c-.27,1.07-.57,2.13-.89,3.19Zm.47-5.68h1.74l3.18,9.6h-1.6L516.09,64h-3.33l-.82,2.74H510.4Z"/><path class="cls-3" d="M520.84,58.42H518V57.14h7.14v1.28h-2.82v8.32h-1.51Z"/><path class="cls-3" d="M526.83,57.14h1.51v9.6h-1.51Z"/><path class="cls-3" d="M536.87,61.9c0-2.25-1-3.62-2.63-3.62s-2.61,1.37-2.61,3.62,1,3.69,2.61,3.69,2.63-1.44,2.63-3.69m-6.79,0c0-3.08,1.7-4.93,4.16-4.93s4.18,1.85,4.18,4.93-1.72,5-4.18,5-4.16-1.91-4.16-5"/><path class="cls-3" d="M540.16,57.14h1.55l3.18,5.64,1,2H546c-.08-1-.2-2.15-.2-3.19V57.14h1.43v9.6h-1.55l-3.17-5.65-1-2h-.06c.08,1,.2,2.09.2,3.14v4.52h-1.44Z"/></g></g></svg>