<svg xmlns="http://www.w3.org/2000/svg" xmlns:xlink="http://www.w3.org/1999/xlink" viewBox="0 0 247.51 56.61"><defs><style>.cls-1,.cls-2{fill-rule:evenodd;}.cls-1{fill:url(#linear-gradient);}.cls-2{fill:url(#linear-gradient-2);}.cls-3{fill:#1f1646;}.cls-4{fill:#231815;}</style><linearGradient id="linear-gradient" y1="37.93" x2="34.3" y2="37.93" gradientUnits="userSpaceOnUse"><stop offset="0" stop-color="#00a0e9"/><stop offset="1" stop-color="#1f1646"/></linearGradient><linearGradient id="linear-gradient-2" x1="38.43" y1="38.58" x2="42.67" y2="14.5" gradientUnits="userSpaceOnUse"><stop offset="0" stop-color="#fff100"/><stop offset="1" stop-color="#cf3339"/></linearGradient></defs><g id="레이어_2" data-name="레이어 2"><g id="레이어_2-2" data-name="레이어 2"><path class="cls-1" d="M34.2,20c-3.61,5.41-4.54,11.94-6.91,20.69-2.54,9.35-6.63,15.69-15.52,16A11.16,11.16,0,0,1,0,45.12c.28-5.87,6.8-12.75,12.75-10.74-4.62,3-6,11.81,1.62,11.23,5.53-.42,7.85-7.11,8.94-11.39C24.79,28.53,26,24,31.25,20.15a3.83,3.83,0,0,1,1.91-.89C33.61,19.24,34.61,19.35,34.2,20Z"/><path class="cls-2" d="M46.13,13.84A6.42,6.42,0,0,1,49.49,16c6.44,9-11.31,14.37-15.76,18.35,1.64,1.42,6.3.62,8.39.3,6.51-1,14.05-4.77,17.71-10.28,3.92-5.89,4.56-13.77-.92-19.24A16.06,16.06,0,0,0,51.62.89a30.39,30.39,0,0,0-16.25.46c-9.27,3-12.17,9.83-14.22,19A58.28,58.28,0,0,1,34,14.82c3.39-1.05,7.22-1.85,10.77-1.34a5.35,5.35,0,0,1,.55.11A8.54,8.54,0,0,1,46.13,13.84Z"/><path class="cls-3" d="M30.44,54.61V42.79h3c3.28,0,4.93,1.19,4.93,3.57A3.34,3.34,0,0,1,37,49.27a5.35,5.35,0,0,1-3.23.85h-1v4.49Zm2.37-10v3.61h.83c1.51,0,2.25-.59,2.25-1.76s-.74-1.85-2.25-1.85Z"/><path class="cls-3" d="M39.13,50.34V42.79H41.5v6.82c0,2.23.82,3.34,2.46,3.34s2.45-1.11,2.45-3.34V42.79h2.37v7.55q0,4.47-4.82,4.47T39.13,50.34Z"/><path class="cls-3" d="M59.09,52.46l.1,2a11.82,11.82,0,0,1-2.69.37,6.89,6.89,0,0,1-4.67-1.46A5.49,5.49,0,0,1,50,48.9a6.14,6.14,0,0,1,1.72-4.66,6.63,6.63,0,0,1,4.76-1.65,7.25,7.25,0,0,1,2.68.49l-.17,2a5.09,5.09,0,0,0-2.56-.63,3.66,3.66,0,0,0-2.88,1.21,4.44,4.44,0,0,0-1.08,3.07,4.35,4.35,0,0,0,1.08,3A3.8,3.8,0,0,0,56.5,53,5.63,5.63,0,0,0,59.09,52.46Z"/><path class="cls-4" d="M93.77,34.52a.85.85,0,0,0-.07-.45s-.1-.06-.25-.06H90.92l.28,2.4c-1.24.19-2.8.37-4.67.54-2.24.21-4,.31-5.44.31H74V34.35H77a.47.47,0,0,0,.34-.12.5.5,0,0,0,.13-.38v-6.8a1.09,1.09,0,0,0-.06-.47.32.32,0,0,0-.26-.1H74.54V23.67h14.9v2.24h4c.13,0,.21,0,.25-.09a.34.34,0,0,0,.07-.22v-3h3.17v16H93.77ZM83,26.58a.34.34,0,0,0-.29-.1H80.67a.35.35,0,0,0-.28.1,1.22,1.22,0,0,0-.06.47v6.86a.45.45,0,0,0,.12.32.38.38,0,0,0,.32.12H82.7a.42.42,0,0,0,.29-.09.75.75,0,0,0,.12-.51v-6.7A.77.77,0,0,0,83,26.58Zm1.29,23.14a5.9,5.9,0,0,1-2.08-4.52,6.27,6.27,0,0,1,2.08-4.74,6.8,6.8,0,0,1,4.83-1.9A7,7,0,0,1,94,40.46a6.2,6.2,0,0,1,2.15,4.74A5.9,5.9,0,0,1,94,49.72a7.15,7.15,0,0,1-9.71,0Zm1.93-7.27a3.47,3.47,0,0,0-1.14,2.62,3.34,3.34,0,0,0,1.21,2.6,4.26,4.26,0,0,0,5.65,0,3.38,3.38,0,0,0,1.21-2.6A3.46,3.46,0,0,0,92,42.45a4.36,4.36,0,0,0-5.72,0Zm.16-16a.42.42,0,0,0-.31.1A.66.66,0,0,0,86,27v6.73a.42.42,0,0,0,.09.29,1,1,0,0,0,.39.06q.69,0,1.29-.06a12.9,12.9,0,0,0,1.35-.13V31.26h4.31c.15,0,.23,0,.25-.07s.07-.09.07-.22V29.11a.7.7,0,0,0-.07-.39.43.43,0,0,0-.25-.06H89.14V26.48Z"/><path class="cls-4" d="M123.84,32.08c0-.15,0-.25-.1-.29a.09.09,0,0,0-.06,0h-2.57a.31.31,0,0,0-.18,0,.88.88,0,0,0,0,.35v6.92h-3V37.39c-1.09.17-2.17.3-3.23.38s-2.06.12-3.09.12H107.3a2.81,2.81,0,0,1-2-.69,2.57,2.57,0,0,1-.7-1.93V25.63a2.28,2.28,0,0,1,.66-1.81,2.89,2.89,0,0,1,1.77-.47h8.58v2.91H108a.91.91,0,0,0-.31,0,.73.73,0,0,0,0,.32v2.05a.63.63,0,0,0,0,.29c0,.06.14.09.31.09h7.44v2.88H108a.91.91,0,0,0-.31,0,.73.73,0,0,0,0,.32v2.25a.74.74,0,0,0,.07.37.68.68,0,0,0,.44.1h3.77c1,0,2,0,3-.1s1.94-.11,3-.22V22.78h3v5.88a.66.66,0,0,0,0,.26q0,.09.18.09h2.57c.06,0,.1,0,.13-.13a.68.68,0,0,0,0-.19V22.56h2.91V39.19h-2.91Zm-.16,11.67a.66.66,0,0,0-.15-.51,1,1,0,0,0-.55-.13H107.14V40.33h17.39a2.07,2.07,0,0,1,1.71.7,2.6,2.6,0,0,1,.51,1.74V51h-3.07Z"/><path class="cls-4" d="M136.39,36.06a2.41,2.41,0,0,1-.66-1.83V26a2.42,2.42,0,0,1,.54-1.68,2.2,2.2,0,0,1,1.67-.63h16.32v2.91h-15a1,1,0,0,0-.31,0,.61.61,0,0,0-.06.35v6.41a.7.7,0,0,0,.06.35.42.42,0,0,0,.35.13h15.11v2.84H146.6V41a.58.58,0,0,0,.07.32.34.34,0,0,0,.28.1h11.1v2.84H132.28V41.41h10.85a.27.27,0,0,0,.25-.1.6.6,0,0,0,.06-.32v-4.3h-5.15A2.58,2.58,0,0,1,136.39,36.06Z"/><path class="cls-4" d="M173.92,37.39a18.08,18.08,0,0,1-2.59-4.08,19.09,19.09,0,0,1-2.91,4.55,19.87,19.87,0,0,1-4.1,3.89l-2.16-2.21a16.86,16.86,0,0,0,5.86-6,13.71,13.71,0,0,0,1.73-6.73V23.38l3.1,0V26.8a12.82,12.82,0,0,0,1.58,6.38A16.73,16.73,0,0,0,180,38.75l-2.09,2.44A28,28,0,0,1,173.92,37.39Zm8.48-14.83h3.1V47.35h-3.1Z"/><path class="cls-4" d="M191.35,34.2h9.39a.32.32,0,0,0,.26-.1.44.44,0,0,0,.05-.25v-5h3.07v5c0,.13,0,.21.07.25a.32.32,0,0,0,.28.1h12.65V37H191.35Zm19.06-7.74a1,1,0,0,0-.12-.55.4.4,0,0,0-.32-.13H194.7V22.85h16.73a2,2,0,0,1,1.55.69,2.27,2.27,0,0,1,.6,1.58v7.94h-3.17ZM198.87,49.85a5.84,5.84,0,0,1-2.24-4.65,6.09,6.09,0,0,1,2.21-4.84A7.74,7.74,0,0,1,204,38.59a7.84,7.84,0,0,1,5.19,1.81,6,6,0,0,1,2.28,4.8,5.79,5.79,0,0,1-2.31,4.62,7.88,7.88,0,0,1-5.16,1.8A7.77,7.77,0,0,1,198.87,49.85Zm1.87-7.47a3.46,3.46,0,0,0,0,5.38,4.91,4.91,0,0,0,3.19,1,4.8,4.8,0,0,0,3.17-1,3.4,3.4,0,0,0-.06-5.35,4.89,4.89,0,0,0-3.13-1A5,5,0,0,0,200.74,42.38Z"/><path class="cls-4" d="M231.72,37.39a18,18,0,0,1-2.58-4.08,19.74,19.74,0,0,1-2.91,4.55,19.51,19.51,0,0,1-4.15,3.89l-2.15-2.21a16.4,16.4,0,0,0,5.89-6,13.9,13.9,0,0,0,1.7-6.73V23.38l3.13,0V26.8a12.82,12.82,0,0,0,1.58,6.38,16.76,16.76,0,0,0,5.54,5.57l-2.09,2.44A27.57,27.57,0,0,1,231.72,37.39Zm11.14-3.48c-.07.07-.09.22-.09.48v13h-3.1V22.56h3.1V30.5c0,.2,0,.35.09.41a.63.63,0,0,0,.41.09h4.24v2.85h-4.24A.78.78,0,0,0,242.86,33.91Z"/></g></g></svg>