<svg xmlns="http://www.w3.org/2000/svg" xmlns:xlink="http://www.w3.org/1999/xlink" viewBox="0 0 207.2 71.92"><defs><style>.cls-1{fill:#4c4948;}.cls-2{fill:#8fc31f;}.cls-3{fill:#00852c;}.cls-3,.cls-5{opacity:0.3;}.cls-4{fill:#e73562;}.cls-5{fill:#c4000a;}.cls-6{fill:#0095a2;}.cls-7{fill:#b70171;}.cls-8{fill:#1d2088;}.cls-8,.cls-9{opacity:0.2;}.cls-9{fill:#171c61;}.cls-10{fill:url(#linear-gradient);}</style><linearGradient id="linear-gradient" x1="1117.75" y1="311.2" x2="1146.58" y2="311.2" gradientTransform="translate(-1082.55 -262.9)" gradientUnits="userSpaceOnUse"><stop offset="0" stop-color="#008a7c"/><stop offset="1" stop-color="#005486"/></linearGradient></defs><g id="레이어_2" data-name="레이어 2"><g id="레이어_2-2" data-name="레이어 2"><polygon class="cls-1" points="115.08 25 108.52 25 108.52 28.28 115.08 28.28 115.08 30.23 108.52 30.23 108.52 33.51 115.08 33.51 115.08 40.12 119.69 40.12 119.69 19.5 115.08 19.5 115.08 25"/><path class="cls-1" d="M106.52,38.51a20.73,20.73,0,0,0,3.91-.94l.16,0-.53-2.75-.2,0a27.8,27.8,0,0,1-4.06.48,34,34,0,0,0,.24-4.4V23.51h3.37V20H88.18v3.55h3.41v7.22a38.4,38.4,0,0,0,.25,4.69h-4v3.51h12.29A44.06,44.06,0,0,0,106.52,38.51Zm-5.06-15v8.65c0,1.27,0,2.37-.07,3.26H96.24c0-.87-.06-2-.06-3.26V23.51Z"/><path class="cls-1" d="M116.21,42.61c-2-1.5-4.79-2.26-8.29-2.26s-6.32.76-8.33,2.26a7,7,0,0,0,0,11.28c2,1.5,4.81,2.27,8.33,2.27s6.29-.77,8.29-2.27a6.89,6.89,0,0,0,0-11.28Zm-3.69,8.84a7.88,7.88,0,0,1-4.6,1.23,8,8,0,0,1-4.62-1.23,3.83,3.83,0,0,1,0-6.39,7.89,7.89,0,0,1,4.62-1.23,7.8,7.8,0,0,1,4.6,1.23,3.84,3.84,0,0,1,0,6.39Z"/><path class="cls-1" d="M164.13,42.46a2.44,2.44,0,0,0-1.89-.62H138.9V45.5h19.73c.91,0,1.33.44,1.33,1.38v8.2h4.63V44.42A2.8,2.8,0,0,0,164.13,42.46Z"/><path class="cls-1" d="M146.82,38.31a10,10,0,0,0,4.51-1.91V40h4.39V30.78H160v9.3h4.39V19.5H160v7.61h-4.32V19.5h-4.39V31.31c0,1.8-1.33,2.93-4.06,3.46a23.41,23.41,0,0,1-4.3.3,25.4,25.4,0,0,1-4-.17,1.29,1.29,0,0,1-1.21-1.48V30.86h8.93V27.42h-8.93V23.51h9.43V20H133.14V34.54a4.9,4.9,0,0,0,.77,3,3.94,3.94,0,0,0,2.67,1.25,31.44,31.44,0,0,0,3.29.15A32.45,32.45,0,0,0,146.82,38.31Z"/><path class="cls-1" d="M189.05,25.16V20h-4.81v5.2a23.21,23.21,0,0,1-2,10.18,21.27,21.27,0,0,1-7.11,7.88l-.18.13,2.82,3.29.15-.09a21,21,0,0,0,5.46-4.65,17.72,17.72,0,0,0,3.43-5.59,19.08,19.08,0,0,0,3.6,5.51,19.72,19.72,0,0,0,5.31,4.35l.15.08,2.68-3.45-.17-.12A20.19,20.19,0,0,1,189.05,25.16Z"/><rect class="cls-1" x="202.54" y="19.5" width="4.66" height="35.58"/><path class="cls-2" d="M30.06,35.64a13.21,13.21,0,0,0,11.2-6.48,7.37,7.37,0,0,1,6.67-3.72A7.3,7.3,0,0,1,55.5,33c-.31,5.65-5.25,9.71-7.5,11A32.38,32.38,0,0,1,35.21,48.3h.88c1.84,0,3.63,0,5.37.1A22.41,22.41,0,0,0,56.1,41.7a24.85,24.85,0,0,0,7.14-17.55C63.24,11,53,0,40,0A22.63,22.63,0,0,0,17.37,22.69,13,13,0,0,0,30.06,35.64Z"/><path class="cls-3" d="M51.86,3.38C51.11,3,38.51-3.19,27.6,6.2,17,15.35,18.66,29.8,23.33,33.61a12.23,12.23,0,0,0,6.73,2,13.21,13.21,0,0,0,11.2-6.48,7.37,7.37,0,0,1,6.67-3.72A7.3,7.3,0,0,1,55.5,33c-.31,5.65-5.25,9.71-7.5,11A32.38,32.38,0,0,1,35.21,48.3h.88c1.84,0,3.63,0,5.37.1A22.41,22.41,0,0,0,56.1,41.7a24.85,24.85,0,0,0,7.14-17.55A24.47,24.47,0,0,0,51.86,3.38Z"/><path class="cls-4" d="M57.94,8.83l-.45-.55c-2.78-3.4-7.56-6-14.43-6C32.89,2.31,22.29,10,21.64,23.79c-.32,6.74,4.05,11.05,9,11.84a12.3,12.3,0,0,0,4-.85,13.83,13.83,0,0,0,2-1,13.19,13.19,0,0,0,4.58-4.61,7.37,7.37,0,0,1,6.67-3.72A7.3,7.3,0,0,1,55.5,33c-.31,5.65-5.25,9.71-7.5,11A32.38,32.38,0,0,1,35.21,48.3h.88c1.84,0,3.63,0,5.37.1A22.41,22.41,0,0,0,56.1,41.7,25,25,0,0,0,57.94,8.83Z"/><path class="cls-5" d="M59.22,10.6c-1.72-2.32-5.4-3.75-7.93-4.12C42.57,5.21,36,8.16,30.59,15.15a15.23,15.23,0,0,0-2.83,13.93,7,7,0,0,0,8.92,4.69,13.19,13.19,0,0,0,4.58-4.61,7.37,7.37,0,0,1,6.67-3.72A7.3,7.3,0,0,1,55.5,33c-.31,5.65-5.25,9.71-7.5,11A32.38,32.38,0,0,1,35.21,48.3h.88c1.84,0,3.63,0,5.37.1A22.41,22.41,0,0,0,56.1,41.7a25.08,25.08,0,0,0,5.69-25.93c-.17-.48-.36-1-.55-1.4l-.42-.93c-.28-.58-.57-1.13-.86-1.63S59.47,11,59.22,10.6Z"/><path class="cls-6" d="M62.42,17.8A14,14,0,0,0,50.88,8.73c-7.6-1.11-13.35,1.46-18.05,7.57a13.26,13.26,0,0,0-2.47,12.14c1.71,5.52,7.8,4.56,8.48,3.69a12.21,12.21,0,0,0,2.42-3,7.37,7.37,0,0,1,6.67-3.72A7.3,7.3,0,0,1,55.5,33c-.31,5.65-5.25,9.71-7.5,11A32.38,32.38,0,0,1,35.21,48.3h.88c1.84,0,3.63,0,5.37.1A22.41,22.41,0,0,0,56.1,41.7a24.85,24.85,0,0,0,7.14-17.55A24.53,24.53,0,0,0,62.42,17.8Z"/><path class="cls-7" d="M55.58,22.07C48.4,17.73,43.05,25.12,41.35,29a7.46,7.46,0,0,1,6.58-3.56A7.3,7.3,0,0,1,55.5,33c-.31,5.65-5.25,9.71-7.5,11A32.38,32.38,0,0,1,35.21,48.3h.88c1.84,0,3.63,0,5.37.1A22.41,22.41,0,0,0,56.1,41.7l.59-.63C58.66,39.21,65.15,27.86,55.58,22.07Z"/><path class="cls-8" d="M23.18,30.53c-5.75-2.67-5.47-11.32-5.43-12-.06.3-.1.6-.14.9a2.36,2.36,0,0,0,0,.28c0,.24-.06.49-.08.74s0,.37,0,.56,0,.36,0,.55c0,.38,0,.78,0,1.17a13,13,0,0,0,12.69,13h.55A10.56,10.56,0,0,1,23.18,30.53Z"/><path class="cls-8" d="M31.84,31a22.4,22.4,0,0,1-5.52.28,8.94,8.94,0,0,1-3.14-.77,10.56,10.56,0,0,0,7.43,5.1h0a12.71,12.71,0,0,0,4-.85,13.83,13.83,0,0,0,2-1l.77-.5,0,0a8.16,8.16,0,0,0,.66-.5.61.61,0,0,0,.1-.07l.5-.43C37.88,32.9,34.16,33.44,31.84,31Z"/><path class="cls-8" d="M55.58,22.07c8.83,5.34,4,15.41,1.64,18.4l.09-.1c.31-.37.61-.75.9-1.13l0,0a22.84,22.84,0,0,0,3.62-10.4c1.1-9.44-6.74-14.69-14.74-11.7a13.37,13.37,0,0,0-7.9,8.12c-.64,2-2.38,4.85-7.37,5.78,2.32,2.42,6,1.88,6.89,1.23l.13-.12.38-.36c.33-.33.63-.66.91-1l.21-.26.16-.22.23-.31.19-.29c.11-.18.22-.35.32-.53a1.46,1.46,0,0,1,.09-.16h0C43.05,25.12,48.4,17.73,55.58,22.07Z"/><path class="cls-9" d="M51.11,23.92a8.76,8.76,0,0,0-9.71,5,.47.47,0,0,0,0,.1,7.46,7.46,0,0,1,6.58-3.56A7.3,7.3,0,0,1,55.5,33c-.31,5.65-5.25,9.71-7.5,11A32.38,32.38,0,0,1,35.21,48.3h.88l2.34,0a36.35,36.35,0,0,0,12.33-4.79C60.09,37.29,58.17,25.27,51.11,23.92Z"/><path class="cls-7" d="M44,54.68a198.48,198.48,0,0,0-28.72-2.92s12.24-1.44,30.17,1.39A92.71,92.71,0,0,1,64,57.92a67.15,67.15,0,0,1,16-3c-4.15-1.4-19.48-6.58-44-6.63C13.61,48.25,0,53.68,0,53.68a95.22,95.22,0,0,1,26.38,8.47c9.33,4.81,13.93,9.77,13.93,9.77a25.54,25.54,0,0,1,5.62-5,43.33,43.33,0,0,0-10.06-6.28C25.58,55.93,10.1,53.74,10.1,53.74s15.09.53,26.17,4.07A64.65,64.65,0,0,1,50.6,64c1.89-1.09,4.09-2.25,6.64-3.42.74-.34,1.47-.65,2.19-1C57,58.23,52.29,56.19,44,54.68Z"/><polygon class="cls-10" points="35.21 48.3 35.22 48.3 35.22 48.3 35.21 48.3"/><path class="cls-6" d="M79.44,54.72s-34.49-6.51-64.12-3c0,0,12.24-1.44,30.17,1.39A92.71,92.71,0,0,1,64,57.92,69.41,69.41,0,0,1,78.74,55c.86-.07,1.34-.09,1.34-.09Z"/><path class="cls-6" d="M10.1,53.74s15.09.53,26.17,4.07A64.65,64.65,0,0,1,50.6,64c1.89-1.09,4.09-2.25,6.64-3.42.74-.34,1.47-.65,2.19-1C59.43,59.58,30.2,52.31,10.1,53.74Z"/><path class="cls-6" d="M26.38,62.15c9.33,4.81,13.93,9.77,13.93,9.77a25.54,25.54,0,0,1,5.62-5S23.35,55.51,0,53.68A95.22,95.22,0,0,1,26.38,62.15Z"/><path class="cls-8" d="M55.58,22.07C48.4,17.73,43.05,25.12,41.35,29a7.46,7.46,0,0,1,6.58-3.56A7.3,7.3,0,0,1,55.5,33c-.31,5.65-5.25,9.71-7.5,11A32.38,32.38,0,0,1,35.21,48.3h.88c1.84,0,3.63,0,5.37.1A22.41,22.41,0,0,0,56.1,41.7l.59-.63C58.66,39.21,65.15,27.86,55.58,22.07Z"/></g></g></svg>