<svg xmlns="http://www.w3.org/2000/svg" viewBox="0 0 318.65 230.5"><defs><style>.cls-1{fill:#0f3481;}.cls-2{fill:#189343;}.cls-3{fill:#fff;}</style></defs><g id="레이어_2" data-name="레이어 2"><g id="레이어_2-2" data-name="레이어 2"><path class="cls-1" d="M274.9,156.86c4.65,10.94,5.42-23.44,5.42-36A120.9,120.9,0,1,0,48,168S67.16,116.6,92.19,116.6c15.74,0,22.18,23.61,22.18,23.61s22.15-71.52,46.5-71.52c28.61,0,44.34,55.07,47.21,64.37,0,0,15-23.6,29.32-21.46C237.4,111.6,253,105.54,274.9,156.86Z"/><path class="cls-2" d="M147.31,162.86c-7.22,7.71-23.78,27.81-41.88,66,15.52,1.2,30.55,1.53,47.89,1.62l2.48-67.59C153.25,162.92,149.84,162.81,147.31,162.86Z"/><path class="cls-2" d="M121.15,163.74C109,169.82,80.3,186.87,53.59,222.29a386.41,386.41,0,0,0,39.65,5.58c15.54-33.41,35.05-53.52,44.24-64.56C132.6,163.47,125.87,163.49,121.15,163.74Z"/><path class="cls-2" d="M105.2,164.9C45.81,169.86,0,182.37,0,196.82c0,9.14,15.19,17,42.64,23.08C62.55,190.4,89.62,175,105.2,164.9Z"/><path class="cls-2" d="M171.33,162.86c7.22,7.71,23.78,27.81,41.88,66-15.51,1.2-30.53,1.53-47.88,1.62l-2.5-67.59C165.4,162.92,168.81,162.81,171.33,162.86Z"/><path class="cls-2" d="M197.48,163.74c12.15,6.08,40.86,23.13,67.58,58.55a386.63,386.63,0,0,1-39.66,5.58c-15.52-33.41-35-53.52-44.23-64.56C186,163.47,192.77,163.49,197.48,163.74Z"/><path class="cls-2" d="M213.44,164.9c59.4,5,105.21,17.47,105.21,31.92,0,9.14-15.19,17-42.64,23.08C256.08,190.4,229,175,213.44,164.9Z"/><path class="cls-3" d="M159.92,13.56S179.45,32.69,189.22,36s13.08,1.17,13.08,1.17,3.32-3.72,5.66-3.32,3.51,2.34,5.47,2.53c0,0-4.49,2.16-4.49,4.11s-1.37,8,22.65,8c0,0-7.22,12.1-32.22,3.51l-1,9.37s.33,5.7-5.72,5.5-12.69.49-23-10.57c0,0,11.71-2.15,16.2-6.63,0,0-13.27-1-20.89-12.31S159.92,13.56,159.92,13.56Z"/></g></g></svg>