<svg xmlns="http://www.w3.org/2000/svg" viewBox="0 0 210.69 109.49"><defs><style>.cls-1{fill:#004ea2;}.cls-2{fill:#eb6112;}</style></defs><g id="레이어_2" data-name="레이어 2"><g id="레이어_2-2" data-name="레이어 2"><path class="cls-1" d="M81.7,23.36v0h0v0Z"/><path class="cls-2" d="M209.62,39.45h0Z"/><path class="cls-1" d="M66.78,51.05H52.07c-6.43,0-7.56,1.53-10.11,4.2L22.53,76.54l-.17,1.09,14.51,25.5c2.07,3.54,4.56,6.35,11.23,6.35h12S42.32,78.18,41.75,77.24Z"/><path class="cls-1" d="M22.36,76.73l.17-.19,8-50.53H22.15C13.91,26,12.54,29.57,12,33.5l-12,76H9.19c4.06,0,8.3-1.74,9.25-7.15l3.92-24.71-.11-.2Z"/><polygon class="cls-1" points="22.4 76.67 22.29 77.37 22.4 77.57 22.57 76.48 22.4 76.67"/><path class="cls-1" d="M104.31,50.45h0a20.89,20.89,0,0,0-8.43,1.83A18.32,18.32,0,0,0,90.34,56l.78-4.93H74.5l-9.25,58.44h9.19c4.06,0,8.3-1.74,9.25-7.15l3.78-23.82h0a20.1,20.1,0,0,1,4.46-10.33,12.62,12.62,0,0,1,10-4.62h20L124,50.45Z"/><path class="cls-1" d="M107.23,100.33a5.5,5.5,0,0,1,2.21.44l.42-1.45a6.52,6.52,0,0,0-2.71-.49c-3.38,0-5.69,2.13-5.69,5.13s2.08,4.91,5.44,4.91a7.29,7.29,0,0,0,2.88-.5l-.33-1.43a5.93,5.93,0,0,1-2.26.41c-2.45,0-3.78-1.49-3.78-3.47C103.41,101.66,104.94,100.33,107.23,100.33Z"/><rect class="cls-1" x="111.3" y="98.4" width="1.85" height="10.3"/><path class="cls-1" d="M118.41,101.51a3.61,3.61,0,0,0-3.69,3.77c0,2.14,1.45,3.58,3.88,3.58a6.82,6.82,0,0,0,2.68-.49l-.28-1.25a6,6,0,0,1-2.16.35c-1.23,0-2.3-.6-2.36-1.77h5.15a3.51,3.51,0,0,0-3.22-4.2m-1.94,2.91a1.85,1.85,0,0,1,1.83-1.68,1.58,1.58,0,0,1,1.65,1.68Z"/><path class="cls-1" d="M129,104.55a2.74,2.74,0,0,0-3.09-3,5.4,5.4,0,0,0-2.74.66l.37,1.18a4.19,4.19,0,0,1,2.07-.57c1.4,0,1.55.85,1.55,1.22v.09c-2.91,0-4.5.92-4.5,2.68a2.15,2.15,0,0,0,2.35,2.08,2.91,2.91,0,0,0,2.26-1h0l.13.8h1.67A11.42,11.42,0,0,1,129,107v-2.43m-1.79,1.6a1.32,1.32,0,0,1-.06.39,1.63,1.63,0,0,1-1.55,1,1,1,0,0,1-1.09-1c0-1,1.23-1.31,2.7-1.28Z"/><path class="cls-1" d="M135.18,101.53a2.76,2.76,0,0,0-2.42,1.3h0l-.09-1.13H131c0,.6.06,1.3.06,2.12v4.88h1.85v-4a1.85,1.85,0,0,1,.08-.54,1.68,1.68,0,0,1,1.55-1.1c1.07,0,1.51.8,1.51,1.9v3.79h1.85v-4C137.9,102.27,136.42,101.53,135.18,101.53Z"/><path class="cls-1" d="M151,103.16h-1.67a6.48,6.48,0,0,1-1,2.59c-.54-.53-1.3-1.34-2.07-2.16v0c1.46-.65,2.12-1.48,2.12-2.5a2.3,2.3,0,0,0-2.56-2.21,2.64,2.64,0,0,0-2.88,2.54,2.94,2.94,0,0,0,.8,1.87v.05a3.11,3.11,0,0,0-2,2.84c0,1.38,1.11,2.74,3.41,2.74a4.49,4.49,0,0,0,2.95-1c.31.31.56.57.83.82h2.2c-.58-.58-1.15-1.18-1.78-1.85a7.28,7.28,0,0,0,1.63-3.69M145.76,100h0a1,1,0,0,1,1.05,1.09c0,.69-.53,1.1-1.41,1.61a2.25,2.25,0,0,1-.76-1.53,1.11,1.11,0,0,1,1.1-1.17m-.29,7.53h0a1.76,1.76,0,0,1-1.9-1.72,1.92,1.92,0,0,1,1.08-1.63c1,1.12,2,2.15,2.59,2.67A2.57,2.57,0,0,1,145.47,107.53Z"/><path class="cls-1" d="M159.8,104.76h1.93v2.33a4.25,4.25,0,0,1-1.61.23c-2.34,0-3.81-1.44-3.81-3.5s1.56-3.42,3.89-3.42a6,6,0,0,1,2.57.48l.42-1.46a7.4,7.4,0,0,0-2.93-.51c-3.64,0-5.9,2.15-5.9,5a4.63,4.63,0,0,0,1.41,3.44A5.9,5.9,0,0,0,160,108.8a11,11,0,0,0,3.54-.61v-4.86H159.8Z"/><path class="cls-1" d="M167.13,103.12h0L167,101.7h-1.6c.05.63.06,1.31.06,2.34v4.66h1.85v-3.61a2.7,2.7,0,0,1,0-.49,1.63,1.63,0,0,1,1.7-1.38,2.64,2.64,0,0,1,.6.06v-1.71a1.6,1.6,0,0,0-.44,0A2.23,2.23,0,0,0,167.13,103.12Z"/><path class="cls-1" d="M174.09,101.51a3.61,3.61,0,0,0-3.69,3.77c0,2.14,1.45,3.58,3.88,3.58a6.82,6.82,0,0,0,2.68-.49l-.28-1.25a6,6,0,0,1-2.16.35c-1.24,0-2.3-.6-2.36-1.77h5.15a3.88,3.88,0,0,0,.07-.73,3.2,3.2,0,0,0-3.29-3.47m-1.94,2.91a1.85,1.85,0,0,1,1.83-1.68,1.58,1.58,0,0,1,1.65,1.68Z"/><path class="cls-1" d="M182.09,101.51a3.61,3.61,0,0,0-3.69,3.77c0,2.14,1.45,3.58,3.88,3.58a6.82,6.82,0,0,0,2.68-.49l-.28-1.25a6,6,0,0,1-2.16.35c-1.24,0-2.3-.6-2.36-1.77h5.15a3.88,3.88,0,0,0,.07-.73,3.2,3.2,0,0,0-3.29-3.47m-1.94,2.91a1.85,1.85,0,0,1,1.83-1.68,1.58,1.58,0,0,1,1.65,1.68Z"/><path class="cls-1" d="M191,101.53a2.78,2.78,0,0,0-2.43,1.3h0l-.09-1.13h-1.62c0,.6.06,1.3.06,2.12v4.88h1.84v-4a1.57,1.57,0,0,1,.09-.54,1.67,1.67,0,0,1,1.55-1.1c1.06,0,1.51.8,1.51,1.9v3.79h1.85v-4C193.75,102.27,192.26,101.53,191,101.53Z"/><path class="cls-1" d="M81.84,23.53c7.81-14.72,64.73-12.52,78.28-12L161.91.32c-16-.77-87.15-2.17-80.08,23.2h0Z"/><path class="cls-1" d="M131,34.85c-3,0-43.83.09-49.18-11.32h0v0c-8.59,16.87,32,22.18,45,22.55h0c1.25,0,2.3.09,3,.06l2.36-.06L134,34.83Z"/><path class="cls-2" d="M209.5,39.6h0c-7.81,14.72-64.77,13.31-78.32,12.77L129.41,63.6c16,.77,87.16,1.37,80.1-24Z"/><path class="cls-2" d="M160.32,29.08c3,0,43.83-.9,49.18,10.51h0c8.59-16.87-32-21.36-45-21.73h0c-1.25,0-2.71-.09-3.45-.07l-1.91.07-1.78,11.26Z"/></g></g></svg>