<svg xmlns="http://www.w3.org/2000/svg" xmlns:xlink="http://www.w3.org/1999/xlink" viewBox="0 0 226.37 101"><defs><style>.cls-1,.cls-2,.cls-4,.cls-5,.cls-6,.cls-7,.cls-8{fill-rule:evenodd;}.cls-1{fill:url(#GradientFill_1);}.cls-2{fill:url(#GradientFill_2);}.cls-3{fill:url(#GradientFill_3);}.cls-4{fill:url(#GradientFill_4);}.cls-5{fill:url(#GradientFill_5);}.cls-6{fill:url(#GradientFill_2-2);}.cls-7{fill:url(#GradientFill_6);}.cls-8{fill:#0076b4;}</style><linearGradient id="GradientFill_1" x1="103.7" y1="30.06" x2="98.39" y2="55.04" gradientUnits="userSpaceOnUse"><stop offset="0" stop-color="#00b9ef"/><stop offset="0.45" stop-color="#00a0e9"/><stop offset="1" stop-color="#0075c2"/></linearGradient><linearGradient id="GradientFill_2" x1="142.73" y1="47.47" x2="112.01" y2="22.6" gradientUnits="userSpaceOnUse"><stop offset="0" stop-color="#fdd23e"/><stop offset="0.36" stop-color="#f5a200"/><stop offset="1" stop-color="#ea5504"/></linearGradient><linearGradient id="GradientFill_3" x1="136.93" y1="15.42" x2="81.73" y2="44.77" gradientUnits="userSpaceOnUse"><stop offset="0" stop-color="#929099"/><stop offset="0.2" stop-color="#b8b6c1"/><stop offset="0.38" stop-color="#e5e4ea"/><stop offset="0.53" stop-color="#e5e4ea"/><stop offset="0.84" stop-color="#b8b6c1"/><stop offset="1" stop-color="#929099"/></linearGradient><linearGradient id="GradientFill_4" x1="102.71" y1="33.82" x2="128.59" y2="-0.52" gradientUnits="userSpaceOnUse"><stop offset="0" stop-color="#e1e300"/><stop offset="0.22" stop-color="#dae000"/><stop offset="0.49" stop-color="#c4d700"/><stop offset="0.77" stop-color="#6fba2c"/><stop offset="1" stop-color="#00a73c"/></linearGradient><linearGradient id="GradientFill_5" x1="107.64" y1="18.56" x2="110.75" y2="31.04" gradientUnits="userSpaceOnUse"><stop offset="0" stop-color="#ea5504"/><stop offset="1" stop-color="#d7000f"/></linearGradient><linearGradient id="GradientFill_2-2" x1="85.95" y1="11.96" x2="105.59" y2="27.86" xlink:href="#GradientFill_2"/><linearGradient id="GradientFill_6" x1="105.65" y1="31.61" x2="102.64" y2="21.75" gradientUnits="userSpaceOnUse"><stop offset="0" stop-color="#0075c2"/><stop offset="1" stop-color="#008cd6"/></linearGradient></defs><g id="레이어_2" data-name="레이어 2"><g id="레이어_2-2" data-name="레이어 2"><path class="cls-1" d="M101.3,17.12h.08a39.14,39.14,0,0,1,5.25,14.47c.29,1.66.43,3.31.58,4.9h0v.14h0v.07h0v.07h0v.08h0v.07h0V37h0v.07h0v.07h0v.08h0v.07h0v.07h0v.07h0v.07h0v.08h0v.07h0v.07h0v.07h0v.07h0v.08h0V38h0v.07h0v.07h0v.07h0v.08h0v.07h0v.07h0l.07.07h0v.07h0v.15h0v.07h0a36.42,36.42,0,0,1-3.38,16.78c-3.75,7.63-14.76,2.37-10.3-7.49,1.3-2.81,4.61-6.84,6.84-10.87,2.59-4.68,5-11.67,1.44-19-.07-.22-.22-.43-.29-.65s-.21-.43-.36-.65h0l.07.22Z"/><path class="cls-2" d="M107,16.47h0l-.07.07v.15h0v.07l-.07.21h0v.29h0l-.07.15v.5l-.08.14v.58l-.07.07v.22h0v.14h0v.07h0v.08h0v.07h0v.14h0v.15h0v.21h0v.07h0v.08h0V20h0v.07h0a6.3,6.3,0,0,0,0,1.15,22,22,0,0,0,5.19,13.18c.14.14.28.36.43.5h0l.07.07h0a3.28,3.28,0,0,1,.43.51h0l.07.07h0l.08.14H113a1.21,1.21,0,0,1,.21.29c.87.94,1.8,1.8,2.74,2.67a48.92,48.92,0,0,0,15.19,8.78c14.47,5.26,20.67-15.12,2.74-16.2-8.28-.5-16.13-.5-22.25-5.83a12.14,12.14,0,0,1-3.82-12.1,11.69,11.69,0,0,0-.64,2.23h0v.08h0v.07h0l-.08.07h0v.14h0V16A.93.93,0,0,0,107,16.47Z"/><path class="cls-3" d="M113,39l-.07.07h0a2.59,2.59,0,0,0-.72.29,1.12,1.12,0,0,0-.36.14.52.52,0,0,0-.29.14h-.07c-.65.29-1.52.58-2.52.94v-2.3c.79-.29,1.44-.51,1.94-.72H111a2.77,2.77,0,0,1,.51-.22h0c.14-.07.36-.14.5-.22h0l.58-.21h0a1.85,1.85,0,0,0,.5-.29c11.59-5,17.93-11.66,15.62-15.12h0c-.07-.07-.07-.07-.07-.14l-.07-.08h-.07v-.07h0l-.07-.07h-.08v-.07h0c-2.52-2.52-10.15-2.09-19.36,1.29v-2.3c12.31-4.54,23.76-5.76,27-2.38h0l.07.08h.07c.07.14.14.21.22.36h.07v.07c2.95,4.46-7.27,13.75-22.11,20.23A10.45,10.45,0,0,1,113,39Zm-4,1.58C101.16,43.4,85.68,47.72,82,42.17c-3-4.46,6.62-13.39,21.45-19.94,1.88-.79,3.68-1.51,5.48-2.16v2.3c-1.37.51-2.81,1.08-4.25,1.66C93.17,29.14,86.9,35.12,89.21,38.57c.07.08.07.15.14.15h0c3.17,4.1,14,1.51,19.59-.43Z"/><path class="cls-4" d="M108.86,10.49c-3.38,7.49-3.38,16,3,23.91.57.65,1.08,1.22,1.58,1.8a11.57,11.57,0,0,1-1.66-11.74c1.16-3.17,3.68-5.83,6.27-8.21,2.3-2.16,5.33-3.81,7.56-6C128.88,7.83,128.09,1,121.75.13a8.29,8.29,0,0,0-5.69,1C112.68,3.08,110.38,7,108.86,10.49Z"/><path class="cls-5" d="M107.78,13.3a6.25,6.25,0,0,0-.43,1.51h0c-.07.08-.07.22-.14.36h0a2.26,2.26,0,0,1-.15.72h0v.22H107v.07h0v.22h0l-.07.14v.15a.42.42,0,0,1-.07.28h0v.36l-.07.08h0v.36c0,.14-.08.21-.08.36h0v.36h0c0,.14-.07.21-.07.36h0v.07h0v.21h0v.8h0V20h0v1.15h0v.07h0v.51a6.38,6.38,0,0,0,.15,1.15V23a1.89,1.89,0,0,0,.07.58h0v.21l.07.15V24a.58.58,0,0,0,.07.29v.14l.07.15v.21l.08.22.07.21v.15c0,.07.07.14.07.21v.15c.07.07.07.14.07.29l.07.07c0,.14.08.21.08.29v.07c.07.14.07.21.14.36v.07c.07.07.07.22.14.29h0v.07c0,.07.08.22.08.29l.07.07c0,.07.07.22.07.29l.07.07c0,.14.07.22.07.29l.08.14c.07.07.07.22.14.29v.07c.07.15.14.22.14.29l.08.07a6.83,6.83,0,0,0,.28.72h0a1.76,1.76,0,0,0,.22.36v.07a3.15,3.15,0,0,0,.22.29v.07c.07.15.14.22.21.36h0a27.9,27.9,0,0,0,1.73,2.6h0a1.89,1.89,0,0,0,.29.36V34a1.35,1.35,0,0,1,.29.36h.07v.07H112v.07h0v.07H112v.08h.07v.07h.08v.07h.07v.07h0c.43.43.79.87,1.15,1.3a11.49,11.49,0,0,1-1.94-11,12.11,12.11,0,0,1-3.68-11.95ZM106.63,20v.07h0V20Zm0,0v0Z"/><path class="cls-6" d="M95.33,10.06c6.91,6,10.08,14.11,11.3,21.53.29,1.73.43,3.38.58,5,0,.79,0,1.29.07,2.23A18.78,18.78,0,0,0,99.94,25.4a29,29,0,0,0-10.66-5.55C77.11,17.05,87.12,1.85,95.33,10.06Z"/><path class="cls-7" d="M107.21,38.14h0v-.07h0V38h0v-.07h0v-.08h0v-.07h0v-.07h0v-.07h0v-.07h0v-.08h0v-.07h0v-.07h0v-.07h0v-.07h0v-.08h0v-.07h0V37h0v-.07h0v-.07h0v-.08h0V36.7h0v-.07h0v-.14h0c-.07-.65-.15-1.37-.22-2.09v-.51h-.07v-.14h0a1.47,1.47,0,0,0-.07-.58V33.1h0v-.29h0v-.07l-.07-.07h0V32.6h0v-.07h0v-.08h0v-.07h0v-.07h0l-.08-.07h0v-.07h0v-.29h0l-.07-.15h0v-.07h0v-.07c0-.14-.07-.29-.07-.43h0l-.07-.22v-.36l-.07-.07v-.29l-.08-.07c0-.22-.07-.43-.07-.65l-.07-.07v-.22l-.07-.07v-.07h0v-.29l-.07-.07v-.07l-.08-.22h0l-.07-.36h0l-.07-.29-.07-.14v-.22l-.07-.14h0l-.08-.22h0l-.07-.21v-.22l-.07-.07v-.22l-.07-.14-.07-.14-.08-.29-.07-.15v-.07c0-.14-.07-.21-.07-.29v-.07l-.14-.29v-.07l-.08-.21-.07-.15-.21-.65v-.07a6.21,6.21,0,0,0-.29-.57V23l-.07-.21-.08-.08h0l-.14-.28V22.3l-.14-.21V22h0l-.08-.21h-.07v-.15l-.14-.28h0l-.07-.08-.08-.21-.07-.15-.14-.28v-.08l-.07-.21-.08-.15h0L103,20h0l-.07-.15-.15-.21v-.07l-.14-.29-.07-.07-.15-.29h0l-.14-.29-.07-.07a.35.35,0,0,0-.15-.29h0V18.2h0l-.21-.29v-.07l-.15-.29-.07-.07-.14-.22-.07-.07a.51.51,0,0,1-.15-.29V17a3.42,3.42,0,0,1,.36.58c.07.22.22.43.29.65a18.71,18.71,0,0,1,1.8,7.56,15,15,0,0,1-.29,3.17,17.77,17.77,0,0,1,3.89,9.86h0v-.07h0v-.15h-.07V38.5h0v-.07h0v-.07h0v-.07h0v-.08h0v-.07Z"/><path class="cls-8" d="M23.11,100.64v-3h.58a1.52,1.52,0,1,1,0,3h-.58Zm0-7.06V71.41a1.63,1.63,0,0,1,1.3,1.65v4.39H28a1.79,1.79,0,0,1,1.8,1.8A1.77,1.77,0,0,1,28,81h-3.6V91.85A1.69,1.69,0,0,1,23.11,93.58ZM9.43,85.37l.22-.07h.43l.14-.07h.22l.14-.07.22-.07.14-.08.22-.07.14-.07.15-.14.14-.08.22-.14.14-.07.15-.15.07-.14.14-.14.15-.15.14-.14.07-.22.07-.14.15-.15L13,83l.07-.15.07-.21.08-.22.07-.14v-.22l.07-.21v-.44l.07-.21L13.32,81v-.36l-.07-.21v-.22L13.18,80l-.08-.14L13,79.61,13,79.4l-.07-.15L12.74,79l-.07-.15-.07-.14-.14-.22-.15-.14-.14-.14-.07-.08L12,78l-.14-.14-.22-.15-.14-.07-.15-.07-.14-.15-.22-.07-.14-.07-.22-.07-.14-.07h-.22l-.14-.08H9.43V71a2,2,0,0,1,2,2h0v.93h6.19a1.41,1.41,0,1,1,0,2.81H14.9l.08.15.14.14.07.07.15.15.07.14.14.14.07.15.08.14.07.22.14.14.07.15.08.14.07.14.07.22.07.14.07.15v.21l.08.15.07.21v.15l.07.14v.22l.07.14v.58l.07.21v.36l-.07.15v.57l-.07.15v.36l-.07.21-.07.15v.14l-.08.22-.07.14-.07.15v.21l-.07.15-.07.14-.15.14-.07.15-.07.21-.07.15-.08.14-.07.15-.14.14-.07.14-.15.08-.07.14-.14.14-.08.15-.14.14-.07.07-.15.15-.14.14-.14.07-.08.15-.14.07-.14.14-.15.08-.14.14-.15.07-.14.07-.14.15-.15.07-.14.07-.15.07-.14.08-.22.07-.14.07-.14.07-.15.07-.21.08-.15.07h-.21l-.15.07h-.14l-.22.07h-.14l-.22.07h-.36l-.14.08H9.43v-3Zm13.68-14V93.58a.54.54,0,0,1-.36.07A1.75,1.75,0,0,1,21,91.93V73.06a1.76,1.76,0,0,1,1.73-1.73c.15,0,.29,0,.36.08Zm0,26.2H10.44V91.35h0a1.71,1.71,0,0,0-1-1.58v10.87H23.11ZM5.54,81.2v.21l.08.22v.43l.07.22.07.14.07.22.07.21L6,83l.07.21.07.15.14.14.08.22.14.14.14.15.08.14.14.14.14.15.15.07.14.14.22.08.14.14.15.07L8,85l.15.08.21.07.15.07h.21l.15.07h.43l.14.07h0v3h-.5l-.22-.08H8.35l-.14-.07H8l-.14-.07H7.7L7.49,88H7.34L7.2,88,7,87.89l-.14-.07-.14-.07-.22-.07-.14-.07-.15-.08-.14-.07-.15-.07-.14-.07-.14-.15-.15-.07L5.33,87l-.15-.14L5,86.81l-.14-.14-.15-.07-.14-.15-.07-.07-.15-.14-.14-.15L4.18,86,4,85.88l-.14-.15-.07-.14-.15-.14-.07-.08-.07-.14-.15-.14-.07-.15-.07-.14-.07-.15L3,84.44,3,84.29l-.07-.14L2.81,84l-.07-.15-.08-.21-.07-.15v-.14l-.07-.22L2.45,83v-.15l-.07-.21v-.15l-.08-.21V82l-.07-.22v-.93l.07-.15v-.57l.08-.22v-.14l.07-.15.07-.21v-.15L2.59,79l.07-.15.08-.14.07-.22.07-.14L3,78.25,3,78.1,3.1,78l.14-.22.07-.14.07-.15.15-.14.07-.14L3.74,77,3.82,77,4,76.81,4,76.66H1.37A1.43,1.43,0,0,1,0,75.22a1.37,1.37,0,0,1,1.37-1.37H7.49v-.93h0a1.94,1.94,0,0,1,1.94-2h0v6.12H8.86l-.15.08H8.5l-.15.07-.21.07L8,77.38l-.21.07-.15.15-.14.07-.22.07-.14.15L7,78l-.14.14-.14.08-.08.14-.14.14-.14.22-.08.14L6.12,79l-.07.21L6,79.4l-.08.21-.07.22L5.76,80l-.07.22-.07.22v.43L5.54,81v.22Zm3.89,8.57v10.87H7V91.35a1.71,1.71,0,0,1,1.73-1.73A1.92,1.92,0,0,1,9.43,89.77Z"/><path class="cls-8" d="M80.35,97.61h.51a1.52,1.52,0,1,1,0,3h-.51v-3Zm0-4.53V71.33A1.72,1.72,0,0,1,81.65,73v4.46h3.17a1.77,1.77,0,0,1,1.72,1.8A1.75,1.75,0,0,1,84.82,81H81.65V91.42A1.72,1.72,0,0,1,80.35,93.08Zm-16.13,7.56V91.42A1.72,1.72,0,0,1,66,89.62a1.77,1.77,0,0,1,1.73,1.8v6.19H80.35v3ZM80.35,71.33a3.29,3.29,0,0,1-.36-.07A1.76,1.76,0,0,0,78.26,73V91.42A1.76,1.76,0,0,0,80,93.15a3.29,3.29,0,0,1,.36-.07V71.33ZM75.17,85.59a1.52,1.52,0,0,1,.72,1.3,1.48,1.48,0,0,1-1.51,1.51,1.16,1.16,0,0,1-.72-.22v.07L73.22,88l-.28-.15-.22-.14-.22-.22-.28-.14L72,87.1l-.29-.21-.21-.15-.29-.29L71,86.24,70.7,86l-.28-.21-.22-.29L70,85.3,69.7,85l-.22-.21-.14-.15-.08-.14-.14-.14L69,84.22l-.08-.14L68.76,84l-.07-.15-.15-.14-.07-.15-.14-.14-.07-.14-.15-.15L68,83,68,82.85l-.15-.14-.07-.14-.07-.15-.14-.14-.08-.15L67.39,82l-.07-.14-.07-.15-.07-.14-.08-.15L67,81.27,67,81.13l-.07-.08v.08l-.07.14-.08.14-.07.15-.07.14-.07.15-.07.14-.08.14-.14.15-.07.21-.07.15-.08.14-.14.15-.07.14-.07.14-.15.15-.07.14-.14.15-.08.14-.14.14-.07.15-.15.14-.07.15-.14.14-.15.14-.07.15-.14.14-.22.29-.29.29-.21.21-.22.29-.29.22-.28.29-.22.21-.29.22-.21.21-.29.22-.22.22-.29.21-.21.15-.22.14-.29.14-.28.22a.23.23,0,0,0-.15.07h0a2.12,2.12,0,0,1-.65.15A1.48,1.48,0,0,1,58,87.17,1.5,1.5,0,0,1,58.68,86h0l.36-.29.14-.14.15-.07.14-.15.15-.14.14-.07.22-.15.14-.14.14-.15.15-.07.14-.14.07-.15.15-.14.14-.14.15-.15.14-.14.14-.15.15-.14.14-.14.15-.15.07-.14.14-.22.15-.14.14-.15.07-.14.15-.14.14-.22.07-.14.15-.15.07-.21.14-.15.07-.14.15-.29.14-.29.15-.21.14-.29.14-.22.08-.29.14-.21.07-.29.07-.22.08-.28.14-.22.07-.29v-.21l.07-.29.08-.22.07-.29v-.21l.07-.29v-.22l.07-.28v-.51l.07-.29v-2h0a2,2,0,0,1,2-2,1.94,1.94,0,0,1,1.94,2v.5c0,.87.07.94.07,1.73l.08.29v.5l.07.29v.22l.07.28v.22l.07.29.07.21.08.29.07.22.07.29.07.21.07.22.15.29.07.21.14.29.08.22.14.28.14.22.15.29.14.21.15.15.07.14.14.22.07.14.15.15.07.14.14.14.15.15.07.14.14.22.15.14.14.15.15.14.07.14.14.15.15.14.14.07.14.15.15.14.14.15.15.14.14.14.14.08.15.14.14.14.15.15.14.07.14.14.15.08.14.14.22.14.36.22Z"/><path class="cls-8" d="M164,99.2V73a1.69,1.69,0,0,1,1.72-1.66A1.63,1.63,0,0,1,167.4,73V99.27a1.65,1.65,0,0,1-1.66,1.73A1.75,1.75,0,0,1,164,99.27V99.2Zm-3.82-9.43a1.49,1.49,0,0,1-.72,2.8,1.7,1.7,0,0,1-1-.36l-.29-.21-.21-.15-.22-.21-.29-.15-.21-.21L157,91l-.22-.22-.28-.21-.08-.15-.14-.14-.14-.14L156,90l-.07-.14-.14-.15-.15-.14-.07-.07-.14-.15-.15-.14-.07-.22-.14-.14-.15-.14-.07-.15-.14-.14-.15-.15-.07-.14L154.3,88l-.08-.15-.14-.21-.07-.15-.15-.14-.07-.15-.14-.14-.07-.22-.15-.14-.07-.14-.14-.15-.08-.21-.07-.15-.14-.14-.07-.22-.08-.14-.07-.15-.14-.14L152.5,85l-.08-.14-.07-.14-.07-.22-.07-.14-.07-.15-.08-.14v-.15l-.07.15-.07.14-.07.15-.07.14-.08.22-.07.14-.07.14-.07.22-.07.14-.15.15-.07.14-.07.22L151,86l-.07.15-.07.21-.14.15-.08.14-.07.14-.14.22-.07.14-.15.15-.07.14-.14.15-.08.21-.14.15-.14.14-.08.14-.14.15-.14.14-.08.15-.14.14-.14.22-.08.14-.14.14-.14.15-.08.07-.14.14-.14.15-.08.14-.14.15-.14.14-.15.14-.07.15-.29.21-.21.22-.29.29-.22.14-.21.22-.29.21-.22.15-.29.21a1.32,1.32,0,0,1-.93.36,1.51,1.51,0,0,1-1.51-1.51,1.48,1.48,0,0,1,.72-1.29l.36-.29.14-.15.14-.14.22-.14.14-.22.15-.14.14-.15.22-.14.14-.15.15-.21.14-.15.14-.14.15-.22.21-.14.15-.22.14-.14.15-.22.07-.14.14-.22.15-.14.14-.22.14-.14.15-.22.07-.14.14-.22.15-.21L148,85l.14-.21.08-.15.14-.21.07-.22.15-.14.14-.29.07-.22.15-.28.07-.22.14-.29.07-.21.08-.29.14-.22.07-.21.07-.29.08-.22.07-.29.07-.21v-.29l.07-.22.07-.28v-.22l.08-.29.07-.21v-.51l.07-.29V78l.07-.29V76.09h-4.53a1.52,1.52,0,1,1,0-3h12.67a1.52,1.52,0,0,1,1.51,1.51,1.56,1.56,0,0,1-1.66,1.52h-4.32v1.44l.08.21v.79l.07.29V79l.07.29v.21l.07.29v.22l.07.28.08.22.07.29.07.21v.29l.07.22.15.29.07.21.07.22.07.29.15.21.07.29.07.22.14.28.15.22.14.29.07.14.08.22.14.21.07.15.15.21.14.15.07.21.15.22.14.14.07.22.15.14.14.22.14.14.15.22.14.14.15.22.14.14.14.22.15.14.14.22.15.14.14.15.14.21.22.15.14.14.15.15.14.14.22.22.14.14.15.14.21.15Z"/><path class="cls-8" d="M184,77.89a1.8,1.8,0,0,1,.58,1.29h0v4.18h5.25V74.93H184V71.84h9.36V83.36h3.24a1.55,1.55,0,0,1,0,3.09H184V77.89ZM184,101V98.12h.43l.29-.07H185l.21-.08h.22l.22-.07.21-.07.22-.07.14-.07.22-.08.21-.14.15-.07.21-.07.15-.15.14-.14.15-.15.14-.07.14-.14.15-.15.07-.21.14-.15.08-.14.14-.14.07-.22.07-.14.08-.22.07-.14V95l.07-.22v-.79l-.07-.14v-.22l-.07-.21-.08-.15-.07-.21-.07-.15-.14-.14-.08-.22-.14-.14-.07-.15-.15-.14-.14-.14-.14-.15-.15-.14-.14-.07-.15-.15-.21-.14-.15-.07-.21-.08-.22-.14-.14-.07-.22-.07-.21-.08-.22-.07h-.22l-.21-.07h-.22l-.29-.07H184V87.68h1l.14.07h.44l.14.07H186l.21.07h.15l.21.08.15.07.21.07h.15l.21.07.15.07.21.08.15.07.21.07.15.07.14.07.14.15.22.07.14.07.15.07.14.15.15.07.14.14.14.08.15.14.29.22.21.21.29.29.22.22.21.28.15.29.21.29.15.29.14.14.07.15.07.14v.22l.08.14.07.14.07.15v.21l.07.15v.21l.07.15v.5l.08.22v.36l-.08.14v.58l-.07.14v.22l-.07.14v.15l-.07.21-.07.15-.08.14v.14l-.07.22-.07.14-.14.15-.15.29-.21.28-.15.29-.21.29-.22.22-.29.28-.21.22-.29.22-.15.14-.14.07-.14.15-.15.07-.14.07-.15.14-.14.08-.22.07-.14.07-.14.14-.15.08-.21.07-.15.07-.21.07-.15.07h-.21l-.15.08-.21.07-.15.07-.21.07h-.15l-.21.07h-.22l-.14.08h-.44L185,101h-1Zm-3-17.64V79.18a1.78,1.78,0,0,1,1.8-1.8,1.73,1.73,0,0,1,1.22.51v8.56H171.22a1.55,1.55,0,1,1,0-3.09Zm3-8.43H175a1.48,1.48,0,0,1-1.58-1.51A1.55,1.55,0,0,1,175,71.84H184v3.09Zm0,12.75v2.88h-.5l-.22.07h-.21l-.22.07h-.22l-.21.07-.22.08-.21.07-.15.07-.21.14-.22.08-.14.07-.15.14-.21.15-.15.07-.14.14-.15.15-.14.14-.14.14-.08.15-.14.14-.07.22-.07.14-.15.15-.07.21v.15l-.07.21-.07.22V95l.07.22.07.14v.22l.07.14.15.22.07.14.07.14.14.22.08.14.14.15.14.14.15.07.14.15.15.14.21.15.15.07.14.07.22.14.21.08.15.07.21.07.22.07.21.07h.22l.22.08h.21l.22.07h.5V101h-1l-.14-.07h-.43l-.15-.08h-.21l-.22-.07h-.14l-.22-.07-.14-.07-.22-.07-.14-.08h-.22l-.14-.07-.22-.07-.14-.07-.15-.07-.21-.15-.15-.07-.14-.07-.14-.07-.15-.08-.21-.14-.15-.07-.14-.07-.15-.15-.14-.07-.14-.14-.22-.22-.29-.22-.21-.28-.29-.22-.15-.29-.21-.29-.22-.28-.14-.29-.07-.15-.08-.14-.07-.22-.07-.14-.07-.14-.07-.15v-.21l-.08-.15V95.6l-.07-.22v-.14L176,95V93.58l.07-.14v-.15l.07-.21v-.15l.08-.14v-.22l.07-.14.07-.14.07-.22.07-.14.08-.15.07-.14.14-.29.22-.29.21-.29.15-.28.29-.22.21-.29.29-.21.22-.22.14-.14.14-.08.15-.14.14-.07.15-.15.21-.07.15-.07.14-.07.14-.15.15-.07.21-.07.15-.07.14-.07.22-.08.14-.07.22-.07h.14l.22-.07.14-.07h.22l.14-.08.22-.07h.21l.15-.07h.43l.14-.07h1Z"/><path class="cls-8" d="M49,83.36V74.93H34.78a1.54,1.54,0,0,1-1.66-1.51,1.6,1.6,0,0,1,1.58-1.58H52.42V83.36h3.24a1.48,1.48,0,0,1,1.51,1.51,1.54,1.54,0,0,1-1.51,1.58H45.14v2.88h7.64v9.94a1.73,1.73,0,0,1-3.46,0h0V92.43H34.2a1.48,1.48,0,0,1-1.51-1.51,1.54,1.54,0,0,1,1.51-1.59h7.2V86.45H31a1.6,1.6,0,0,1-1.58-1.58A1.54,1.54,0,0,1,31,83.36Z"/><path class="cls-8" d="M129.38,97.61h7.78a1.52,1.52,0,0,1,0,3h-7.78v-3Zm0-11.08v-3.1h4.83V73a1.69,1.69,0,0,1,1.73-1.66A1.63,1.63,0,0,1,137.59,73v4.46h3.1a1.78,1.78,0,0,1,1.73,1.8A1.76,1.76,0,0,1,140.69,81h-3.1V91.42a1.69,1.69,0,0,1-3.38,0V86.53Zm0-11.81a1.59,1.59,0,0,0,.72-1.3,1.4,1.4,0,0,0-.72-1.29Zm-9.28,25.92V91.42a1.76,1.76,0,1,1,3.52,0v6.19h5.76v3Zm9.28-28.51v2.59a1.46,1.46,0,0,1-.79.21H120.1v8.5h9.28v3.1H116.71V71.84h11.88A1.43,1.43,0,0,1,129.38,72.13Z"/><path class="cls-8" d="M213.34,97.61H221a1.52,1.52,0,1,1,0,3h-7.7v-3Zm0-11.08v-3.1h4.75V73a1.73,1.73,0,0,1,3.45,0v4.46h3a1.79,1.79,0,0,1,1.8,1.8,1.77,1.77,0,0,1-1.8,1.73h-3c0,3.6-.07,6.77,0,10.44a1.73,1.73,0,0,1-3.45,0V86.53Zm0-11.81a1.62,1.62,0,0,0,.72-1.3,1.42,1.42,0,0,0-.72-1.29Zm-9.29,25.92V91.42a1.77,1.77,0,0,1,1.73-1.8,1.72,1.72,0,0,1,1.72,1.8v6.19h5.84v3Zm9.29-28.51v2.59a2,2,0,0,1-.87.21h-8.42v8.5h9.29v3.1H200.59V71.84h11.88A2,2,0,0,1,213.34,72.13Z"/><path class="cls-8" d="M102.38,91.21h5.33V80.77h-4.53l-.08.36-.07.36-.14.36-.15.36-.14.36-.22.28h0v-7h0l.22.36.14.29.15.36.14.36.07.28h4.61V73a1.73,1.73,0,0,1,3.46,0v27.65h-8.79v-3h5.33V94.16h-5.33ZM95.69,88a1.71,1.71,0,0,1,1.37,1.72v1.52h5.32v3H97.06v3.45h5.32v3H95.69V88Zm6.69-5.12-.14.29-.22.36-.21.29-.22.29-.29.21-.21.29-.29.22-.29.21-.29.22-.28.22-.29.21-.36.22L99,86l-.36.15-.36.14-.36.14-.36.08-.36.07-.36.07-.43.07h-.72v-3h.65l.21-.07.15-.08h.21l.22-.07.21-.07.22-.14.14-.08.22-.14.14-.07.15-.15.21-.14.15-.14.14-.15.15-.14.14-.15.14-.14.08-.22.14-.14.07-.22.15-.14.07-.22.07-.21.07-.22.07-.21.08-.22V80l.07-.21v-.87l-.07-.21v-.22l-.08-.21L99.79,78l-.07-.22-.07-.14-.07-.22-.15-.21L99.36,77l-.14-.14-.08-.15L99,76.52l-.14-.15-.15-.14-.14-.14-.15-.15-.21-.14-.15-.07-.14-.15-.22-.14-.14-.07-.22-.08-.21-.07-.22-.07-.21-.07L96.55,75h-.21l-.22-.08h-.43v-3h.36l.36.07h.43l.36.07.36.08.36.14.36.07.36.15.36.14.29.22.36.14.29.22.28.21.29.22.29.21.29.22.21.29.29.29.22.28.21.29.22.29.14.29Zm-7,5.12h.36v12.67h-2v-11A1.69,1.69,0,0,1,95.33,88Zm.36-1.23H94.9l-.44-.07-.36-.07-.36-.07-.36-.08L93,86.31l-.36-.14L92.38,86,92,85.88l-.36-.22-.29-.21-.29-.22L90.79,85l-.29-.21-.28-.22L90,84.29l-.29-.21-.21-.29-.22-.29-.22-.36-.14-.29-.22-.28-.14-.36-.14-.36-.08-.36-.14-.36-.07-.36-.07-.36L88,80.05V78.61l.08-.36.07-.36.07-.36.14-.36.08-.36.14-.36.14-.29.22-.36.14-.29.22-.29.22-.29.21-.28.29-.29.22-.29.28-.22.29-.21.29-.22.29-.21.29-.22.36-.14.36-.22.28-.14.36-.15.36-.07.36-.14.36-.08.36-.07h.44l.36-.07h.43v3h-.51L95,75h-.15l-.21.07-.22.07-.21.07-.22.07-.14.08-.22.07-.22.14-.14.15-.14.07-.22.14-.14.15-.15.14-.14.14-.15.15-.14.21-.07.15-.15.14-.07.22-.14.21-.07.22-.08.14-.07.22-.07.22-.07.21v.43l-.07.22v.43l.07.22v.43l.07.22.07.21.07.22.08.21.07.22.14.14.07.22.15.14.07.22.14.14.15.15.14.14.15.15.14.14.22.14.14.15.14.07.22.14.22.08.14.14.22.07.21.07h.22l.21.08.15.07h.72Z"/></g></g></svg>