<svg xmlns="http://www.w3.org/2000/svg" viewBox="0 0 145.03 58"><defs><style>.cls-1{fill:#4b717b;}.cls-2{fill:#a6b456;}.cls-3{fill:#a52324;}.cls-4{fill:#8e1d22;}.cls-5{fill:#fff;}</style></defs><g id="레이어_2" data-name="레이어 2"><g id="레이어_2-2" data-name="레이어 2"><polygon class="cls-1" points="41.48 17.45 31.11 11.07 31.11 58 41.48 51.62 41.48 17.45"/><polygon class="cls-2" points="0 12.84 0 51.8 17.63 47.41 17.63 18.36 0 12.84"/><polygon class="cls-3" points="9.33 11.56 9.33 42.19 28 46.05 28 0 9.33 11.56"/><polygon class="cls-4" points="9.33 15.76 9.33 42.19 17.63 43.9 17.63 18.36 9.33 15.76"/><path class="cls-5" d="M53.93,5.76h3v5.68l4.26-5.68h3.57l-4.89,6,5.28,7H61.35l-4.45-6.2v6.2h-3v-13Z"/><path class="cls-5" d="M71.31,5.53c4,0,6.92,2.59,6.92,6.74A6.62,6.62,0,0,1,71.31,19c-4,0-6.92-2.59-6.92-6.74A6.6,6.6,0,0,1,71.31,5.53Zm0,10.68a3.62,3.62,0,0,0,3.76-3.94,3.76,3.76,0,1,0-7.52,0A3.82,3.82,0,0,0,71.31,16.21Z"/><path class="cls-5" d="M91.35,5.76h7.72V8.55H94.32v2.29h4.19v2.79H94.32V16h4.93v2.79H91.34v-13Z"/><path class="cls-5" d="M105.67,5.76h2.66l5.42,13h-3.18l-1.08-2.74h-5.15l-1.08,2.74h-3Zm-.22,7.5h2.92l-1.45-3.68Z"/><path class="cls-5" d="M79.58,18.76v-13H84c3.55,0,4.82,1.73,4.82,4.13a3.93,3.93,0,0,1-2.2,3.76l3.8,5.14H86.82l-3.16-4.56h-1.1v4.56h-3Zm4-10.23H82.55v2.88h1.08c1.14,0,2-.34,2-1.44S84.77,8.53,83.63,8.53Z"/><path class="cls-5" d="M81.81,23.38c4,0,6.92,2.59,6.92,6.74a6.62,6.62,0,0,1-6.92,6.74c-4,0-6.92-2.59-6.92-6.74A6.6,6.6,0,0,1,81.81,23.38Zm0,10.68a3.62,3.62,0,0,0,3.76-3.94,3.76,3.76,0,1,0-7.52,0A3.82,3.82,0,0,0,81.81,34.06Z"/><path class="cls-5" d="M100.43,23.61h10.79V26.4h-3.91V36.63h-3V26.4h-3.91V23.61Z"/><path class="cls-5" d="M112.83,23.61h7.72V26.4H115.8v2.29H120v2.79H115.8v2.36h4.93v2.79h-7.91v-13Z"/><path class="cls-5" d="M132.93,35.35a6,6,0,0,1-4.24,1.51,6.43,6.43,0,0,1-6.83-6.74c0-3.74,2.33-6.74,6.81-6.74a5.86,5.86,0,0,1,4,1.36L131.33,27a4.64,4.64,0,0,0-2.66-.8A3.58,3.58,0,0,0,125,30.11a3.77,3.77,0,0,0,4,3.94,4.81,4.81,0,0,0,2.83-.95Z"/><path class="cls-5" d="M142.05,31.38H137.3v5.25h-3v-13h3v5h4.75v-5h3v13h-3Z"/><path class="cls-5" d="M64.45,28.57v-5h4.43c3.54,0,4.82,1.73,4.82,4.13a3.93,3.93,0,0,1-2.2,3.76l3.8,5.14H71.69l-3.16-4.56h-1.1v4.56h-3v-8m4-2.19H67.42v2.88H68.5c1.14,0,2-.34,2-1.44S69.64,26.38,68.5,26.38Z"/><path class="cls-5" d="M58.35,23.61H53.92v13h3V32.08h1.45c3.55,0,4.82-1.83,4.82-4.23h0C63.17,25.44,61.9,23.61,58.35,23.61ZM56.9,26.4H58c1.14,0,2,.34,2,1.44s-.89,1.44-2,1.44H56.9Z"/><path class="cls-5" d="M94.51,23.61H90.08v13h3V32.08h1.45c3.55,0,4.82-1.83,4.82-4.23h0C99.33,25.44,98.06,23.61,94.51,23.61ZM93.06,26.4h1.08c1.14,0,2,.34,2,1.44s-.89,1.44-2,1.44H93.06Z"/><path class="cls-5" d="M53.93,41.21h7.19v1.46H55.48v4.51h5.09v1.46H55.48V54H53.93Z"/><path class="cls-5" d="M68.92,41a6.55,6.55,0,0,1,0,13.1,6.55,6.55,0,0,1,0-13.1Zm0,11.64a4.81,4.81,0,0,0,4.86-5.09,4.87,4.87,0,1,0-4.86,5.09Z"/><path class="cls-5" d="M77.28,54V41.21H80.7c3.44,0,4.53,1.69,4.53,3.75a3.65,3.65,0,0,1-2.76,3.6l4.24,5.38h-1.9L80.9,48.85H78.83v5.09H77.28Zm1.55-6.55H80.7c2,0,2.89-.86,2.89-2.36h0c0-1.51-.93-2.37-2.89-2.37H78.83Z"/><path class="cls-5" d="M97.73,48.64c0,3.89-2.33,5.47-4.93,5.47-3.06,0-5.28-1.87-5.28-5.6V41.22h1.55v7c0,2.76,1.35,4.44,3.73,4.44,2.09,0,3.38-1.44,3.38-4.33V41.22h1.55Z"/><path class="cls-5" d="M99.9,41.21h1.56l4.78,6.53,4.58-6.53h1.47V53.94h-1.55V43.64L106.23,50H106l-4.57-6.28V53.93H99.89V41.21Z"/></g></g></svg>