<?xml version="1.0" encoding="utf-8"?>
<!-- Generator: Adobe Illustrator 23.1.1, SVG Export Plug-In . SVG Version: 6.00 Build 0)  -->
<svg version="1.1" id="Layer_1" xmlns="http://www.w3.org/2000/svg" xmlns:xlink="http://www.w3.org/1999/xlink" x="0px" y="0px"
	 viewBox="0 0 145 58" style="enable-background:new 0 0 145 58;" xml:space="preserve">
<style type="text/css">
	.st0{fill:#4C737D;}
	.st1{fill:#ABBA56;}
	.st2{fill:#AE1F23;}
	.st3{fill:#951B1E;}
	.st4{fill:#231F20;}
</style>
<polygon class="st0" points="41.47,17.45 31.1,11.07 31.1,58 41.47,51.62 "/>
<g>
	<polygon class="st1" points="-0.01,12.84 -0.01,51.8 17.62,47.41 17.62,18.36 	"/>
	<polygon class="st2" points="9.32,11.56 9.32,42.19 27.99,46.05 27.99,0 	"/>
	<polygon class="st3" points="9.32,15.76 9.32,42.19 17.62,43.9 17.62,18.36 	"/>
</g>
<g>
	<path class="st4" d="M53.92,5.76h2.98v5.68l4.26-5.68h3.57l-4.89,6.01l5.28,7.02h-3.78l-4.45-6.2v6.2h-2.98V5.76z"/>
	<path class="st4" d="M71.3,5.53c3.96,0,6.92,2.59,6.92,6.74c0,3.94-2.96,6.74-6.92,6.74c-3.96,0-6.92-2.59-6.92-6.74
		C64.38,8.49,67.15,5.53,71.3,5.53z M71.3,16.21c2.47,0,3.76-1.75,3.76-3.94c0-2.38-1.66-3.94-3.76-3.94
		c-2.16,0-3.76,1.56-3.76,3.94C67.54,14.5,69.22,16.21,71.3,16.21z"/>
	<path class="st4" d="M91.34,5.76h7.72v2.79h-4.75v2.29h4.19v2.79h-4.19v2.36h4.93v2.79h-7.91V5.76z"/>
	<path class="st4" d="M105.66,5.76h2.66l5.42,13.03h-3.18l-1.08-2.74h-5.15l-1.08,2.74h-3L105.66,5.76z M105.44,13.26h2.92
		l-1.45-3.68L105.44,13.26z"/>
	<path class="st4" d="M79.57,18.76V5.74l4.43,0c3.55,0,4.82,1.73,4.82,4.13c0,2.42-1.49,3.41-2.2,3.76l3.8,5.14h-3.61l-3.16-4.56
		h-1.1v4.56H79.57z M83.62,8.53h-1.08v2.88h1.08c1.14,0,2.03-0.34,2.03-1.44C85.65,8.87,84.76,8.53,83.62,8.53z"/>
</g>
<g>
	<path class="st4" d="M81.8,23.38c3.96,0,6.92,2.59,6.92,6.74c0,3.94-2.96,6.74-6.92,6.74c-3.96,0-6.92-2.59-6.92-6.74
		C74.88,26.34,77.65,23.38,81.8,23.38z M81.8,34.06c2.47,0,3.76-1.75,3.76-3.94c0-2.38-1.66-3.94-3.76-3.94
		c-2.16,0-3.76,1.56-3.76,3.94C78.04,32.35,79.72,34.06,81.8,34.06z"/>
	<path class="st4" d="M100.42,23.61h10.79v2.79h-3.91v10.23h-2.98V26.4h-3.91V23.61z"/>
	<path class="st4" d="M112.82,23.61h7.72v2.79h-4.75v2.29h4.19v2.79h-4.19v2.36h4.93v2.79h-7.91V23.61z"/>
	<path class="st4" d="M132.92,35.35c-0.78,0.87-2.48,1.51-4.24,1.51c-4.04,0-6.83-2.68-6.83-6.74c0-3.74,2.33-6.74,6.81-6.74
		c1.73,0,3.2,0.6,3.98,1.36l-1.32,2.23c-0.71-0.43-1.43-0.8-2.66-0.8c-2.01,0-3.65,1.38-3.65,3.94c0,2.31,1.6,3.94,3.95,3.94
		c0.93,0,1.95-0.3,2.83-0.95L132.92,35.35z"/>
	<path class="st4" d="M142.04,31.38h-4.75v5.25h-2.98V23.61h2.98v4.99h4.75v-4.99h2.98v13.03h-2.98V31.38z"/>
	<path class="st4" d="M64.44,28.57v-4.98l4.43,0c3.54,0,4.82,1.73,4.82,4.13c0,2.42-1.49,3.41-2.2,3.76l3.8,5.14h-3.61l-3.16-4.56
		h-1.1v4.56h-2.98V28.57 M68.49,26.38h-1.08v2.88h1.08c1.14,0,2.03-0.34,2.03-1.44C70.52,26.72,69.63,26.38,68.49,26.38z"/>
	<path class="st4" d="M58.34,23.61l-4.43,0v13.03h2.98v-4.56c0,0,1.44,0,1.45,0c3.55,0,4.82-1.83,4.82-4.23v0
		C63.16,25.44,61.89,23.61,58.34,23.61z M56.89,26.4h1.08c1.14,0,2.03,0.34,2.03,1.44c0,1.1-0.89,1.44-2.03,1.44h-1.08V26.4z"/>
	<path class="st4" d="M94.5,23.61l-4.43,0v13.03h2.98v-4.56c0,0,1.44,0,1.45,0c3.55,0,4.82-1.83,4.82-4.23v0
		C99.32,25.44,98.05,23.61,94.5,23.61z M93.05,26.4h1.08c1.14,0,2.03,0.34,2.03,1.44c0,1.1-0.89,1.44-2.03,1.44h-1.08V26.4z"/>
</g>
<g>
	<path class="st4" d="M53.92,41.21h7.19v1.46h-5.64v4.51h5.09v1.46h-5.09v5.31h-1.55V41.21z"/>
	<path class="st4" d="M68.91,41.03c3.69,0,6.49,2.67,6.49,6.55c0,3.78-2.8,6.55-6.49,6.55c-3.69,0-6.49-2.67-6.49-6.55
		C62.42,43.89,65.13,41.03,68.91,41.03z M68.91,52.67c2.91,0,4.86-2.22,4.86-5.09c0-2.96-2.13-5.09-4.86-5.09
		c-2.76,0-4.86,2.13-4.86,5.09C64.05,50.47,66.18,52.67,68.91,52.67z"/>
	<path class="st4" d="M77.27,53.95V41.21l3.42,0c3.44,0,4.53,1.69,4.53,3.75c0,1.98-1.36,3.24-2.76,3.6l4.24,5.38H84.8l-3.91-5.09
		h-2.07v5.09H77.27z M78.82,47.4h1.87c1.96,0,2.89-0.86,2.89-2.36v0c0-1.51-0.93-2.37-2.89-2.37h-1.87V47.4z"/>
	<path class="st4" d="M97.72,48.64c0,3.89-2.33,5.47-4.93,5.47c-3.06,0-5.28-1.87-5.28-5.6v-7.29h1.55v7c0,2.76,1.35,4.44,3.73,4.44
		c2.09,0,3.38-1.44,3.38-4.33v-7.11h1.55V48.64z"/>
	<path class="st4" d="M99.89,41.21h1.56l4.78,6.53l4.58-6.53h1.47v12.73h-1.55v-10.3l-4.51,6.33H106l-4.57-6.28v10.24h-1.55V41.21z"
		/>
</g>
</svg>
