<svg xmlns="http://www.w3.org/2000/svg" viewBox="0 0 420.77 118.6"><defs><style>.cls-1{fill:#727171;}.cls-2{fill:#3091d0;}.cls-3{fill:#004e80;}</style></defs><g id="레이어_2" data-name="레이어 2"><g id="레이어_2-2" data-name="레이어 2"><path class="cls-1" d="M39.12,54.58V50.89H32.38V42.7H27.07A11,11,0,0,1,27.88,47v22.9h4.5V54.58Z"/><polygon class="cls-1" points="41.03 64.56 58.13 64.56 58.13 71.56 62.62 71.56 62.62 64.56 79.72 64.56 79.72 60.92 41.03 60.92 41.03 64.56"/><path class="cls-1" d="M108.5,42.7a10.87,10.87,0,0,1,.82,4.31v3.88h-6.66l.22,3.69h6.44V69.91h4.49V42.7Z"/><path class="cls-1" d="M48.25,74.92H67.83v11.4h4.09a26.7,26.7,0,0,0,.41-4.86V71.23H48.25Z"/><path class="cls-1" d="M95,45.13v-2h-5c.18.77.31,1.44.4,2Z"/><path class="cls-1" d="M225.31,50.26h4.36V46.61h-9.86V43.15h-5a12.92,12.92,0,0,1,.45,2.79v.67h-9.85v3.65h4.36"/><path class="cls-1" d="M67.79,53.58a26.59,26.59,0,0,1-.81,6h3.88a17.68,17.68,0,0,0,1.43-6.93V45H48.23v3.64H67.79Z"/><path class="cls-1" d="M22.48,50.26v-3.7h-9V43.15h-5A12.57,12.57,0,0,1,9,45.94v.62H0v3.7H22.48Z"/><path class="cls-1" d="M13.27,72.47H8a11.35,11.35,0,0,1,.81,4.32v9.08H32.15V82.19H13.27Z"/><path class="cls-1" d="M94.75,72.47H89.44a11.35,11.35,0,0,1,.81,4.32v9.08h23.38V82.19H94.75Z"/><path class="cls-1" d="M132.24,72.47h-5.31a11.32,11.32,0,0,1,.8,4.32v9.08h23.39V82.19H132.24Z"/><path class="cls-1" d="M175.05,72.47h-5.3a11.35,11.35,0,0,1,.81,4.32v9.08h23.38V82.19H175.05Z"/><rect class="cls-1" x="198.62" y="63.79" width="37.82" height="3.64"/><path class="cls-1" d="M270.12,42.7a11,11,0,0,1,.8,4.31v3.88h-2.69V42.7h-5.31a10.84,10.84,0,0,1,.81,4.31v22.9h4.5V54.58h2.69V69.91h4.5V42.7Z"/><path class="cls-1" d="M252.75,48.82v-.27h7.16V44.86H241v3.69h7.15v.27c0,3.82-3.65,7.82-9.22,10.39l2.88,2.34a21.09,21.09,0,0,0,8.63-6,21.14,21.14,0,0,0,8.68,6L262,59.21C256.4,56.64,252.75,52.64,252.75,48.82Z"/><path class="cls-1" d="M304,59.88V56.64a52.2,52.2,0,0,1-7.2.54H286V48.55h16.18V44.86h-21.5a10.83,10.83,0,0,1,.81,4.32V59.52a1.42,1.42,0,0,0,1.36,1.3H295.8A30.77,30.77,0,0,0,304,59.88Z"/><path class="cls-1" d="M319.72,54.58V50.89H313V42.7h-5.31a10.84,10.84,0,0,1,.81,4.31v22.9H313V54.58Z"/><path class="cls-1" d="M312.75,82.19H293.86V72.47h-5.3a11.32,11.32,0,0,1,.8,4.32v9.08h23.39Z"/><path class="cls-1" d="M173.45,55.29a24.4,24.4,0,0,0,9.35,6.26l2.88-2.39c-5.66-2.52-10-6.48-10-10.34v-.27h7.61V44.86H163.56v3.69h7.6v.27c0,3.86-4.28,7.82-9.9,10.39l2.88,2.34A24.77,24.77,0,0,0,173.45,55.29Z"/><path class="cls-1" d="M141.54,61.13h9.93V57.49H131.83V54.84h19.41V45H127.11v3.64h19.63v2.56H126.8a18.86,18.86,0,0,1,.54,3.86v4.86a1.4,1.4,0,0,0,1.34,1.26H137V65H120.29v3.64H158.2V65H141.54Z"/><path class="cls-1" d="M188.83,42.7a11,11,0,0,1,.81,4.31v22.9h4.5V42.7Z"/><path class="cls-1" d="M11.06,49.16a9.07,9.07,0,1,0,9.06,9.06A9.07,9.07,0,0,0,11.06,49.16Zm0,14.05a5,5,0,1,1,5-5A5,5,0,0,1,11.06,63.21Z"/><path class="cls-1" d="M217.81,47.19a9.06,9.06,0,1,0,9.06,9.06A9.06,9.06,0,0,0,217.81,47.19Zm0,14.05a5,5,0,1,1,5-5A5,5,0,0,1,217.81,61.24Z"/><path class="cls-1" d="M217.81,69.89A9.07,9.07,0,1,0,226.87,79,9.06,9.06,0,0,0,217.81,69.89Zm0,14a5,5,0,1,1,5-5A5,5,0,0,1,217.81,83.94Z"/><path class="cls-1" d="M92.58,44.85a9.07,9.07,0,1,0,9.06,9.07A9.08,9.08,0,0,0,92.58,44.85Zm0,14.06a5,5,0,1,1,5-5A5,5,0,0,1,92.58,58.91Z"/><path class="cls-2" d="M329.15,26.05a115.79,115.79,0,0,1,12.73,14.73c1.95,2.49,3.76,5,5.38,7.33l4.49-2c5.59-2.53,11.39-5.18,17.15-8l.22-.1c-4.51-4.51-12.91-12.32-22.08-18C341.08,22.2,335.08,24.23,329.15,26.05Z"/><path class="cls-2" d="M405.1,12.44c-7.82-2.22-16.64-5-25-8.23q-6.33,2.94-12.92,5.63l-.5.19c10.34,5.19,19.26,9.08,25.64,11.69A140.6,140.6,0,0,0,405.1,12.44Z"/><path class="cls-1" d="M21.67,99.18H19.5L13.79,107c.24.42,6,10.51,6.25,10.89h2.2L16.08,107Z"/><path class="cls-1" d="M28.27,104.06a4.58,4.58,0,0,0-4.17,2.17,11.29,11.29,0,0,0,0,10.15,4.58,4.58,0,0,0,4.18,2.18,4.56,4.56,0,0,0,4.15-2.19,11.1,11.1,0,0,0,0-10.12A4.56,4.56,0,0,0,28.27,104.06Zm0,12.76c-1.59,0-3.5-.95-3.5-5.52a8.69,8.69,0,0,1,.58-3.36,3,3,0,0,1,5.82,0,8.85,8.85,0,0,1,.58,3.35C31.74,115.87,29.85,116.82,28.26,116.82Z"/><path class="cls-1" d="M48.23,104.06a4.3,4.3,0,0,0-4,2.42,10.66,10.66,0,0,0-1,5.25,9.63,9.63,0,0,0,1.18,4.72,4.18,4.18,0,0,0,3.79,2.11,4.27,4.27,0,0,0,4.18-2.83L51,115.2A3.06,3.06,0,0,1,48.35,117a2.78,2.78,0,0,1-2.44-1.42A7.24,7.24,0,0,1,45,112c0-.11,0-.58,0-.58h8c0-.2,0-.37,0-.65a10.08,10.08,0,0,0-.72-4.12A4.24,4.24,0,0,0,48.23,104.06Zm3.05,6H45l0-.21a6.77,6.77,0,0,1,.73-2.67,2.84,2.84,0,0,1,2.51-1.41,2.64,2.64,0,0,1,2.47,1.56,5.09,5.09,0,0,1,.5,2.32Z"/><path class="cls-1" d="M98.71,104.06a4.3,4.3,0,0,0-4,2.42,10.66,10.66,0,0,0-1,5.25,9.75,9.75,0,0,0,1.17,4.72,4.21,4.21,0,0,0,3.8,2.11,4.28,4.28,0,0,0,4.18-2.83l-1.4-.53A3,3,0,0,1,98.83,117a2.78,2.78,0,0,1-2.44-1.42,7.24,7.24,0,0,1-.88-3.57c0-.11,0-.58,0-.58h8c0-.2,0-.37,0-.65a10.08,10.08,0,0,0-.72-4.12A4.24,4.24,0,0,0,98.71,104.06Zm3.05,6H95.52l0-.21a6.77,6.77,0,0,1,.73-2.67,2.84,2.84,0,0,1,2.51-1.41,2.64,2.64,0,0,1,2.47,1.56,5.09,5.09,0,0,1,.5,2.32Z"/><path class="cls-1" d="M59.77,104a4.44,4.44,0,0,0-4.65,3.14c.05.09.35.2.35.2l1.27.43a3.18,3.18,0,0,1,3.15-2.15c1.56,0,2.46.78,2.47,2.13a2,2,0,0,1-1.24,2l-4,1.57a4,4,0,0,0-2.56,3.7,3.82,3.82,0,0,0,.94,2.61,3.49,3.49,0,0,0,2.64,1,4.65,4.65,0,0,0,4.34-2.19v1.74h1.71l.07-10C64.24,105.39,62.73,104,59.77,104Zm2.6,6.61v1.84c0,2.11-1.34,4.45-3.51,4.55-1.26.06-2-.29-2.34-1.08a2.44,2.44,0,0,1-.17-.9,2.5,2.5,0,0,1,.58-1.65,5.07,5.07,0,0,1,1.86-1.17,16.94,16.94,0,0,0,2.76-1.12ZM55.25,107l0,.1h0A.3.3,0,0,0,55.25,107Z"/><path class="cls-1" d="M194.66,104a4.44,4.44,0,0,0-4.65,3.14c.05.09.36.2.36.2l1.26.43a3.18,3.18,0,0,1,3.15-2.15c1.56,0,2.47.78,2.47,2.13a2,2,0,0,1-1.24,2l-4,1.57a4,4,0,0,0-2.56,3.7,3.82,3.82,0,0,0,.94,2.61,3.49,3.49,0,0,0,2.64,1,4.65,4.65,0,0,0,4.34-2.19v1.74h1.71l.07-10C199.13,105.39,197.62,104,194.66,104Zm2.6,6.61v1.84c0,2.11-1.34,4.45-3.51,4.55-1.26.06-2-.29-2.34-1.08a2.44,2.44,0,0,1-.17-.9,2.55,2.55,0,0,1,.58-1.65,5,5,0,0,1,1.87-1.17,16.62,16.62,0,0,0,2.75-1.12ZM190.15,107a.69.69,0,0,0,0,.1h0A.93.93,0,0,0,190.15,107Z"/><path class="cls-1" d="M147.37,104.06a4.57,4.57,0,0,0-4.16,2.17A9.42,9.42,0,0,0,142,111.3a9.52,9.52,0,0,0,1.2,5.08,5.07,5.07,0,0,0,8.34,0,11.18,11.18,0,0,0,0-10.12A4.56,4.56,0,0,0,147.37,104.06Zm0,12.76c-1.6,0-3.5-.95-3.5-5.52a8.77,8.77,0,0,1,.57-3.36,3.05,3.05,0,0,1,5.83,0,8.84,8.84,0,0,1,.57,3.34C150.84,115.87,149,116.82,147.37,116.82Z"/><path class="cls-1" d="M162.07,112.57c0,2.94-2.15,3.93-3.13,3.93a2.51,2.51,0,0,1-2.38-1.36,5.47,5.47,0,0,1-.33-2.26v-8.6h-1.87v9.33c0,3.17,1.54,4.64,4.2,4.64a3.93,3.93,0,0,0,3.51-1.6v1.25H164V104.28h-1.88Z"/><path class="cls-1" d="M171.42,103.93a4,4,0,0,0-3.52,1.59v-1.24H166V117.9h1.87v-8.29c0-2.94,2.16-3.93,3.14-3.93a2.52,2.52,0,0,1,2.38,1.36,5.59,5.59,0,0,1,.33,2.25v8.61h1.87v-9.34C175.62,105.4,174.08,103.93,171.42,103.93Z"/><path class="cls-1" d="M230.87,103.93a4,4,0,0,0-3.52,1.59v-1.24h-1.87V117.9h1.87v-8.29c0-2.94,2.16-3.93,3.14-3.93a2.51,2.51,0,0,1,2.38,1.36,5.59,5.59,0,0,1,.33,2.25v8.61h1.87v-9.34C235.07,105.4,233.53,103.93,230.87,103.93Z"/><path class="cls-1" d="M205.08,116.84c-.94-.17-1.06-1-1.06-1.71v-9.42h2.64v-1.4H204v-3.75h-1.88v3.75h-1.68v1.4h1.68v10.52c0,1.57.8,2.33,2.45,2.33A8.1,8.1,0,0,0,207,118v-1.46A4.17,4.17,0,0,1,205.08,116.84Z"/><path class="cls-1" d="M209.24,101.36h1.88V99.18h-1.88Z"/><path class="cls-1" d="M209.24,117.93h1.88V104.31h-1.88Z"/><path class="cls-1" d="M218.36,104.06a4.57,4.57,0,0,0-4.17,2.17,11.29,11.29,0,0,0,0,10.15,5.06,5.06,0,0,0,8.33,0,11.1,11.1,0,0,0,0-10.12A4.56,4.56,0,0,0,218.36,104.06Zm0,12.76c-1.6,0-3.5-.95-3.5-5.52a8.54,8.54,0,0,1,.58-3.36,3,3,0,0,1,5.82,0,8.85,8.85,0,0,1,.58,3.35C221.83,115.87,219.94,116.82,218.35,116.82Z"/><path class="cls-1" d="M133.77,100.91h8.32V99.18H131.82v18.75h2v-9.3h6.9v-1.69h-6.9Z"/><path class="cls-1" d="M9.78,117.93h2V99.18h-2Z"/><path class="cls-1" d="M186,105.81a3.89,3.89,0,0,0-3.52-1.75,4.47,4.47,0,0,0-3.92,2.32,9.91,9.91,0,0,0-1.05,4.66,10.74,10.74,0,0,0,1.23,5.33,4.39,4.39,0,0,0,3.5,2.19c2.35,0,3.33-1,3.74-1.63v1h1.89V99.18H186Zm-.5,8.79a2.84,2.84,0,0,1-5.55,0,9.26,9.26,0,0,1-.51-3.28c0-4.54,1.79-5.5,3.28-5.5,2.18,0,3.28,1.85,3.28,5.5A9.51,9.51,0,0,1,185.52,114.6Z"/><path class="cls-1" d="M80.59,99.18H74.32v18.75h1.94v-7.57h4.59c2.36,0,4.74-1.72,4.74-5.56C85.59,102.71,84.94,99.18,80.59,99.18Zm.24,9.46H76.26v-7.73h4.58c1.69,0,2.78,1.45,2.78,3.7C83.62,108.44,81.29,108.64,80.83,108.64Z"/><path class="cls-1" d="M41,103.94a5.64,5.64,0,0,0-4,1.28,5.47,5.47,0,0,0-1.38,4.12v8.57h1.9v-8.44c0-2.41,1.14-3.79,3.11-3.79a3.74,3.74,0,0,1,1.61.34l1.08-1.59A6.76,6.76,0,0,0,41,103.94Z"/><path class="cls-1" d="M91.77,103.94a5.62,5.62,0,0,0-4,1.28,5.47,5.47,0,0,0-1.38,4.12v8.57h1.9v-8.44c0-2.41,1.13-3.79,3.11-3.79A3.74,3.74,0,0,1,93,106c.22-.34.75-1.12,1.07-1.59A6.7,6.7,0,0,0,91.77,103.94Z"/><path class="cls-1" d="M111.94,111.13h0l-3.87-1.45a1.77,1.77,0,0,1-1.31-1.86,2.35,2.35,0,0,1,.82-1.76,2.71,2.71,0,0,1,1.76-.65,3,3,0,0,1,3,2.19l1.58-.59a3.74,3.74,0,0,0-1-1.75,4.75,4.75,0,0,0-3.34-1.28c-2.26,0-4.53,1.27-4.53,4.13a3.25,3.25,0,0,0,2.51,3.25l3.19,1.07a2.37,2.37,0,0,1,1.72,2.31,2.08,2.08,0,0,1-.6,1.56,2.91,2.91,0,0,1-1.94.78,3.36,3.36,0,0,1-3.38-2l-1.57.57a4.76,4.76,0,0,0,4.52,2.92c1.82,0,4.88-.56,4.88-4.29A3.46,3.46,0,0,0,111.94,111.13Z"/><path class="cls-1" d="M122.68,111.13h0l-3.88-1.45a1.77,1.77,0,0,1-1.3-1.86,2.34,2.34,0,0,1,.81-1.76,2.72,2.72,0,0,1,1.77-.65,3,3,0,0,1,3,2.19l1.58-.59a3.75,3.75,0,0,0-1-1.75,4.74,4.74,0,0,0-3.34-1.28c-2.25,0-4.52,1.27-4.52,4.13a3.24,3.24,0,0,0,2.51,3.25l3.18,1.07a2.37,2.37,0,0,1,1.72,2.31,2.11,2.11,0,0,1-.59,1.56,2.91,2.91,0,0,1-1.95.78,3.37,3.37,0,0,1-3.38-2l-1.57.57a4.77,4.77,0,0,0,4.52,2.92c1.83,0,4.89-.56,4.89-4.29A3.45,3.45,0,0,0,122.68,111.13Z"/><path class="cls-3" d="M380.1,4.21c-3.41-1.33-6.76-2.73-9.92-4.21-24.17,7.68-51,12.48-61.92,14.44l.43.16c5.76.62,11.55,3.83,17.05,8.41,12.71-3.39,26.25-7.2,39-12.21.83-.32,1.64-.63,2.45-1Q373.77,7.16,380.1,4.21Z"/><path class="cls-3" d="M407.63,13.14a176.23,176.23,0,0,1-18,13.25,194.85,194.85,0,0,1-19.95,11.27h0l-.82.39c-5.74,2.85-11.52,5.49-17.15,8l-4.49,2a135.76,135.76,0,0,1,10.8,18.73l.06.11c28.08-17.39,52.18-38,62.65-50.43C417.17,15.66,412.65,14.53,407.63,13.14Z"/></g></g></svg>