<svg xmlns="http://www.w3.org/2000/svg" viewBox="0 0 371.03 56.69"><defs><style>.cls-1{fill:#f4b282;}.cls-2{fill:#ef986b;}.cls-3{fill:#e87127;}.cls-4{fill:#040000;}</style></defs><g id="레이어_2" data-name="레이어 2"><g id="레이어_2-2" data-name="레이어 2"><path class="cls-1" d="M23.08,29.06c-.81-7.37,6.92-13.28,17.25-13.2S59.71,22,60.52,29.34s-6.91,13.28-17.25,13.2S23.89,36.43,23.08,29.06m39.37,2.28c-.94-9.14-11.34-16.62-23.24-16.72S18.41,21.85,19.35,31,30.69,47.62,42.59,47.72s20.8-7.23,19.86-16.38"/><path class="cls-2" d="M44.48,47.9C38.62,54,29.21,54.54,23.46,49s-5.65-14.92.22-21,15.28-6.63,21-1.14,5.65,14.92-.22,21M22.77,27.8c-6.81,7.12-6.92,18.07-.25,24.46S40.14,58.06,47,50.94s6.93-18.07.25-24.46-17.61-5.8-24.43,1.32"/><path class="cls-3" d="M23.39,4.88C35.58.31,47.64,4.93,50.32,15.2s-5,22.3-17.22,26.87S8.85,42,6.17,31.75s5-22.3,17.22-26.87M12.06,8.8C-.58,18.82-3.8,33.33,4.87,41.21s26,6.16,38.61-3.86S59.35,12.83,50.67,4.94s-26-6.15-38.61,3.86"/><path class="cls-4" d="M91.51,17.07V39.69H88V27.76H74.57V39.69H71V17.07h3.54v7.59H88V17.07Z"/><path class="cls-4" d="M100,39.68a5.32,5.32,0,0,1-3.93-1.39,4.6,4.6,0,0,1-1.48-3.57V33.51a4.64,4.64,0,0,1,1.48-3.6A5.35,5.35,0,0,1,100,28.49h9.24V28.4c0-1.8-1-2.72-3-2.72H96v-3h10.22a6.83,6.83,0,0,1,4.87,1.62,6,6,0,0,1,1.71,4.55v6a4.53,4.53,0,0,1-1.56,3.63,5.83,5.83,0,0,1-4,1.21H100Zm6.47-8.18h-5.61c-1.83,0-2.72.77-2.72,2.3v.56c0,1.54.89,2.27,2.72,2.27h5.61c1.83,0,2.78-.74,2.78-2.27V33.8C109.27,32.26,108.33,31.5,106.49,31.5Z"/><path class="cls-4" d="M123.16,22.68h3.48a7.06,7.06,0,0,1,5.2,1.92,7.42,7.42,0,0,1,1.89,5.34v9.74h-3.54V30.11a4.87,4.87,0,0,0-.83-3.1,3.69,3.69,0,0,0-3-1.27h-3a3.67,3.67,0,0,0-3,1.27,4.89,4.89,0,0,0-.77,3.1v9.57h-3.54V29.94A7.29,7.29,0,0,1,118,24.6a6.93,6.93,0,0,1,5.17-1.92Z"/><path class="cls-4" d="M150.06,37.41a5.81,5.81,0,0,1-4.69,2.27h-2.19a6.08,6.08,0,0,1-4.69-1.86,6.78,6.78,0,0,1-1.65-4.93V22.67h3.51V32.92a3.89,3.89,0,0,0,.8,2.72,3.07,3.07,0,0,0,2.39,1h1.54a3.18,3.18,0,0,0,2.42-1,3.89,3.89,0,0,0,.83-2.72V22.67h3.48V32.92a3.89,3.89,0,0,0,.8,2.72,3.07,3.07,0,0,0,2.39,1h1.54a3.18,3.18,0,0,0,2.42-1,3.89,3.89,0,0,0,.83-2.72V22.67h3.51V32.89a6.8,6.8,0,0,1-1.71,4.93,6.21,6.21,0,0,1-4.72,1.86h-2.16a5.75,5.75,0,0,1-4.64-2.27Z"/><path class="cls-4" d="M173.68,25.75a3.67,3.67,0,0,0-3,1.27,4.89,4.89,0,0,0-.77,3.1v9.57h-3.54V17H170v6.7a6.12,6.12,0,0,1,3.51-1H177a7.06,7.06,0,0,1,5.2,1.92A7.42,7.42,0,0,1,184,29.94v9.74H180.5V30.11a4.87,4.87,0,0,0-.83-3.1,3.69,3.69,0,0,0-3-1.27h-3Z"/><path class="cls-4" d="M192.37,39.68a5.32,5.32,0,0,1-3.93-1.39A4.6,4.6,0,0,1,187,34.72V33.51a4.64,4.64,0,0,1,1.48-3.6,5.35,5.35,0,0,1,3.93-1.42h9.24V28.4c0-1.8-1-2.72-3-2.72H188.36v-3h10.22a6.83,6.83,0,0,1,4.87,1.62,6,6,0,0,1,1.71,4.55v6a4.53,4.53,0,0,1-1.56,3.63,5.83,5.83,0,0,1-4,1.21h-7.24Zm6.47-8.18h-5.61c-1.83,0-2.72.77-2.72,2.3v.56c0,1.54.89,2.27,2.72,2.27h5.61c1.83,0,2.78-.74,2.78-2.27V33.8C201.62,32.26,200.68,31.5,198.84,31.5Z"/><path class="cls-4" d="M233.68,17.07v3.08H221.45c-2.25,0-3.37.86-3.37,2.55v1.54c0,1.69,1.1,2.52,3.35,2.52H228a7.36,7.36,0,0,1,5,1.48,5.09,5.09,0,0,1,1.78,4v2.1a5,5,0,0,1-1.78,4,7.39,7.39,0,0,1-5,1.45H215.36V36.68h12.43c2.25,0,3.37-.83,3.37-2.52V32.35c0-1.69-1.12-2.55-3.37-2.55h-6.57a7.25,7.25,0,0,1-5-1.45,5,5,0,0,1-1.75-4V22.54a5,5,0,0,1,1.75-4,7.27,7.27,0,0,1,5-1.48h12.46Z"/><path class="cls-4" d="M249.86,39.75h-5.24a6.64,6.64,0,0,1-5-1.83,6.78,6.78,0,0,1-1.81-5.09V29.66a6.81,6.81,0,0,1,1.81-5.12,6.88,6.88,0,0,1,5-1.84h5.24a7,7,0,0,1,5,1.84,7,7,0,0,1,1.81,5.12v3.17a6.86,6.86,0,0,1-1.81,5.09,6.75,6.75,0,0,1-5,1.83Zm-.27-3.08a3.31,3.31,0,0,0,2.78-1.15,4.85,4.85,0,0,0,.74-2.87V29.87a5,5,0,0,0-.74-2.9,3.32,3.32,0,0,0-2.78-1.18h-4.74A3.26,3.26,0,0,0,242.1,27a5,5,0,0,0-.71,2.9v2.78a4.86,4.86,0,0,0,.71,2.87,3.25,3.25,0,0,0,2.75,1.15Z"/><path class="cls-4" d="M260.07,39.75V17h3.61V39.75Z"/><path class="cls-4" d="M274.22,39.75A6.84,6.84,0,0,1,269,37.83a7.08,7.08,0,0,1-1.89-5.3V22.7h3.55v9.62a4.93,4.93,0,0,0,.77,3.11,3.67,3.67,0,0,0,3,1.24h3a3.7,3.7,0,0,0,3-1.24,4.9,4.9,0,0,0,.83-3.11V22.7h3.55v9.83a7.2,7.2,0,0,1-1.89,5.3,7,7,0,0,1-5.21,1.92h-3.5Z"/><path class="cls-4" d="M296,22.7h5.33v3H296V39.75h-3.58V25.69h-5.33v-3h5.33V18.85H296Z"/><path class="cls-4" d="M308.05,19.27a2,2,0,0,1-.68,1.57,2.48,2.48,0,0,1-1.69.59,2.17,2.17,0,0,1-1.6-.59,1.91,1.91,0,0,1-.68-1.57,2,2,0,0,1,.68-1.6,2.28,2.28,0,0,1,1.6-.59,2.65,2.65,0,0,1,1.69.59A2.11,2.11,0,0,1,308.05,19.27Zm-4.14,20.48v-17h3.61V39.75Z"/><path class="cls-4" d="M322.94,39.75H317.7a6.64,6.64,0,0,1-5-1.83,6.78,6.78,0,0,1-1.81-5.09V29.66a6.81,6.81,0,0,1,1.81-5.12,6.88,6.88,0,0,1,5-1.84h5.24a7,7,0,0,1,5,1.84,7,7,0,0,1,1.81,5.12v3.17a6.86,6.86,0,0,1-1.81,5.09A6.75,6.75,0,0,1,322.94,39.75Zm-.27-3.08a3.31,3.31,0,0,0,2.78-1.15,4.85,4.85,0,0,0,.74-2.87V29.87a5,5,0,0,0-.74-2.9,3.32,3.32,0,0,0-2.78-1.18h-4.74A3.26,3.26,0,0,0,315.18,27a5,5,0,0,0-.71,2.9v2.78a4.86,4.86,0,0,0,.71,2.87,3.25,3.25,0,0,0,2.75,1.15Z"/><path class="cls-4" d="M339.92,22.7h3.49a7.07,7.07,0,0,1,5.21,1.92A7.45,7.45,0,0,1,350.51,30v9.77H347V30.16a4.9,4.9,0,0,0-.83-3.11,3.72,3.72,0,0,0-3-1.27h-3a3.69,3.69,0,0,0-3,1.27,4.93,4.93,0,0,0-.77,3.11v9.59h-3.55V30a7.32,7.32,0,0,1,1.89-5.36,7,7,0,0,1,5.18-1.92Z"/><path class="cls-4" d="M365.14,29.71a7.79,7.79,0,0,1,4.2.89A4,4,0,0,1,371,34.12v1.27a3.85,3.85,0,0,1-1.69,3.49,7.89,7.89,0,0,1-4.23.86H353.8V36.66h11.31c1.54,0,2.34-.53,2.34-1.6v-.68c0-1.07-.8-1.63-2.34-1.63h-5.86a7.7,7.7,0,0,1-4.17-.86,3.85,3.85,0,0,1-1.66-3.49V27.1a3.89,3.89,0,0,1,1.66-3.52,7.69,7.69,0,0,1,4.17-.89h10.83v3.08H359.3c-1.54,0-2.31.56-2.31,1.63v.71c0,1.07.74,1.6,2.28,1.6h5.87Z"/></g></g></svg>